Atma-ExtraBold.ufo
<glyph name="exclam" format="1">
  <advance width="500"/>
  <unicode hex="0021"/>
  <outline>
    <contour>
      <point x="161" y="250"/>
      <point x="427" y="266"/>
      <point x="605" y="291" type="curve"/>
      <point x="617" y="347"/>
      <point x="615" y="430"/>
      <point x="605" y="462" type="curve"/>
      <point x="439" y="462"/>
      <point x="79" y="465"/>
      <point x="-73" y="479" type="curve"/>
      <point x="-83" y="452"/>
      <point x="-88" y="421"/>
      <point x="-88" y="390" type="curve" smooth="yes"/>
      <point x="-88" y="335"/>
      <point x="-74" y="281"/>
      <point x="-56" y="253" type="curve"/>
    </contour>
  </outline>
</glyph>
<glyph name="quotedbl" format="1">
  <advance width="355"/>
  <unicode hex="0022"/>
  <outline>
    <contour>
      <point x="69" y="510"/>
      <point x="108" y="512"/>
      <point x="125" y="517" type="curve"/>
      <point x="143" y="594"/>
      <point x="154" y="662"/>
      <point x="162" y="717" type="curve"/>
      <point x="137" y="726"/>
      <point x="108" y="729"/>
      <point x="88" y="729" type="curve" smooth="yes"/>
      <point x="64" y="729"/>
      <point x="43" y="724"/>
      <point x="31" y="717" type="curve"/>
      <point x="33" y="650"/>
      <point x="36" y="589"/>
      <point x="41" y="512" type="curve"/>
    </contour>
    <contour>
      <point x="236" y="510"/>
      <point x="275" y="512"/>
      <point x="292" y="517" type="curve"/>
      <point x="310" y="594"/>
      <point x="321" y="662"/>
      <point x="329" y="717" type="curve"/>
      <point x="304" y="726"/>
      <point x="275" y="729"/>
      <point x="255" y="729" type="curve" smooth="yes"/>
      <point x="231" y="729"/>
      <point x="210" y="724"/>
      <point x="198" y="717" type="curve"/>
      <point x="200" y="650"/>
      <point x="203" y="589"/>
      <point x="208" y="512" type="curve"/>
    </contour>
  </outline>
</glyph>
<glyph name="numbersign" format="1">
  <advance width="623.864857786"/>
  <unicode hex="0023"/>
  <outline>
    <contour>
      <point x="232" y="170"/>
      <point x="284" y="352"/>
      <point x="325" y="582" type="curve"/>
      <point x="292" y="613"/>
      <point x="235" y="626"/>
      <point x="202" y="627" type="curve"/>
      <point x="188" y="449"/>
      <point x="108" y="169"/>
      <point x="36" y="2" type="curve"/>
      <point x="70" y="-21"/>
      <point x="98" y="-33"/>
      <point x="135" y="-36" type="curve"/>
    </contour>
    <contour>
      <point x="197" y="353"/>
      <point x="400" y="336"/>
      <point x="613" y="342" type="curve"/>
      <point x="634" y="383"/>
      <point x="631" y="441"/>
      <point x="622" y="473" type="curve"/>
      <point x="461" y="456"/>
      <point x="164" y="470"/>
      <point x="38" y="488" type="curve"/>
      <point x="25" y="449"/>
      <point x="21" y="419"/>
      <point x="28" y="383" type="curve"/>
    </contour>
    <contour>
      <point x="182" y="143"/>
      <point x="385" y="126"/>
      <point x="598" y="132" type="curve"/>
      <point x="619" y="173"/>
      <point x="616" y="231"/>
      <point x="607" y="263" type="curve"/>
      <point x="446" y="246"/>
      <point x="149" y="260"/>
      <point x="23" y="278" type="curve"/>
      <point x="10" y="239"/>
      <point x="6" y="209"/>
      <point x="13" y="173" type="curve"/>
    </contour>
    <contour>
      <point x="457" y="165"/>
      <point x="509" y="347"/>
      <point x="550" y="577" type="curve"/>
      <point x="517" y="608"/>
      <point x="460" y="621"/>
      <point x="427" y="622" type="curve"/>
      <point x="413" y="444"/>
      <point x="333" y="164"/>
      <point x="261" y="-3" type="curve"/>
      <point x="295" y="-26"/>
      <point x="323" y="-38"/>
      <point x="360" y="-41" type="curve"/>
    </contour>
  </outline>
</glyph>
<glyph name="dollar" format="1">
  <advance width="505"/>
  <unicode hex="0024"/>
  <outline>
    <contour>
      <point x="287" y="180" type="curve" smooth="yes"/>
      <point x="287" y="152"/>
      <point x="272" y="132"/>
      <point x="235" y="132" type="curve" smooth="yes"/>
      <point x="187" y="132"/>
      <point x="148" y="190"/>
      <point x="148" y="263" type="curve"/>
      <point x="111" y="263"/>
      <point x="52" y="256"/>
      <point x="-5" y="230" type="curve"/>
      <point x="-5" y="132"/>
      <point x="86" y="30"/>
      <point x="243" y="30" type="curve" smooth="yes"/>
      <point x="371" y="30"/>
      <point x="489" y="104"/>
      <point x="489" y="221" type="curve" smooth="yes"/>
      <point x="489" y="309"/>
      <point x="450" y="358"/>
      <point x="337" y="432" type="curve" smooth="yes"/>
      <point x="269" y="476"/>
      <point x="244" y="508"/>
      <point x="244" y="544" type="curve" smooth="yes"/>
      <point x="244" y="567"/>
      <point x="258" y="585"/>
      <point x="277" y="585" type="curve" smooth="yes"/>
      <point x="305" y="585"/>
      <point x="319" y="560"/>
      <point x="332" y="485" type="curve"/>
      <point x="399" y="487"/>
      <point x="452" y="498"/>
      <point x="495" y="523" type="curve"/>
      <point x="470" y="630"/>
      <point x="401" y="692"/>
      <point x="272" y="692" type="curve" smooth="yes"/>
      <point x="130" y="692"/>
      <point x="38" y="604"/>
      <point x="38" y="497" type="curve" smooth="yes"/>
      <point x="38" y="399"/>
      <point x="92" y="356"/>
      <point x="167" y="301" type="curve" smooth="yes"/>
      <point x="228" y="256"/>
      <point x="287" y="230"/>
    </contour>
    <contour>
      <point x="328" y="644" type="curve"/>
      <point x="323" y="693"/>
      <point x="325" y="733"/>
      <point x="333" y="786" type="curve"/>
      <point x="298" y="794"/>
      <point x="242" y="792"/>
      <point x="206" y="780" type="curve"/>
      <point x="202" y="735"/>
      <point x="209" y="680"/>
      <point x="214" y="648" type="curve"/>
      <point x="240" y="637"/>
      <point x="304" y="639"/>
    </contour>
    <contour>
      <point x="178" y="-69" type="curve"/>
      <point x="213" y="-77"/>
      <point x="269" y="-75"/>
      <point x="305" y="-63" type="curve"/>
      <point x="309" y="-18"/>
      <point x="302" y="37"/>
      <point x="297" y="69" type="curve"/>
      <point x="271" y="80"/>
      <point x="207" y="78"/>
      <point x="183" y="73" type="curve"/>
      <point x="188" y="24"/>
      <point x="186" y="-16"/>
    </contour>
  </outline>
</glyph>
<glyph name="ampersand" format="1">
  <advance width="822"/>
  <unicode hex="0026"/>
  <outline>
    <contour>
      <point x="830" y="57" type="curve"/>
      <point x="549" y="158"/>
      <point x="379" y="309"/>
      <point x="379" y="528" type="curve" smooth="yes"/>
      <point x="379" y="589"/>
      <point x="390" y="626"/>
      <point x="419" y="626" type="curve" smooth="yes"/>
      <point x="440" y="626"/>
      <point x="451" y="606"/>
      <point x="451" y="572" type="curve" smooth="yes"/>
      <point x="451" y="525"/>
      <point x="427" y="486"/>
      <point x="366" y="463" type="curve"/>
      <point x="378" y="401" type="line"/>
      <point x="515" y="418"/>
      <point x="625" y="470"/>
      <point x="625" y="586" type="curve" smooth="yes"/>
      <point x="625" y="663"/>
      <point x="558" y="723"/>
      <point x="444" y="723" type="curve" smooth="yes"/>
      <point x="277" y="723"/>
      <point x="200" y="606"/>
      <point x="200" y="474" type="curve" smooth="yes"/>
      <point x="200" y="203"/>
      <point x="434" y="15"/>
      <point x="723" y="-90" type="curve"/>
      <point x="809" y="-24"/>
      <point x="811" y="9"/>
    </contour>
    <contour>
      <point x="761" y="353" type="curve"/>
      <point x="699" y="389"/>
      <point x="612" y="401"/>
      <point x="551" y="383" type="curve"/>
      <point x="559" y="350"/>
      <point x="564" y="309"/>
      <point x="564" y="273" type="curve" smooth="yes"/>
      <point x="564" y="159"/>
      <point x="477" y="81"/>
      <point x="372" y="81" type="curve" smooth="yes"/>
      <point x="264" y="81"/>
      <point x="194" y="145"/>
      <point x="194" y="248" type="curve" smooth="yes"/>
      <point x="194" y="306"/>
      <point x="216" y="349"/>
      <point x="257" y="375" type="curve"/>
      <point x="256" y="432" type="line"/>
      <point x="99" y="422"/>
      <point x="-5" y="321"/>
      <point x="-5" y="196" type="curve" smooth="yes"/>
      <point x="-5" y="38"/>
      <point x="120" y="-54"/>
      <point x="301" y="-54" type="curve" smooth="yes"/>
      <point x="577" y="-54"/>
      <point x="735" y="109"/>
    </contour>
  </outline>
</glyph>
<glyph name="quotesingle" format="1">
  <advance width="500"/>
  <unicode hex="0027"/>
  <outline>
    <contour>
      <point x="46" y="512" type="curve"/>
      <point x="69" y="510"/>
      <point x="101" y="513"/>
      <point x="115" y="517" type="curve"/>
      <point x="133" y="594"/>
      <point x="144" y="662"/>
      <point x="152" y="717" type="curve"/>
      <point x="135" y="723"/>
      <point x="119" y="727"/>
      <point x="102" y="728" type="curve" smooth="yes"/>
      <point x="75" y="731"/>
      <point x="50" y="725"/>
      <point x="36" y="717" type="curve"/>
      <point x="38" y="650"/>
      <point x="41" y="589"/>
    </contour>
  </outline>
</glyph>
<glyph name="parenleft" format="1">
  <advance width="435"/>
  <unicode hex="0028"/>
  <outline>
    <contour>
      <point x="132" y="-143" type="curve"/>
      <point x="230" y="-143"/>
      <point x="328" y="-136"/>
      <point x="420" y="-125" type="curve"/>
      <point x="420" y="-85"/>
      <point x="410" y="-21"/>
      <point x="401" y="5" type="curve"/>
      <point x="363" y="-2"/>
      <point x="296" y="-13"/>
      <point x="252" y="-13" type="curve"/>
      <point x="228" y="251"/>
      <point x="218" y="528"/>
      <point x="245" y="748" type="curve"/>
      <point x="170" y="748"/>
      <point x="121" y="758"/>
      <point x="64" y="756" type="curve"/>
      <point x="68" y="490"/>
      <point x="97" y="75"/>
    </contour>
    <contour>
      <point x="388" y="798" type="curve"/>
      <point x="260" y="794"/>
      <point x="170" y="777"/>
      <point x="64" y="756" type="curve"/>
      <point x="64" y="723"/>
      <point x="78" y="690"/>
      <point x="92" y="654" type="curve"/>
      <point x="186" y="668"/>
      <point x="283" y="671"/>
      <point x="378" y="671" type="curve"/>
      <point x="385" y="704"/>
      <point x="388" y="750"/>
    </contour>
  </outline>
</glyph>
<glyph name="parenright" format="1">
  <advance width="476"/>
  <unicode hex="0029"/>
  <outline>
    <contour>
      <point x="130" y="-172" type="curve"/>
      <point x="308" y="-11"/>
      <point x="374" y="149"/>
      <point x="367" y="318" type="curve" smooth="yes"/>
      <point x="360" y="464"/>
      <point x="305" y="621"/>
      <point x="160" y="758" type="curve"/>
      <point x="113" y="738"/>
      <point x="95" y="726"/>
      <point x="36" y="674" type="curve"/>
      <point x="146" y="570"/>
      <point x="214" y="460"/>
      <point x="220" y="330" type="curve" smooth="yes"/>
      <point x="226" y="189"/>
      <point x="188" y="66"/>
      <point x="15" y="-79" type="curve"/>
      <point x="40" y="-108"/>
      <point x="58" y="-125"/>
    </contour>
  </outline>
</glyph>
<glyph name="asterisk" format="1">
  <advance width="500"/>
  <unicode hex="002A"/>
  <outline>
    <contour>
      <point x="223" y="500" type="curve"/>
      <point x="246" y="500"/>
      <point x="278" y="506"/>
      <point x="291" y="510" type="curve"/>
      <point x="302" y="590"/>
      <point x="307" y="658"/>
      <point x="309" y="714" type="curve"/>
      <point x="292" y="718"/>
      <point x="276" y="720"/>
      <point x="258" y="720" type="curve" smooth="yes"/>
      <point x="231" y="720"/>
      <point x="207" y="712"/>
      <point x="194" y="703" type="curve"/>
      <point x="202" y="636"/>
      <point x="211" y="576"/>
    </contour>
    <contour>
      <point x="291" y="510" type="curve"/>
      <point x="269" y="510"/>
      <point x="236" y="504"/>
      <point x="223" y="500" type="curve"/>
      <point x="213" y="428"/>
      <point x="203" y="346"/>
      <point x="205" y="296" type="curve"/>
      <point x="222" y="292"/>
      <point x="238" y="290"/>
      <point x="256" y="290" type="curve" smooth="yes"/>
      <point x="283" y="290"/>
      <point x="307" y="298"/>
      <point x="320" y="307" type="curve"/>
      <point x="303" y="373"/>
      <point x="293" y="423"/>
    </contour>
    <contour>
      <point x="278" y="478" type="curve"/>
      <point x="267" y="498"/>
      <point x="246" y="523"/>
      <point x="236" y="532" type="curve"/>
      <point x="161" y="501"/>
      <point x="99" y="472"/>
      <point x="50" y="446" type="curve"/>
      <point x="55" y="429"/>
      <point x="61" y="414"/>
      <point x="70" y="398" type="curve" smooth="yes"/>
      <point x="84" y="375"/>
      <point x="103" y="358"/>
      <point x="117" y="351" type="curve"/>
      <point x="171" y="392"/>
      <point x="219" y="430"/>
    </contour>
    <contour>
      <point x="236" y="532" type="curve"/>
      <point x="247" y="513"/>
      <point x="268" y="487"/>
      <point x="278" y="478" type="curve"/>
      <point x="346" y="505"/>
      <point x="422" y="538"/>
      <point x="464" y="564" type="curve"/>
      <point x="459" y="581"/>
      <point x="453" y="596"/>
      <point x="444" y="612" type="curve" smooth="yes"/>
      <point x="430" y="635"/>
      <point x="411" y="652"/>
      <point x="397" y="659" type="curve"/>
      <point x="348" y="611"/>
      <point x="310" y="577"/>
    </contour>
    <contour>
      <point x="270" y="537" type="curve"/>
      <point x="258" y="517"/>
      <point x="247" y="486"/>
      <point x="244" y="473" type="curve"/>
      <point x="308" y="424"/>
      <point x="365" y="385"/>
      <point x="412" y="355" type="curve"/>
      <point x="424" y="368"/>
      <point x="434" y="381"/>
      <point x="443" y="397" type="curve" smooth="yes"/>
      <point x="456" y="420"/>
      <point x="461" y="445"/>
      <point x="460" y="461" type="curve"/>
      <point x="398" y="487"/>
      <point x="341" y="510"/>
    </contour>
    <contour>
      <point x="244" y="473" type="curve"/>
      <point x="255" y="492"/>
      <point x="267" y="524"/>
      <point x="270" y="537" type="curve"/>
      <point x="213" y="582"/>
      <point x="146" y="631"/>
      <point x="102" y="655" type="curve"/>
      <point x="90" y="642"/>
      <point x="80" y="629"/>
      <point x="71" y="613" type="curve" smooth="yes"/>
      <point x="58" y="590"/>
      <point x="53" y="565"/>
      <point x="54" y="549" type="curve"/>
      <point x="120" y="531"/>
      <point x="168" y="515"/>
    </contour>
  </outline>
</glyph>
<glyph name="plus" format="1">
  <advance width="501"/>
  <unicode hex="002B"/>
  <outline>
    <contour>
      <point x="47" y="405" type="curve"/>
      <point x="41" y="361"/>
      <point x="39" y="327"/>
      <point x="39" y="284" type="curve"/>
      <point x="154" y="266"/>
      <point x="330" y="263"/>
      <point x="461" y="284" type="curve"/>
      <point x="472" y="322"/>
      <point x="478" y="362"/>
      <point x="478" y="404" type="curve"/>
      <point x="330" y="388"/>
      <point x="185" y="387"/>
    </contour>
    <contour>
      <point x="189" y="119" type="curve"/>
      <point x="231" y="116"/>
      <point x="271" y="118"/>
      <point x="309" y="122" type="curve"/>
      <point x="330" y="253"/>
      <point x="327" y="429"/>
      <point x="309" y="544" type="curve"/>
      <point x="266" y="544"/>
      <point x="232" y="542"/>
      <point x="188" y="536" type="curve"/>
      <point x="205" y="402"/>
      <point x="204" y="262"/>
    </contour>
  </outline>
</glyph>
<glyph name="comma" format="1">
  <advance width="220"/>
  <unicode hex="002C"/>
  <outline>
    <contour>
      <point x="204" y="134" type="curve"/>
      <point x="152.130320098" y="149.658771291"/>
      <point x="94" y="150"/>
      <point x="18" y="150" type="curve"/>
      <point x="20" y="25"/>
      <point x="4.61625579937" y="-95.5093938558"/>
      <point x="-25" y="-212" type="curve"/>
      <point x="15.3518908341" y="-222.568352361"/>
      <point x="60.2586963642" y="-229.125483131"/>
      <point x="112" y="-232" type="curve"/>
      <point x="166.121624438" y="-115.738732688"/>
      <point x="195.9781687" y="6.65342811581"/>
    </contour>
  </outline>
</glyph>
<glyph name="hyphen" format="1">
  <advance width="500"/>
  <unicode hex="002D"/>
  <outline>
    <contour>
      <point x="12.9841729565" y="502.476259435"/>
      <point x="10.0" y="455.0"/>
      <point x="10" y="419" type="curve"/>
      <point x="67.2390649586" y="394.327989242"/>
      <point x="240" y="392"/>
      <point x="321" y="408" type="curve"/>
      <point x="333" y="442"/>
      <point x="340" y="484"/>
      <point x="340" y="513" type="curve"/>
      <point x="321" y="510"/>
      <point x="256.5" y="507.0"/>
      <point x="168" y="507" type="curve" smooth="yes"/>
      <point x="140" y="507"/>
      <point x="63.515719008" y="514.766657235"/>
      <point x="28" y="525" type="curve"/>
    </contour>
  </outline>
</glyph>
<glyph name="period" format="1">
  <advance width="251"/>
  <unicode hex="002E"/>
  <outline>
    <contour>
      <point x="212" y="37"/>
      <point x="219" y="104"/>
      <point x="231" y="137" type="curve"/>
      <point x="214" y="146"/>
      <point x="182" y="151"/>
      <point x="141" y="151" type="curve" smooth="yes"/>
      <point x="99" y="151"/>
      <point x="64" y="144"/>
      <point x="36" y="131" type="curve"/>
      <point x="31" y="114"/>
      <point x="30" y="94"/>
      <point x="30" y="76" type="curve" smooth="yes"/>
      <point x="30" y="42"/>
      <point x="36" y="10"/>
      <point x="44" y="-16" type="curve"/>
      <point x="119" y="-17"/>
      <point x="171" y="-14"/>
      <point x="210" y="-8" type="curve"/>
    </contour>
  </outline>
</glyph>
<glyph name="slash" format="1">
  <advance width="500"/>
  <unicode hex="002F"/>
  <outline>
    <contour>
      <point x="219" y="124"/>
      <point x="435" y="451"/>
      <point x="564" y="650" type="curve"/>
      <point x="530" y="699"/>
      <point x="477" y="735"/>
      <point x="439" y="744" type="curve"/>
      <point x="359" y="590"/>
      <point x="87" y="144"/>
      <point x="-19" y="-11" type="curve"/>
      <point x="3" y="-37"/>
      <point x="38" y="-64"/>
      <point x="69" y="-79" type="curve"/>
    </contour>
  </outline>
</glyph>
<glyph name="zero" format="1">
  <advance width="679"/>
  <unicode hex="0030"/>
  <outline>
    <contour>
      <point x="363" y="673" type="curve" smooth="yes"/>
      <point x="162.0" y="673.0"/>
      <point x="30.0" y="510.142857143"/>
      <point x="30" y="293" type="curve" smooth="yes"/>
      <point x="30.0" y="134.218658892"/>
      <point x="95.6212121212" y="-20.0"/>
      <point x="274" y="-20" type="curve" smooth="yes"/>
      <point x="531.61971831" y="-20.0"/>
      <point x="609.0" y="249.818584071"/>
      <point x="609" y="402" type="curve" smooth="yes"/>
      <point x="609.0" y="578.543568465"/>
      <point x="517.0" y="673.0"/>
    </contour>
    <contour>
      <point x="320" y="543" type="curve" smooth="yes"/>
      <point x="372.0" y="543.0"/>
      <point x="400.0" y="488.686746988"/>
      <point x="400" y="347" type="curve" smooth="yes"/>
      <point x="400.0" y="250.247191011"/>
      <point x="382.27184466" y="110.0"/>
      <point x="317" y="110" type="curve" smooth="yes"/>
      <point x="258.31372549" y="110.0"/>
      <point x="235.0" y="229.070539419"/>
      <point x="235" y="321" type="curve" smooth="yes"/>
      <point x="235.0" y="453.96875"/>
      <point x="271.0" y="543.0"/>
    </contour>
  </outline>
</glyph>
<glyph name="one" format="1">
  <advance width="500"/>
  <unicode hex="0031"/>
  <outline>
    <contour>
      <point x="283" y="637"/>
      <point x="246" y="626"/>
      <point x="217" y="611" type="curve"/>
      <point x="189" y="488"/>
      <point x="145" y="264"/>
      <point x="145" y="84" type="curve" smooth="yes"/>
      <point x="145" y="51"/>
      <point x="145" y="19"/>
      <point x="148" y="-7" type="curve"/>
      <point x="165" y="-12"/>
      <point x="180" y="-14"/>
      <point x="208" y="-14" type="curve" smooth="yes"/>
      <point x="256" y="-14"/>
      <point x="291" y="-6"/>
      <point x="315" y="5" type="curve"/>
      <point x="339" y="294"/>
      <point x="398" y="526"/>
      <point x="436" y="625" type="curve"/>
      <point x="407" y="632"/>
      <point x="373" y="637"/>
      <point x="346" y="637" type="curve" smooth="yes"/>
    </contour>
  </outline>
</glyph>
<glyph name="two" format="1">
  <advance width="551"/>
  <unicode hex="0032"/>
  <outline>
    <contour>
      <point x="516" y="453" type="curve" smooth="yes"/>
      <point x="516" y="562"/>
      <point x="419" y="641"/>
      <point x="276" y="641" type="curve" smooth="yes"/>
      <point x="148" y="641"/>
      <point x="62" y="561"/>
      <point x="30" y="470" type="curve"/>
      <point x="78.6119319443" y="446.21118224"/>
      <point x="135" y="435"/>
      <point x="203" y="435" type="curve"/>
      <point x="221" y="501"/>
      <point x="238.0" y="542.0"/>
      <point x="268" y="542" type="curve" smooth="yes"/>
      <point x="297" y="542"/>
      <point x="310" y="519"/>
      <point x="310" y="477" type="curve" smooth="yes"/>
      <point x="310.0" y="382.850746269"/>
      <point x="211" y="300"/>
      <point x="6" y="145" type="curve"/>
      <point x="-6" y="110"/>
      <point x="-10" y="56"/>
      <point x="-10" y="16" type="curve"/>
      <point x="103" y="-20"/>
      <point x="309.867161945" y="-45.9714976686"/>
      <point x="459" y="-47" type="curve"/>
      <point x="478" y="-1"/>
      <point x="488" y="58"/>
      <point x="488" y="120" type="curve"/>
      <point x="405.876563712" y="112.270735408"/>
      <point x="323" y="114"/>
      <point x="217" y="114" type="curve"/>
      <point x="401" y="240"/>
      <point x="516.0" y="344.639296188"/>
    </contour>
  </outline>
</glyph>
<glyph name="three" format="1">
  <advance width="551"/>
  <unicode hex="0033"/>
  <outline>
    <contour>
      <point x="-10" y="141" type="curve" smooth="yes"/>
      <point x="-10" y="32"/>
      <point x="87" y="-47"/>
      <point x="230" y="-47" type="curve" smooth="yes"/>
      <point x="370" y="-47"/>
      <point x="461" y="17"/>
      <point x="500" y="164" type="curve"/>
      <point x="449" y="189"/>
      <point x="389" y="199"/>
      <point x="317" y="199" type="curve"/>
      <point x="298" y="103"/>
      <point x="274" y="62"/>
      <point x="238" y="62" type="curve" smooth="yes"/>
      <point x="209" y="62"/>
      <point x="196" y="81"/>
      <point x="196" y="117" type="curve" smooth="yes"/>
      <point x="196" y="211"/>
      <point x="295" y="294"/>
      <point x="500" y="449" type="curve"/>
      <point x="512" y="484"/>
      <point x="516" y="538"/>
      <point x="516" y="578" type="curve"/>
      <point x="403" y="614"/>
      <point x="196" y="640"/>
      <point x="47" y="641" type="curve"/>
      <point x="28" y="595"/>
      <point x="18" y="536"/>
      <point x="18" y="474" type="curve"/>
      <point x="100" y="482"/>
      <point x="183" y="480"/>
      <point x="289" y="480" type="curve"/>
      <point x="105" y="354"/>
      <point x="-10" y="249"/>
    </contour>
  </outline>
</glyph>
<glyph name="four" format="1">
  <advance width="653"/>
  <unicode hex="0034"/>
  <outline>
    <contour>
      <point x="426" y="424"/>
      <point x="389" y="413"/>
      <point x="360" y="398" type="curve"/>
      <point x="343" y="323"/>
      <point x="330.0" y="161.657754011"/>
      <point x="330" y="50" type="curve" smooth="yes"/>
      <point x="330" y="17"/>
      <point x="330" y="-15"/>
      <point x="333" y="-41" type="curve"/>
      <point x="350" y="-46"/>
      <point x="365" y="-48"/>
      <point x="393" y="-48" type="curve" smooth="yes"/>
      <point x="441" y="-48"/>
      <point x="476" y="-40"/>
      <point x="500" y="-29" type="curve"/>
      <point x="516.17753647" y="165.804501657"/>
      <point x="554" y="346"/>
      <point x="579" y="412" type="curve"/>
      <point x="550" y="419"/>
      <point x="516" y="424"/>
      <point x="489" y="424" type="curve" smooth="yes"/>
    </contour>
    <contour>
      <point x="304" y="750" type="curve"/>
      <point x="195" y="589"/>
      <point x="97" y="409"/>
      <point x="-55" y="265" type="curve"/>
      <point x="-11" y="215"/>
      <point x="40" y="181"/>
      <point x="97" y="163" type="curve"/>
      <point x="234" y="334"/>
      <point x="339" y="523"/>
      <point x="441" y="718" type="curve"/>
      <point x="402" y="739"/>
      <point x="357" y="751"/>
    </contour>
  </outline>
</glyph>
<glyph name="six" format="1">
  <advance width="618"/>
  <unicode hex="0036"/>
  <outline>
    <contour>
      <point x="357" y="557" type="curve" smooth="yes"/>
      <point x="282" y="557"/>
      <point x="235" y="452"/>
      <point x="235" y="292" type="curve" smooth="yes"/>
      <point x="235" y="183"/>
      <point x="265" y="100"/>
      <point x="317" y="100" type="curve" smooth="yes"/>
      <point x="359" y="100"/>
      <point x="371" y="150"/>
      <point x="371" y="184" type="curve" smooth="yes"/>
      <point x="371" y="280"/>
      <point x="303" y="315"/>
      <point x="225" y="271" type="curve"/>
      <point x="209" y="354" type="line"/>
      <point x="374" y="459"/>
      <point x="580" y="403"/>
      <point x="580" y="230" type="curve" smooth="yes"/>
      <point x="580" y="142"/>
      <point x="510" y="-30"/>
      <point x="296" y="-30" type="curve" smooth="yes"/>
      <point x="96" y="-30"/>
      <point x="30" y="124"/>
      <point x="30" y="283" type="curve" smooth="yes"/>
      <point x="30" y="510"/>
      <point x="162" y="691"/>
      <point x="363" y="691" type="curve" smooth="yes"/>
      <point x="495.920152091" y="691.0"/>
      <point x="571" y="621"/>
      <point x="590" y="527" type="curve"/>
      <point x="542" y="495"/>
      <point x="493" y="478"/>
      <point x="420" y="473" type="curve"/>
      <point x="411" y="530"/>
      <point x="392.660377358" y="557.0"/>
    </contour>
  </outline>
</glyph>
<glyph name="seven" format="1">
  <advance width="500"/>
  <unicode hex="0037"/>
  <outline>
    <contour>
      <point x="197" y="39" type="move"/>
      <point x="311" y="163"/>
      <point x="456" y="324"/>
      <point x="558" y="440" type="curve"/>
      <point x="575" y="477"/>
      <point x="581" y="528"/>
      <point x="586" y="570" type="curve"/>
      <point x="427" y="593"/>
      <point x="242" y="622"/>
      <point x="70" y="654" type="curve"/>
      <point x="41" y="600"/>
      <point x="32" y="552"/>
      <point x="32" y="490" type="curve"/>
      <point x="135" y="477"/>
      <point x="262" y="463"/>
      <point x="356" y="463" type="curve"/>
      <point x="255" y="349"/>
      <point x="149" y="227"/>
      <point x="9" y="74" type="curve"/>
      <point x="-3" y="37"/>
      <point x="-9" y="-18"/>
      <point x="-9" y="-60" type="curve"/>
    </contour>
  </outline>
</glyph>
<glyph name="eight" format="1">
  <advance width="639"/>
  <unicode hex="0038"/>
  <outline>
    <contour>
      <point x="363" y="713" type="curve" smooth="yes"/>
      <point x="162" y="713"/>
      <point x="30" y="550"/>
      <point x="30" y="333" type="curve" smooth="yes"/>
      <point x="30" y="174"/>
      <point x="96" y="20"/>
      <point x="274" y="20" type="curve" smooth="yes"/>
      <point x="532" y="20"/>
      <point x="609" y="290"/>
      <point x="609" y="442" type="curve" smooth="yes"/>
      <point x="609" y="619"/>
      <point x="517" y="713"/>
    </contour>
    <contour>
      <point x="328" y="583" type="curve" smooth="yes"/>
      <point x="372" y="583"/>
      <point x="400" y="529"/>
      <point x="400" y="387" type="curve" smooth="yes"/>
      <point x="400" y="290"/>
      <point x="382" y="150"/>
      <point x="317" y="150" type="curve" smooth="yes"/>
      <point x="258" y="150"/>
      <point x="235" y="269"/>
      <point x="235" y="361" type="curve" smooth="yes"/>
      <point x="235" y="494"/>
      <point x="271" y="583"/>
    </contour>
  </outline>
</glyph>
<glyph name="nine" format="1">
  <advance width="618"/>
  <unicode hex="0039"/>
  <outline>
    <contour>
      <point x="357" y="84" type="curve" smooth="yes"/>
      <point x="393" y="84"/>
      <point x="411" y="111"/>
      <point x="420" y="168" type="curve"/>
      <point x="493" y="163"/>
      <point x="542" y="146"/>
      <point x="590" y="114" type="curve"/>
      <point x="571" y="20"/>
      <point x="496" y="-50"/>
      <point x="363" y="-50" type="curve" smooth="yes"/>
      <point x="163" y="-50"/>
      <point x="32" y="121"/>
      <point x="32" y="348" type="curve" smooth="yes"/>
      <point x="32" y="522"/>
      <point x="100" y="691"/>
      <point x="306" y="691" type="curve" smooth="yes"/>
      <point x="520" y="691"/>
      <point x="590" y="519"/>
      <point x="590" y="431" type="curve" smooth="yes"/>
      <point x="590" y="258"/>
      <point x="384" y="202"/>
      <point x="219" y="307" type="curve"/>
      <point x="235" y="390" type="line"/>
      <point x="313" y="346"/>
      <point x="381" y="381"/>
      <point x="381" y="477" type="curve" smooth="yes"/>
      <point x="381" y="511"/>
      <point x="369" y="561"/>
      <point x="327" y="561" type="curve" smooth="yes"/>
      <point x="270" y="561"/>
      <point x="237" y="465"/>
      <point x="237" y="339" type="curve" smooth="yes"/>
      <point x="237" y="179"/>
      <point x="283" y="84"/>
    </contour>
  </outline>
</glyph>
<glyph name="colon" format="1">
  <advance width="282"/>
  <unicode hex="003A"/>
  <outline>
    <contour>
      <point x="258" y="46"/>
      <point x="256" y="100"/>
      <point x="255" y="163" type="curve"/>
      <point x="179" y="163"/>
      <point x="115" y="159"/>
      <point x="63" y="154" type="curve"/>
      <point x="63" y="96"/>
      <point x="63" y="61"/>
      <point x="64" y="-4" type="curve"/>
      <point x="100" y="-12"/>
      <point x="192" y="-17"/>
      <point x="257" y="-17" type="curve"/>
    </contour>
    <contour>
      <point x="246" y="405"/>
      <point x="243" y="471"/>
      <point x="239" y="533" type="curve"/>
      <point x="217" y="544"/>
      <point x="180" y="553"/>
      <point x="139" y="553" type="curve" smooth="yes"/>
      <point x="108" y="553"/>
      <point x="79" y="551"/>
      <point x="45" y="544" type="curve"/>
      <point x="51" y="486"/>
      <point x="54" y="438"/>
      <point x="57" y="376" type="curve"/>
      <point x="119" y="374"/>
      <point x="177" y="371"/>
      <point x="247" y="370" type="curve"/>
    </contour>
  </outline>
</glyph>
<glyph name="semicolon" format="1">
  <advance width="220"/>
  <unicode hex="003B"/>
  <outline>
    <contour>
      <point x="31" y="106"/>
      <point x="23.001866635" y="36.9580007117"/>
      <point x="25" y="-8" type="curve"/>
      <point x="65" y="-14"/>
      <point x="117" y="-17"/>
      <point x="192" y="-16" type="curve"/>
      <point x="200.28611369" y="10.9298694934"/>
      <point x="211.0" y="42.0"/>
      <point x="211" y="76" type="curve" smooth="yes"/>
      <point x="211.0" y="94.0"/>
      <point x="220" y="115"/>
      <point x="215" y="131" type="curve"/>
      <point x="187" y="144"/>
      <point x="152" y="151"/>
      <point x="110" y="151" type="curve" smooth="yes"/>
      <point x="69" y="151"/>
      <point x="36" y="146"/>
      <point x="19" y="137" type="curve"/>
    </contour>
    <component base="comma"/>
  </outline>
</glyph>
<glyph name="less" format="1">
  <advance width="501"/>
  <unicode hex="003C"/>
  <outline>
    <contour>
      <point x="96" y="274" type="line"/>
      <point x="207" y="358"/>
      <point x="334" y="428"/>
      <point x="472" y="487" type="curve"/>
      <point x="463" y="531"/>
      <point x="454" y="560"/>
      <point x="435" y="597" type="curve"/>
      <point x="311" y="551"/>
      <point x="121" y="448"/>
      <point x="29" y="375" type="curve"/>
      <point x="29" y="311" type="line"/>
      <point x="121" y="238"/>
      <point x="311" y="135"/>
      <point x="435" y="89" type="curve"/>
      <point x="454" y="126"/>
      <point x="463" y="155"/>
      <point x="472" y="199" type="curve"/>
      <point x="334" y="258"/>
      <point x="207" y="328"/>
      <point x="96" y="412" type="curve"/>
    </contour>
  </outline>
</glyph>
<glyph name="equal" format="1">
  <advance width="501"/>
  <unicode hex="003D"/>
  <outline>
    <contour>
      <point x="46" y="479" type="curve"/>
      <point x="40" y="435"/>
      <point x="38" y="401"/>
      <point x="38" y="358" type="curve"/>
      <point x="153" y="340"/>
      <point x="329" y="337"/>
      <point x="460" y="358" type="curve"/>
      <point x="471" y="396"/>
      <point x="477" y="436"/>
      <point x="477" y="478" type="curve"/>
      <point x="329" y="462"/>
      <point x="184" y="461"/>
    </contour>
    <contour>
      <point x="32" y="310" type="curve"/>
      <point x="26" y="266"/>
      <point x="24" y="232"/>
      <point x="24" y="189" type="curve"/>
      <point x="139" y="171"/>
      <point x="315" y="168"/>
      <point x="446" y="189" type="curve"/>
      <point x="457" y="227"/>
      <point x="463" y="267"/>
      <point x="463" y="309" type="curve"/>
      <point x="315" y="293"/>
      <point x="170" y="292"/>
    </contour>
  </outline>
</glyph>
<glyph name="greater" format="1">
  <advance width="501"/>
  <unicode hex="003E"/>
  <outline>
    <contour>
      <point x="405" y="413" type="line"/>
      <point x="294" y="329"/>
      <point x="167" y="259"/>
      <point x="29" y="200" type="curve"/>
      <point x="38" y="156"/>
      <point x="47" y="127"/>
      <point x="66" y="90" type="curve"/>
      <point x="190" y="136"/>
      <point x="380" y="239"/>
      <point x="472" y="312" type="curve"/>
      <point x="472" y="376" type="line"/>
      <point x="380" y="449"/>
      <point x="190" y="552"/>
      <point x="66" y="598" type="curve"/>
      <point x="47" y="561"/>
      <point x="38" y="532"/>
      <point x="29" y="488" type="curve"/>
      <point x="167" y="429"/>
      <point x="294" y="359"/>
      <point x="405" y="275" type="curve"/>
    </contour>
  </outline>
</glyph>
<glyph name="question" format="1">
  <advance width="500"/>
  <unicode hex="003F"/>
  <outline>
    <contour>
      <point x="413" y="358" type="curve"/>
      <point x="235" y="320"/>
      <point x="75" y="312"/>
      <point x="-68" y="312" type="curve"/>
      <point x="-68" y="248"/>
      <point x="-58" y="188"/>
      <point x="-39" y="142" type="curve"/>
      <point x="111" y="143"/>
      <point x="321" y="169"/>
      <point x="434" y="205" type="curve"/>
      <point x="434" y="253"/>
      <point x="428" y="316"/>
    </contour>
    <contour>
      <point x="366" y="258" type="move"/>
      <point x="480" y="291"/>
      <point x="540" y="345"/>
      <point x="540" y="436" type="curve" smooth="yes"/>
      <point x="540" y="560"/>
      <point x="417" y="671"/>
      <point x="273" y="671" type="curve" smooth="yes"/>
      <point x="144" y="671"/>
      <point x="38" y="612"/>
      <point x="30" y="460" type="curve"/>
      <point x="81" y="435"/>
      <point x="141" y="425"/>
      <point x="213" y="425" type="curve"/>
      <point x="213" y="521"/>
      <point x="256" y="562"/>
      <point x="284" y="562" type="curve" smooth="yes"/>
      <point x="310" y="562"/>
      <point x="334" y="543"/>
      <point x="334" y="477" type="curve" smooth="yes"/>
      <point x="334" y="413"/>
      <point x="296" y="344"/>
      <point x="183" y="336" type="curve"/>
      <point x="173" y="295"/>
      <point x="168" y="271"/>
      <point x="168" y="219" type="curve"/>
    </contour>
  </outline>
</glyph>
<glyph name="at" format="1">
  <advance width="915"/>
  <unicode hex="0040"/>
  <outline>
    <contour>
      <point x="507" y="439" type="curve"/>
      <point x="516" y="520" type="line"/>
      <point x="508" y="525"/>
      <point x="483" y="528"/>
      <point x="467" y="528" type="curve" smooth="yes"/>
      <point x="339" y="528"/>
      <point x="260" y="431"/>
      <point x="260" y="283" type="curve" smooth="yes"/>
      <point x="260" y="183"/>
      <point x="299" y="97"/>
      <point x="389" y="97" type="curve"/>
      <point x="457" y="97"/>
      <point x="513" y="143"/>
      <point x="532" y="288" type="curve"/>
      <point x="496" y="327" type="line"/>
      <point x="487" y="233"/>
      <point x="465" y="202"/>
      <point x="447" y="202" type="curve" smooth="yes"/>
      <point x="422" y="202"/>
      <point x="408" y="236"/>
      <point x="408" y="302" type="curve" smooth="yes"/>
      <point x="408" y="397"/>
      <point x="436" y="446"/>
      <point x="475" y="446" type="curve" smooth="yes"/>
      <point x="489" y="446"/>
      <point x="498" y="443"/>
    </contour>
    <contour>
      <point x="891" y="365" type="curve" smooth="yes"/>
      <point x="891" y="553"/>
      <point x="780" y="733"/>
      <point x="510" y="733" type="curve" smooth="yes"/>
      <point x="212" y="733"/>
      <point x="25" y="538"/>
      <point x="25" y="277" type="curve" smooth="yes"/>
      <point x="25.0" y="43.0"/>
      <point x="166" y="-123"/>
      <point x="427" y="-123" type="curve" smooth="yes"/>
      <point x="530" y="-123"/>
      <point x="605.0" y="-101.0"/>
      <point x="679" y="-59" type="curve"/>
      <point x="660.0" y="-24.0"/>
      <point x="634" y="7"/>
      <point x="603" y="36" type="curve"/>
      <point x="559" y="3"/>
      <point x="515" y="-17"/>
      <point x="435" y="-17" type="curve" smooth="yes"/>
      <point x="245" y="-17"/>
      <point x="156.0" y="113.972560976"/>
      <point x="156" y="306" type="curve" smooth="yes"/>
      <point x="156.0" y="501.993957704"/>
      <point x="281.0" y="632.0"/>
      <point x="498" y="632" type="curve" smooth="yes"/>
      <point x="678.0" y="632.0"/>
      <point x="775.0" y="533.851851852"/>
      <point x="775" y="367" type="curve" smooth="yes"/>
      <point x="775.0" y="246.0"/>
      <point x="726" y="165"/>
      <point x="681" y="165" type="curve" smooth="yes"/>
      <point x="645" y="165"/>
      <point x="626" y="207"/>
      <point x="626" y="305" type="curve" smooth="yes"/>
      <point x="626" y="374"/>
      <point x="626.783872303" y="435.445646725"/>
      <point x="633" y="550" type="curve"/>
      <point x="602" y="557"/>
      <point x="557" y="564"/>
      <point x="478" y="548" type="curve"/>
      <point x="485" y="409"/>
      <point x="490" y="326"/>
      <point x="497" y="243" type="curve" smooth="yes"/>
      <point x="504.99842831" y="147.018860277"/>
      <point x="559" y="85"/>
      <point x="665" y="85" type="curve" smooth="yes"/>
      <point x="770" y="85"/>
      <point x="891.0" y="183.0"/>
    </contour>
  </outline>
</glyph>
<glyph name="A" format="1">
  <advance width="665"/>
  <unicode hex="0041"/>
  <outline>
    <contour>
      <point x="496" y="-78" type="curve"/>
      <point x="573" y="-58"/>
      <point x="644" y="-50"/>
      <point x="695" y="-16" type="curve"/>
      <point x="634" y="226"/>
      <point x="523" y="482"/>
      <point x="389" y="695" type="curve"/>
      <point x="347" y="705"/>
      <point x="299" y="710"/>
      <point x="245" y="710" type="curve"/>
      <point x="172" y="472"/>
      <point x="99" y="281"/>
      <point x="-22" y="55" type="curve"/>
      <point x="-5" y="4"/>
      <point x="72" y="-33"/>
      <point x="139" y="-32" type="curve"/>
      <point x="208" y="109"/>
      <point x="269" y="343"/>
      <point x="307" y="495" type="curve"/>
      <point x="378" y="334"/>
      <point x="464" y="106"/>
    </contour>
    <contour>
      <point x="502" y="445" type="line"/>
      <point x="397" y="445"/>
      <point x="303" y="435"/>
      <point x="205" y="416" type="curve"/>
      <point x="217" y="269" type="line"/>
      <point x="316" y="284"/>
      <point x="419" y="287"/>
      <point x="518" y="287" type="curve"/>
    </contour>
  </outline>
</glyph>
<glyph name="B" format="1">
  <advance width="681"/>
  <unicode hex="0042"/>
  <outline>
    <contour>
      <point x="52" y="684" type="curve"/>
      <point x="50" y="635"/>
      <point x="50" y="586"/>
      <point x="50" y="538" type="curve" smooth="yes"/>
      <point x="50" y="363"/>
      <point x="59" y="189"/>
      <point x="79" y="15" type="curve"/>
      <point x="130" y="6"/>
      <point x="198" y="2"/>
      <point x="251" y="2" type="curve"/>
      <point x="248" y="74"/>
      <point x="246" y="147"/>
      <point x="246" y="221" type="curve" smooth="yes"/>
      <point x="246" y="373"/>
      <point x="253" y="526"/>
      <point x="268" y="675" type="curve"/>
      <point x="233" y="684"/>
      <point x="206" y="690"/>
      <point x="162" y="690" type="curve" smooth="yes"/>
      <point x="132" y="690"/>
      <point x="83" y="689"/>
    </contour>
    <contour>
      <point x="101" y="561" type="line"/>
      <point x="165" y="603"/>
      <point x="240" y="629"/>
      <point x="312" y="629" type="curve" smooth="yes"/>
      <point x="379" y="629"/>
      <point x="419" y="600"/>
      <point x="419" y="549" type="curve" smooth="yes"/>
      <point x="419" y="490"/>
      <point x="360.783372577" y="451.968554084"/>
      <point x="237" y="434" type="curve"/>
      <point x="362" y="361" type="line"/>
      <point x="541" y="399"/>
      <point x="614.0" y="478.818181818"/>
      <point x="614" y="577" type="curve" smooth="yes"/>
      <point x="614" y="679"/>
      <point x="531" y="742"/>
      <point x="372" y="742" type="curve" smooth="yes"/>
      <point x="245" y="742"/>
      <point x="157" y="716"/>
      <point x="52" y="684" type="curve"/>
    </contour>
    <contour>
      <point x="360" y="-20" type="curve" smooth="yes"/>
      <point x="516" y="-20"/>
      <point x="664" y="103"/>
      <point x="664" y="267" type="curve" smooth="yes"/>
      <point x="664" y="357"/>
      <point x="592" y="443"/>
      <point x="435" y="443" type="curve" smooth="yes"/>
      <point x="356" y="443"/>
      <point x="294" y="437"/>
      <point x="215" y="422" type="curve"/>
      <point x="216" y="285" type="line"/>
      <point x="269" y="299"/>
      <point x="314" y="311"/>
      <point x="360" y="311" type="curve" smooth="yes"/>
      <point x="437" y="311"/>
      <point x="462" y="272"/>
      <point x="462" y="213" type="curve" smooth="yes"/>
      <point x="462" y="179"/>
      <point x="448" y="115"/>
      <point x="352" y="115" type="curve" smooth="yes"/>
      <point x="296" y="115"/>
      <point x="246" y="125"/>
      <point x="193" y="160" type="curve"/>
      <point x="121" y="61" type="line"/>
      <point x="202" y="-12"/>
      <point x="293.551569507" y="-20.0"/>
    </contour>
  </outline>
</glyph>
<glyph name="C" format="1">
  <advance width="638"/>
  <unicode hex="0043"/>
  <outline>
    <contour>
      <point x="486" y="240" type="curve"/>
      <point x="455" y="182"/>
      <point x="415" y="140"/>
      <point x="361" y="140" type="curve" smooth="yes"/>
      <point x="270" y="140"/>
      <point x="238" y="262"/>
      <point x="238" y="366" type="curve" smooth="yes"/>
      <point x="238" y="538"/>
      <point x="282" y="643"/>
      <point x="343" y="643" type="curve" smooth="yes"/>
      <point x="390" y="643"/>
      <point x="423" y="609"/>
      <point x="437" y="526" type="curve"/>
      <point x="524" y="526"/>
      <point x="549" y="528"/>
      <point x="611" y="545" type="curve"/>
      <point x="599" y="684"/>
      <point x="512" y="763"/>
      <point x="380" y="763" type="curve" smooth="yes"/>
      <point x="173" y="763"/>
      <point x="33" y="588"/>
      <point x="33" y="353" type="curve" smooth="yes"/>
      <point x="33" y="126"/>
      <point x="160" y="20"/>
      <point x="327" y="20" type="curve" smooth="yes"/>
      <point x="443" y="20"/>
      <point x="526" y="65"/>
      <point x="586" y="156" type="curve"/>
      <point x="566" y="195"/>
      <point x="532" y="221"/>
    </contour>
  </outline>
</glyph>
<glyph name="D" format="1">
  <advance width="664"/>
  <unicode hex="0044"/>
  <outline>
    <contour>
      <point x="52" y="654" type="curve"/>
      <point x="50" y="605"/>
      <point x="50" y="556"/>
      <point x="50" y="508" type="curve" smooth="yes"/>
      <point x="50" y="333"/>
      <point x="59" y="159"/>
      <point x="79" y="-15" type="curve"/>
      <point x="129" y="-24"/>
      <point x="195" y="-28"/>
      <point x="246" y="-28" type="curve"/>
      <point x="243" y="44"/>
      <point x="241" y="117"/>
      <point x="241" y="191" type="curve" smooth="yes"/>
      <point x="241" y="343"/>
      <point x="248" y="496"/>
      <point x="263" y="645" type="curve"/>
      <point x="230" y="654"/>
      <point x="204" y="660"/>
      <point x="162" y="660" type="curve" smooth="yes"/>
      <point x="132" y="660"/>
      <point x="83" y="659"/>
    </contour>
    <contour>
      <point x="101" y="531" type="line"/>
      <point x="165" y="573"/>
      <point x="240" y="599"/>
      <point x="304" y="599" type="curve" smooth="yes"/>
      <point x="392" y="599"/>
      <point x="438" y="532"/>
      <point x="438" y="413" type="curve" smooth="yes"/>
      <point x="438" y="220"/>
      <point x="355" y="68"/>
      <point x="149" y="38" type="curve"/>
      <point x="244" y="-25" type="line"/>
      <point x="534" y="36"/>
      <point x="633" y="229"/>
      <point x="633" y="441" type="curve" smooth="yes"/>
      <point x="633" y="609"/>
      <point x="533" y="712"/>
      <point x="342" y="712" type="curve" smooth="yes"/>
      <point x="227" y="712"/>
      <point x="140" y="691"/>
      <point x="52" y="654" type="curve"/>
    </contour>
  </outline>
</glyph>
<glyph name="E" format="1">
  <advance width="714"/>
  <unicode hex="0045"/>
  <outline>
    <contour>
      <point x="100" y="-6" type="curve"/>
      <point x="247" y="-6"/>
      <point x="501" y="12"/>
      <point x="534" y="22" type="curve"/>
      <point x="534" y="59"/>
      <point x="526" y="120"/>
      <point x="518" y="143" type="curve"/>
      <point x="458" y="137"/>
      <point x="297" y="116"/>
      <point x="259" y="116" type="curve"/>
      <point x="234" y="342"/>
      <point x="256" y="627"/>
      <point x="276" y="752" type="curve"/>
      <point x="243" y="761"/>
      <point x="213" y="764"/>
      <point x="179" y="764" type="curve" smooth="yes"/>
      <point x="124" y="764"/>
      <point x="77" y="748"/>
      <point x="50" y="730" type="curve"/>
      <point x="50" y="518"/>
      <point x="71" y="170"/>
    </contour>
    <contour>
      <point x="502" y="435" type="curve"/>
      <point x="397" y="435"/>
      <point x="303" y="425"/>
      <point x="205" y="406" type="curve"/>
      <point x="217" y="259" type="line"/>
      <point x="316" y="274"/>
      <point x="419" y="277"/>
      <point x="518" y="277" type="curve"/>
      <point x="518" y="340"/>
      <point x="514" y="386"/>
    </contour>
  </outline>
</glyph>
<glyph name="F" format="1">
  <advance width="600.0"/>
  <unicode hex="0046"/>
  <outline>
    <contour>
      <point x="515" y="430" type="curve"/>
      <point x="417" y="430"/>
      <point x="327" y="416"/>
      <point x="239" y="387" type="curve"/>
      <point x="248" y="251" type="line"/>
      <point x="341" y="265"/>
      <point x="438" y="269"/>
      <point x="531" y="269" type="curve"/>
      <point x="531" y="333"/>
      <point x="528" y="380"/>
    </contour>
    <contour>
      <point x="574" y="774" type="curve"/>
      <point x="364" y="743"/>
      <point x="211" y="727"/>
      <point x="4" y="716" type="curve"/>
      <point x="4" y="670"/>
      <point x="13" y="620"/>
      <point x="31" y="572" type="curve"/>
      <point x="236" y="572"/>
      <point x="397" y="586"/>
      <point x="573" y="603" type="curve"/>
      <point x="578" y="625"/>
      <point x="584" y="656"/>
      <point x="584" y="688" type="curve" smooth="yes"/>
      <point x="584" y="722"/>
      <point x="581" y="750"/>
    </contour>
    <contour>
      <point x="309" y="-65" type="curve"/>
      <point x="317" y="56"/>
      <point x="322" y="197"/>
      <point x="322" y="333" type="curve" smooth="yes"/>
      <point x="322" y="484"/>
      <point x="316" y="616"/>
      <point x="304" y="713" type="curve"/>
      <point x="210" y="713"/>
      <point x="150" y="706"/>
      <point x="78" y="691" type="curve"/>
      <point x="115" y="480"/>
      <point x="127" y="108"/>
      <point x="127" y="-86" type="curve"/>
      <point x="208" y="-86"/>
      <point x="259" y="-78"/>
    </contour>
  </outline>
</glyph>
<glyph name="G" format="1">
  <advance width="638"/>
  <unicode hex="0047"/>
  <outline>
    <contour>
      <point x="488" y="185" type="curve"/>
      <point x="457" y="127"/>
      <point x="417" y="85"/>
      <point x="363" y="85" type="curve" smooth="yes"/>
      <point x="272" y="85"/>
      <point x="240" y="202"/>
      <point x="240" y="281" type="curve" smooth="yes"/>
      <point x="240" y="448"/>
      <point x="288" y="573"/>
      <point x="355" y="573" type="curve" smooth="yes"/>
      <point x="402" y="573"/>
      <point x="435" y="539"/>
      <point x="449" y="456" type="curve"/>
      <point x="536" y="456"/>
      <point x="561" y="458"/>
      <point x="623" y="475" type="curve"/>
      <point x="611" y="614"/>
      <point x="524" y="693"/>
      <point x="392" y="693" type="curve" smooth="yes"/>
      <point x="176" y="693"/>
      <point x="35" y="490"/>
      <point x="35" y="261" type="curve" smooth="yes"/>
      <point x="35" y="51"/>
      <point x="158" y="-35"/>
      <point x="329" y="-35" type="curve" smooth="yes"/>
      <point x="425" y="-35"/>
      <point x="528" y="10"/>
      <point x="588" y="101" type="curve"/>
      <point x="568" y="140"/>
      <point x="534" y="166"/>
    </contour>
  </outline>
</glyph>
<glyph name="H" format="1">
  <advance width="316"/>
  <unicode hex="0048"/>
  <outline>
    <contour>
      <point x="50" y="472"/>
      <point x="72.6317424077" y="185.537542809"/>
      <point x="88" y="4" type="curve"/>
      <point x="145" y="4"/>
      <point x="226" y="14"/>
      <point x="259" y="24" type="curve"/>
      <point x="259" y="190"/>
      <point x="262" y="550"/>
      <point x="276" y="702" type="curve"/>
      <point x="243" y="711"/>
      <point x="213" y="714"/>
      <point x="179" y="714" type="curve" smooth="yes"/>
      <point x="124" y="714"/>
      <point x="77" y="698"/>
      <point x="50" y="680" type="curve"/>
    </contour>
    <contour>
      <point x="150" y="471"/>
      <point x="167" y="144"/>
      <point x="185" y="-62" type="curve"/>
      <point x="242" y="-62"/>
      <point x="323" y="-52"/>
      <point x="356" y="-42" type="curve"/>
      <point x="356" y="146"/>
      <point x="360" y="557"/>
      <point x="376" y="730" type="curve"/>
      <point x="343" y="739"/>
      <point x="313" y="742"/>
      <point x="279" y="742" type="curve" smooth="yes"/>
      <point x="224" y="742"/>
      <point x="177" y="726"/>
      <point x="150" y="708" type="curve"/>
    </contour>
  </outline>
</glyph>
<glyph name="I" format="1">
  <advance width="316"/>
  <unicode hex="0049"/>
  <outline>
    <contour>
      <point x="47" y="418"/>
      <point x="67" y="144"/>
      <point x="85" y="-62" type="curve"/>
      <point x="142" y="-62"/>
      <point x="223" y="-52"/>
      <point x="256" y="-42" type="curve"/>
      <point x="256" y="146"/>
      <point x="257" y="504"/>
      <point x="273" y="677" type="curve"/>
      <point x="240" y="686"/>
      <point x="210" y="689"/>
      <point x="176" y="689" type="curve" smooth="yes"/>
      <point x="121" y="689"/>
      <point x="74" y="673"/>
      <point x="47" y="655" type="curve"/>
    </contour>
  </outline>
</glyph>
<glyph name="J" format="1">
  <advance width="316"/>
  <unicode hex="004A"/>
  <outline>
    <contour>
      <point x="56" y="-213" type="curve"/>
      <point x="113" y="-213"/>
      <point x="194" y="-203"/>
      <point x="227" y="-193" type="curve"/>
      <point x="262.156924163" y="17.9415449797"/>
      <point x="271" y="325"/>
      <point x="271" y="563" type="curve" smooth="yes"/>
      <point x="271" y="620"/>
      <point x="270" y="672"/>
      <point x="268" y="714" type="curve"/>
      <point x="235" y="723"/>
      <point x="205" y="726"/>
      <point x="171" y="726" type="curve" smooth="yes"/>
      <point x="116" y="726"/>
      <point x="69" y="710"/>
      <point x="42" y="692" type="curve"/>
      <point x="80" y="406"/>
      <point x="95.6315326118" y="79.0218192451"/>
    </contour>
  </outline>
</glyph>
<glyph name="K" format="1">
  <advance width="648.046794169"/>
  <unicode hex="004B"/>
  <outline>
    <contour>
      <point x="96.0467941685" y="-76" type="curve"/>
      <point x="153.046794169" y="-76"/>
      <point x="234.046794169" y="-66"/>
      <point x="267.046794169" y="-56" type="curve"/>
      <point x="237.046794169" y="159"/>
      <point x="236.046794169" y="448"/>
      <point x="284.046794169" y="692" type="curve"/>
      <point x="251.046794169" y="701"/>
      <point x="221.046794169" y="704"/>
      <point x="187.046794169" y="704" type="curve" smooth="yes"/>
      <point x="132.046794169" y="704"/>
      <point x="85.0467941685" y="688"/>
      <point x="58.0467941685" y="670" type="curve"/>
      <point x="40.0467941685" y="416"/>
      <point x="52.0467941685" y="151"/>
    </contour>
    <contour>
      <point x="471.046794169" y="710" type="curve"/>
      <point x="367.046794169" y="512"/>
      <point x="282.046794169" y="399"/>
      <point x="149.046794169" y="284" type="curve"/>
      <point x="224.046794169" y="183" type="line"/>
      <point x="393.046794169" y="289"/>
      <point x="531.046794169" y="397"/>
      <point x="642.046794169" y="596" type="curve"/>
      <point x="594.046794169" y="639"/>
      <point x="544.046794169" y="687"/>
    </contour>
    <contour>
      <point x="310.046794169" y="385" type="curve"/>
      <point x="206.046794169" y="261" type="line"/>
      <point x="331.046794169" y="143"/>
      <point x="432.046794169" y="19"/>
      <point x="516.046794169" y="-120" type="curve"/>
      <point x="587.046794169" y="-90"/>
      <point x="633.046794169" y="-54"/>
      <point x="675.046794169" y="3" type="curve"/>
      <point x="572.046794169" y="147"/>
      <point x="451.046794169" y="277"/>
    </contour>
  </outline>
</glyph>
<glyph name="M" format="1">
  <advance width="859"/>
  <unicode hex="004D"/>
  <outline>
    <contour>
      <point x="400" y="196" type="curve"/>
      <point x="453" y="212"/>
      <point x="496" y="245"/>
      <point x="529" y="293" type="curve"/>
      <point x="525" y="300"/>
      <point x="521" y="307"/>
      <point x="516" y="314" type="curve"/>
      <point x="629" y="445"/>
      <point x="727" y="586"/>
      <point x="809" y="738" type="curve"/>
      <point x="761" y="778"/>
      <point x="704" y="804"/>
      <point x="638" y="816" type="curve"/>
      <point x="585" y="691"/>
      <point x="522" y="570"/>
      <point x="450" y="454" type="curve"/>
      <point x="387" y="577"/>
      <point x="316" y="695"/>
      <point x="232" y="804" type="curve"/>
      <point x="150.709208403" y="793.83865105"/>
      <point x="67" y="742"/>
      <point x="14" y="680" type="curve"/>
      <point x="162" y="544"/>
      <point x="295.300726487" y="385.193424068"/>
    </contour>
  </outline>
</glyph>
<glyph name="O" format="1">
  <advance width="559"/>
  <unicode hex="004F"/>
  <outline>
    <contour>
      <point x="323" y="743" type="curve" smooth="yes"/>
      <point x="110" y="743"/>
      <point x="-30.0" y="573.0"/>
      <point x="-30" y="333" type="curve" smooth="yes"/>
      <point x="-30.0" y="154.0"/>
      <point x="41.1764705882" y="-20.0"/>
      <point x="234" y="-20" type="curve" smooth="yes"/>
      <point x="507.169491525" y="-20.0"/>
      <point x="589.0" y="275.0"/>
      <point x="589" y="442" type="curve" smooth="yes"/>
      <point x="589.0" y="644.0"/>
      <point x="490" y="743"/>
    </contour>
    <contour>
      <point x="280" y="623" type="curve" smooth="yes"/>
      <point x="345" y="623"/>
      <point x="380.0" y="564.0"/>
      <point x="380" y="387" type="curve" smooth="yes"/>
      <point x="380.0" y="270.0"/>
      <point x="358.441860465" y="100.0"/>
      <point x="277" y="100" type="curve" smooth="yes"/>
      <point x="204.142857143" y="100.0"/>
      <point x="175.0" y="248.0"/>
      <point x="175" y="361" type="curve" smooth="yes"/>
      <point x="175.0" y="524.0"/>
      <point x="219" y="623"/>
    </contour>
  </outline>
</glyph>
<glyph name="P" format="1">
  <advance width="664"/>
  <unicode hex="0050"/>
  <outline>
    <contour>
      <point x="62" y="684" type="curve"/>
      <point x="60" y="635"/>
      <point x="60" y="586"/>
      <point x="60" y="538" type="curve" smooth="yes"/>
      <point x="60" y="363"/>
      <point x="69" y="189"/>
      <point x="89" y="15" type="curve"/>
      <point x="139" y="6"/>
      <point x="205" y="2"/>
      <point x="256" y="2" type="curve"/>
      <point x="253" y="74"/>
      <point x="251" y="147"/>
      <point x="251" y="221" type="curve" smooth="yes"/>
      <point x="251" y="373"/>
      <point x="258" y="526"/>
      <point x="273" y="675" type="curve"/>
      <point x="240" y="684"/>
      <point x="214" y="690"/>
      <point x="172" y="690" type="curve" smooth="yes"/>
      <point x="142" y="690"/>
      <point x="93" y="689"/>
    </contour>
    <contour>
      <point x="17" y="523" type="curve"/>
      <point x="81" y="565"/>
      <point x="250" y="629"/>
      <point x="302" y="629" type="curve" smooth="yes"/>
      <point x="370" y="629"/>
      <point x="399" y="500"/>
      <point x="399" y="449" type="curve" smooth="yes"/>
      <point x="399" y="385"/>
      <point x="325" y="347"/>
      <point x="221" y="332" type="curve"/>
      <point x="240" y="216" type="line"/>
      <point x="419" y="254"/>
      <point x="594" y="379"/>
      <point x="594" y="477" type="curve" smooth="yes"/>
      <point x="594" y="579"/>
      <point x="511" y="742"/>
      <point x="334" y="742" type="curve" smooth="yes"/>
      <point x="205" y="742"/>
      <point x="62" y="710"/>
      <point x="-32" y="646" type="curve"/>
      <point x="-26" y="605"/>
      <point x="-9" y="564"/>
    </contour>
  </outline>
</glyph>
<glyph name="Q" format="1">
  <advance width="689"/>
  <unicode hex="0051"/>
  <outline>
    <contour>
      <point x="383" y="703" type="curve" smooth="yes"/>
      <point x="187" y="703"/>
      <point x="30" y="542"/>
      <point x="30" y="303" type="curve" smooth="yes"/>
      <point x="30" y="144"/>
      <point x="101" y="-10"/>
      <point x="294" y="-10" type="curve" smooth="yes"/>
      <point x="575" y="-10"/>
      <point x="659" y="260"/>
      <point x="659" y="412" type="curve" smooth="yes"/>
      <point x="659" y="614"/>
      <point x="556" y="703"/>
    </contour>
    <contour>
      <point x="355" y="573" type="curve" smooth="yes"/>
      <point x="412" y="573"/>
      <point x="450" y="527"/>
      <point x="450" y="357" type="curve" smooth="yes"/>
      <point x="450" y="260"/>
      <point x="426" y="120"/>
      <point x="337" y="120" type="curve" smooth="yes"/>
      <point x="264" y="120"/>
      <point x="235" y="239"/>
      <point x="235" y="331" type="curve" smooth="yes"/>
      <point x="235" y="474"/>
      <point x="279" y="573"/>
    </contour>
    <contour>
      <point x="328" y="183" type="curve"/>
      <point x="420" y="103"/>
      <point x="499" y="8"/>
      <point x="567" y="-100" type="curve"/>
      <point x="620" y="-66"/>
      <point x="663" y="-28"/>
      <point x="677" y="19" type="curve"/>
      <point x="608" y="105"/>
      <point x="500" y="191"/>
      <point x="391" y="247" type="curve"/>
      <point x="359" y="230"/>
      <point x="340" y="208"/>
    </contour>
  </outline>
</glyph>
<glyph name="R" format="1">
  <advance width="627"/>
  <unicode hex="0052"/>
  <outline>
    <contour>
      <point x="72" y="684" type="curve"/>
      <point x="92.7126939114" y="495.284344363"/>
      <point x="106.709956319" y="308.878731338"/>
      <point x="106.709956319" y="119.277235534" type="curve" smooth="yes"/>
      <point x="106.709956319" y="81.6583036753"/>
      <point x="106.158929792" y="43.9135603445"/>
      <point x="105.0" y="6.0" type="curve"/>
      <point x="155" y="-3"/>
      <point x="221" y="-7"/>
      <point x="272" y="-7" type="curve"/>
      <point x="285.13920254" y="127.81964345"/>
      <point x="290.150718712" y="263.484967087"/>
      <point x="290.150718712" y="393.699370472" type="curve" smooth="yes"/>
      <point x="290.150718712" y="491.423555357"/>
      <point x="287.328080617" y="586.077616425"/>
      <point x="283.0" y="675.0" type="curve"/>
      <point x="250" y="684"/>
      <point x="224" y="690"/>
      <point x="182" y="690" type="curve" smooth="yes"/>
      <point x="152" y="690"/>
      <point x="103" y="689"/>
    </contour>
  </outline>
</glyph>
<glyph name="S" format="1">
  <advance width="558"/>
  <unicode hex="0053"/>
  <outline>
    <contour>
      <point x="335" y="152" type="curve" smooth="yes"/>
      <point x="335" y="104"/>
      <point x="304" y="68"/>
      <point x="246" y="68" type="curve" smooth="yes"/>
      <point x="153" y="68"/>
      <point x="119" y="162"/>
      <point x="119" y="234" type="curve"/>
      <point x="84" y="234"/>
      <point x="14" y="228"/>
      <point x="-25" y="208" type="curve"/>
      <point x="-25" y="100"/>
      <point x="77" y="-40"/>
      <point x="248" y="-40" type="curve" smooth="yes"/>
      <point x="405" y="-40"/>
      <point x="537" y="54"/>
      <point x="537" y="198" type="curve" smooth="yes"/>
      <point x="537" y="431"/>
      <point x="248" y="457"/>
      <point x="248" y="590" type="curve" smooth="yes"/>
      <point x="248" y="614"/>
      <point x="268" y="643"/>
      <point x="307" y="643" type="curve" smooth="yes"/>
      <point x="367" y="643"/>
      <point x="401" y="606"/>
      <point x="413" y="527" type="curve"/>
      <point x="483" y="532"/>
      <point x="533" y="542"/>
      <point x="576" y="571" type="curve"/>
      <point x="553" y="683"/>
      <point x="467" y="767"/>
      <point x="329" y="767" type="curve" smooth="yes"/>
      <point x="144.466666667" y="767.0"/>
      <point x="42" y="667"/>
      <point x="42" y="541" type="curve" smooth="yes"/>
      <point x="42" y="312"/>
      <point x="335.0" y="280.0"/>
    </contour>
  </outline>
</glyph>
<glyph name="T" format="1">
  <advance width="589"/>
  <unicode hex="0054"/>
  <outline>
    <contour>
      <point x="563.0" y="774.0" type="curve"/>
      <point x="353.0" y="743.0"/>
      <point x="200.0" y="727.0"/>
      <point x="-7.0" y="716.0" type="curve"/>
      <point x="-7.0" y="669.610738255"/>
      <point x="1.76731043579" y="619.980762011"/>
      <point x="20" y="572" type="curve"/>
      <point x="225" y="572"/>
      <point x="386" y="586"/>
      <point x="562" y="603" type="curve"/>
      <point x="566.636012633" y="625.252860637"/>
      <point x="573.0" y="655.888888889"/>
      <point x="573.0" y="688.0" type="curve" smooth="yes"/>
      <point x="573" y="722"/>
      <point x="570.0" y="750.0"/>
    </contour>
    <contour>
      <point x="394" y="24" type="curve"/>
      <point x="400" y="118"/>
      <point x="411.0" y="227.412060302"/>
      <point x="411" y="333" type="curve" smooth="yes"/>
      <point x="411" y="484"/>
      <point x="405" y="616"/>
      <point x="393" y="713" type="curve"/>
      <point x="299" y="713"/>
      <point x="239" y="706"/>
      <point x="167" y="691" type="curve"/>
      <point x="199.798885268" y="503.957708337"/>
      <point x="212" y="175"/>
      <point x="212" y="3" type="curve"/>
      <point x="293" y="3"/>
      <point x="344" y="11"/>
    </contour>
  </outline>
</glyph>
<glyph name="U" format="1">
  <advance width="569"/>
  <unicode hex="0055"/>
  <outline>
    <contour>
      <point x="66" y="587"/>
      <point x="30.0" y="426.402298851"/>
      <point x="30" y="265" type="curve" smooth="yes"/>
      <point x="30.0" y="93.1272727273"/>
      <point x="81.0" y="-80.0"/>
      <point x="266" y="-80" type="curve" smooth="yes"/>
      <point x="526.0" y="-80.0"/>
      <point x="579.0" y="187.336734694"/>
      <point x="579" y="412" type="curve" smooth="yes"/>
      <point x="579.0" y="523.818181818"/>
      <point x="556.737333107" y="632.251530489"/>
      <point x="540" y="712" type="curve"/>
      <point x="483" y="712"/>
      <point x="388" y="699"/>
      <point x="329" y="674" type="curve"/>
      <point x="337.946136789" y="635.233407248"/>
      <point x="370.0" y="497.355932203"/>
      <point x="370" y="350" type="curve" smooth="yes"/>
      <point x="370.0" y="204.285714286"/>
      <point x="355.0" y="50.0"/>
      <point x="297" y="50" type="curve" smooth="yes"/>
      <point x="253.0" y="50.0"/>
      <point x="235.0" y="165.076923077"/>
      <point x="235" y="305" type="curve" smooth="yes"/>
      <point x="235.0" y="407.266055046"/>
      <point x="246" y="518"/>
      <point x="263" y="619" type="curve"/>
      <point x="248" y="628"/>
      <point x="219" y="634"/>
      <point x="175" y="634" type="curve" smooth="yes"/>
      <point x="140" y="634"/>
      <point x="105" y="627"/>
      <point x="85" y="622" type="curve"/>
    </contour>
  </outline>
</glyph>
<glyph name="V" format="1">
  <advance width="528"/>
  <unicode hex="0056"/>
  <outline>
    <contour>
      <point x="329" y="-76" type="curve"/>
      <point x="464.701197888" y="151.18515152"/>
      <point x="523" y="468"/>
      <point x="591" y="730" type="curve"/>
      <point x="536" y="752"/>
      <point x="471" y="765"/>
      <point x="410" y="769" type="curve"/>
      <point x="381" y="545"/>
      <point x="338.107757413" y="283.089076971"/>
      <point x="273" y="95" type="curve"/>
      <point x="259" y="216"/>
      <point x="231" y="375"/>
      <point x="190" y="491" type="curve"/>
      <point x="110" y="490"/>
      <point x="33" y="475"/>
      <point x="-27" y="448" type="curve"/>
      <point x="58" y="266"/>
      <point x="115" y="84"/>
      <point x="149" y="-98" type="curve"/>
      <point x="216" y="-98"/>
      <point x="287" y="-93"/>
    </contour>
  </outline>
</glyph>
<glyph name="W" format="1">
  <advance width="885"/>
  <unicode hex="0057"/>
  <outline>
    <contour>
      <point x="648" y="-22" type="curve"/>
      <point x="766" y="165"/>
      <point x="863.051346246" y="422.321412167"/>
      <point x="908" y="644" type="curve"/>
      <point x="867" y="678"/>
      <point x="807" y="705"/>
      <point x="727" y="710" type="curve"/>
      <point x="709" y="539"/>
      <point x="667.576241597" y="361.274553483"/>
      <point x="607" y="197" type="curve"/>
      <point x="578" y="315"/>
      <point x="571.245224027" y="450.330141148"/>
      <point x="550" y="595" type="curve"/>
      <point x="491" y="597"/>
      <point x="410" y="585"/>
      <point x="348" y="571" type="curve"/>
      <point x="316.707752008" y="426.832143182"/>
      <point x="296" y="281"/>
      <point x="249" y="139" type="curve"/>
      <point x="216" y="302"/>
      <point x="211.686017566" y="468.613606029"/>
      <point x="204" y="641" type="curve"/>
      <point x="126" y="638"/>
      <point x="52" y="626"/>
      <point x="-20" y="604" type="curve"/>
      <point x="22.6994869579" y="361.287126766"/>
      <point x="48" y="133"/>
      <point x="127" y="-81" type="curve"/>
      <point x="178" y="-80"/>
      <point x="253" y="-70"/>
      <point x="296" y="-57" type="curve"/>
      <point x="352" y="86"/>
      <point x="387.41931397" y="225.649023688"/>
      <point x="426" y="386" type="curve"/>
      <point x="438" y="247"/>
      <point x="462" y="107"/>
      <point x="491" y="-37" type="curve"/>
      <point x="545.319352933" y="-33.9253196453"/>
      <point x="608" y="-29"/>
    </contour>
  </outline>
</glyph>
<glyph name="X" format="1">
  <advance width="718"/>
  <unicode hex="0058"/>
  <outline>
    <contour>
      <point x="17" y="679" type="curve"/>
      <point x="216.54939203" y="464.849432944"/>
      <point x="340.69619591" y="199.751448869"/>
      <point x="503" y="-56" type="curve"/>
      <point x="554" y="-31"/>
      <point x="615" y="5"/>
      <point x="647" y="40" type="curve"/>
      <point x="512.770739104" y="301.549662775"/>
      <point x="384.799067818" y="565.461211837"/>
      <point x="209" y="794" type="curve"/>
      <point x="141" y="770"/>
      <point x="68" y="723"/>
    </contour>
    <contour>
      <point x="265" y="423" type="line"/>
      <point x="176" y="303"/>
      <point x="76" y="189"/>
      <point x="-21" y="74" type="curve"/>
      <point x="0" y="44"/>
      <point x="33" y="7"/>
      <point x="64" y="-12" type="curve"/>
      <point x="166" y="89"/>
      <point x="260" y="197"/>
      <point x="353" y="309" type="curve"/>
    </contour>
    <contour>
      <point x="520" y="781" type="curve"/>
      <point x="444" y="644"/>
      <point x="368" y="538"/>
      <point x="283" y="423" type="curve"/>
      <point x="371" y="307" type="line"/>
      <point x="470" y="423"/>
      <point x="568" y="541"/>
      <point x="655" y="670" type="curve"/>
      <point x="622" y="716"/>
      <point x="572" y="757"/>
    </contour>
  </outline>
</glyph>
<glyph name="Y" format="1">
  <advance width="600"/>
  <unicode hex="0059"/>
  <outline>
    <contour>
      <point x="39" y="660" type="curve"/>
      <point x="75" y="496"/>
      <point x="161" y="341"/>
      <point x="271" y="211" type="curve"/>
      <point x="366" y="329" type="line"/>
      <point x="298" y="465"/>
      <point x="257" y="575"/>
      <point x="236" y="737" type="curve"/>
      <point x="152" y="726"/>
      <point x="97" y="703"/>
    </contour>
    <contour>
      <point x="413" y="729" type="curve"/>
      <point x="365.027236848" y="429.436745653"/>
      <point x="283" y="214"/>
      <point x="139" y="-33" type="curve"/>
      <point x="170" y="-59"/>
      <point x="230" y="-85"/>
      <point x="271" y="-95" type="curve"/>
      <point x="428" y="150"/>
      <point x="537.637680105" y="384.881199199"/>
      <point x="608" y="661" type="curve"/>
      <point x="554" y="699"/>
      <point x="491" y="719"/>
    </contour>
  </outline>
</glyph>
<glyph name="Z" format="1">
  <advance width="551"/>
  <unicode hex="005A"/>
  <outline>
    <contour>
      <point x="488" y="120" type="curve"/>
      <point x="386" y="95"/>
      <point x="312" y="92"/>
      <point x="210" y="89" type="curve"/>
      <point x="312.040336169" y="225.513422712"/>
      <point x="482" y="419"/>
      <point x="584" y="506" type="curve"/>
      <point x="601" y="542"/>
      <point x="611" y="590"/>
      <point x="616" y="630" type="curve"/>
      <point x="480" y="681"/>
      <point x="320" y="699"/>
      <point x="169" y="703" type="curve"/>
      <point x="140" y="649"/>
      <point x="131" y="601"/>
      <point x="131" y="539" type="curve"/>
      <point x="218" y="548"/>
      <point x="334" y="552"/>
      <point x="406" y="552" type="curve"/>
      <point x="280" y="459"/>
      <point x="155.627179328" y="299.318886987"/>
      <point x="19" y="134" type="curve"/>
      <point x="9" y="104"/>
      <point x="3" y="59"/>
      <point x="3.0" y="25.0" type="curve"/>
      <point x="114.0" y="-23.0"/>
      <point x="314" y="-46"/>
      <point x="459" y="-47" type="curve"/>
      <point x="478" y="-1"/>
      <point x="488" y="58"/>
    </contour>
  </outline>
</glyph>
<glyph name="bracketleft" format="1">
  <advance width="500"/>
  <unicode hex="005B"/>
  <outline>
    <contour>
      <point x="132" y="-243" type="curve"/>
      <point x="291" y="-243"/>
      <point x="565" y="-221"/>
      <point x="601" y="-210" type="curve"/>
      <point x="601" y="-162"/>
      <point x="593" y="-85"/>
      <point x="582" y="-55" type="curve"/>
      <point x="511" y="-70"/>
      <point x="339" y="-87"/>
      <point x="298" y="-87" type="curve"/>
      <point x="285.413382859" y="51.4527885457"/>
      <point x="288.0" y="210.530120482"/>
      <point x="288" y="362" type="curve" smooth="yes"/>
      <point x="288.0" y="478.823717949"/>
      <point x="296" y="588"/>
      <point x="306" y="649" type="curve"/>
      <point x="205" y="649"/>
      <point x="140" y="659"/>
      <point x="64" y="656" type="curve"/>
      <point x="68" y="390"/>
      <point x="97.4440239258" y="-25.4253358288"/>
    </contour>
    <contour>
      <point x="426" y="706" type="curve"/>
      <point x="298" y="706"/>
      <point x="185.745785065" y="679.633005336"/>
      <point x="64" y="656" type="curve"/>
      <point x="64" y="611"/>
      <point x="75" y="563"/>
      <point x="93" y="516" type="curve"/>
      <point x="197.189854355" y="530.981547685"/>
      <point x="303" y="541"/>
      <point x="407" y="541" type="curve"/>
      <point x="416" y="584"/>
      <point x="426" y="644"/>
    </contour>
  </outline>
</glyph>
<glyph name="bracketright" format="1">
  <advance width="435"/>
  <unicode hex="005D"/>
  <outline>
    <contour>
      <point x="303" y="799" type="curve"/>
      <point x="205" y="799"/>
      <point x="107" y="792"/>
      <point x="15" y="781" type="curve"/>
      <point x="15" y="741"/>
      <point x="25" y="677"/>
      <point x="34" y="651" type="curve"/>
      <point x="72" y="658"/>
      <point x="139" y="669"/>
      <point x="183" y="669" type="curve"/>
      <point x="206.919570819" y="405.884720987"/>
      <point x="202" y="127"/>
      <point x="175" y="-92" type="curve"/>
      <point x="250" y="-92"/>
      <point x="299" y="-102"/>
      <point x="356" y="-100" type="curve"/>
      <point x="352" y="166"/>
      <point x="337.879965385" y="581.747644175"/>
    </contour>
    <contour>
      <point x="32" y="-142" type="curve"/>
      <point x="160" y="-138"/>
      <point x="250" y="-121"/>
      <point x="356" y="-100" type="curve"/>
      <point x="356" y="-67"/>
      <point x="342" y="-34"/>
      <point x="328" y="2" type="curve"/>
      <point x="234" y="-12"/>
      <point x="137" y="-15"/>
      <point x="42" y="-15" type="curve"/>
      <point x="35" y="-48"/>
      <point x="32" y="-94"/>
    </contour>
  </outline>
</glyph>
<glyph name="asciicircum" format="1">
  <advance width="500"/>
  <unicode hex="005E"/>
  <outline>
    <contour>
      <point x="181" y="498" type="line"/>
      <point x="265" y="387"/>
      <point x="335" y="260"/>
      <point x="394" y="122" type="curve"/>
      <point x="438" y="131"/>
      <point x="467" y="140"/>
      <point x="504" y="159" type="curve"/>
      <point x="458" y="283"/>
      <point x="355" y="473"/>
      <point x="282" y="565" type="curve"/>
      <point x="218" y="565" type="line"/>
      <point x="145" y="473"/>
      <point x="42" y="283"/>
      <point x="-4" y="159" type="curve"/>
      <point x="33" y="140"/>
      <point x="62" y="131"/>
      <point x="106" y="122" type="curve"/>
      <point x="165" y="260"/>
      <point x="235" y="387"/>
      <point x="319" y="498" type="curve"/>
    </contour>
  </outline>
</glyph>
<glyph name="grave" format="1">
  <advance width="260"/>
  <unicode hex="0060"/>
  <outline>
    <contour>
      <point x="224" y="586" type="curve"/>
      <point x="207" y="638"/>
      <point x="196" y="696"/>
      <point x="193" y="748" type="curve"/>
      <point x="155" y="754"/>
      <point x="89" y="755"/>
      <point x="38" y="734" type="curve"/>
      <point x="46" y="675"/>
      <point x="77" y="622"/>
      <point x="111" y="572" type="curve"/>
      <point x="152" y="572"/>
      <point x="188" y="576"/>
    </contour>
    <contour>
      <point x="158" y="560" type="move" name="_top"/>
    </contour>
  </outline>
</glyph>
<glyph name="a" format="1">
  <advance width="453"/>
  <unicode hex="0061"/>
  <outline>
    <contour>
      <point x="123" y="359"/>
      <point x="80" y="386"/>
      <point x="63" y="412" type="curve"/>
      <point x="74" y="459"/>
      <point x="131" y="553"/>
      <point x="247" y="553" type="curve" smooth="yes"/>
      <point x="392" y="553"/>
      <point x="413" y="463"/>
      <point x="413" y="382" type="curve" smooth="yes"/>
      <point x="413.0" y="284.584238546"/>
      <point x="380.593822837" y="75.6603249339"/>
      <point x="360" y="-37" type="curve"/>
      <point x="328" y="-36"/>
      <point x="300" y="-32"/>
      <point x="275" y="-25" type="curve"/>
      <point x="277.791216216" y="-1.94662162162"/>
      <point x="302.0" y="208.0"/>
      <point x="302" y="361" type="curve" smooth="yes"/>
      <point x="301" y="442"/>
      <point x="270" y="478"/>
      <point x="237" y="479" type="curve" smooth="yes"/>
      <point x="200" y="479"/>
      <point x="161" y="434"/>
      <point x="158" y="356" type="curve"/>
    </contour>
    <contour>
      <point x="309" y="234" type="line"/>
      <point x="206" y="234"/>
      <point x="139" y="216"/>
      <point x="139" y="158" type="curve" smooth="yes"/>
      <point x="139" y="109"/>
      <point x="189" y="94"/>
      <point x="241" y="94" type="curve" smooth="yes"/>
      <point x="263" y="94"/>
      <point x="286" y="97"/>
      <point x="305" y="101" type="curve"/>
      <point x="296" y="33" type="line"/>
      <point x="264" y="23"/>
      <point x="232" y="18"/>
      <point x="202" y="18" type="curve" smooth="yes"/>
      <point x="102" y="18"/>
      <point x="25" y="71"/>
      <point x="25" y="154" type="curve" smooth="yes"/>
      <point x="25" y="250"/>
      <point x="135" y="298"/>
      <point x="256" y="298" type="curve" smooth="yes"/>
      <point x="274" y="298"/>
      <point x="291" y="297"/>
      <point x="309" y="295" type="curve"/>
    </contour>
  </outline>
</glyph>
<glyph name="b" format="1">
  <advance width="0"/>
  <unicode hex="0062"/>
  <outline>
    <contour>
      <point x="72" y="27" type="curve"/>
      <point x="132" y="27"/>
      <point x="218" y="36"/>
      <point x="251" y="47" type="curve"/>
      <point x="249" y="86"/>
      <point x="248" y="123"/>
      <point x="248" y="160" type="curve" smooth="yes"/>
      <point x="248" y="407"/>
      <point x="265" y="610"/>
      <point x="293" y="747" type="curve"/>
      <point x="266" y="754"/>
      <point x="246" y="755"/>
      <point x="216" y="755" type="curve" smooth="yes"/>
      <point x="158" y="755"/>
      <point x="93" y="747"/>
      <point x="62" y="729" type="curve"/>
      <point x="56" y="662"/>
      <point x="55" y="581"/>
      <point x="55" y="496" type="curve" smooth="yes"/>
      <point x="55" y="334"/>
      <point x="63" y="157"/>
    </contour>
    <contour>
      <point x="233" y="157" type="curve"/>
      <point x="225" y="53" type="line"/>
      <point x="236" y="47"/>
      <point x="266" y="40"/>
      <point x="286" y="40" type="curve" smooth="yes"/>
      <point x="454" y="40"/>
      <point x="534" y="156"/>
      <point x="534" y="310" type="curve" smooth="yes"/>
      <point x="534" y="462"/>
      <point x="456" y="603"/>
      <point x="330" y="603" type="curve" smooth="yes"/>
      <point x="248" y="603"/>
      <point x="194" y="514"/>
      <point x="170" y="435" type="curve"/>
      <point x="214" y="405" type="line"/>
      <point x="228" y="447"/>
      <point x="241" y="482"/>
      <point x="260" y="482" type="curve" smooth="yes"/>
      <point x="292" y="482"/>
      <point x="329" y="419"/>
      <point x="329" y="268" type="curve" smooth="yes"/>
      <point x="329" y="190"/>
      <point x="312" y="149"/>
      <point x="272" y="149" type="curve" smooth="yes"/>
      <point x="258" y="149"/>
      <point x="244" y="153"/>
    </contour>
  </outline>
</glyph>
<glyph name="c" format="1">
  <advance width="545"/>
  <unicode hex="0063"/>
  <outline>
    <contour>
      <point x="343" y="360" type="curve"/>
      <point x="411" y="360"/>
      <point x="469" y="367"/>
      <point x="516" y="390" type="curve"/>
      <point x="516" y="488"/>
      <point x="451.555555556" y="564.0"/>
      <point x="316" y="564" type="curve" smooth="yes"/>
      <point x="140.0" y="564.0"/>
      <point x="30" y="363"/>
      <point x="30" y="192" type="curve" smooth="yes"/>
      <point x="30" y="76"/>
      <point x="97" y="-26"/>
      <point x="251" y="-26" type="curve" smooth="yes"/>
      <point x="420" y="-26"/>
      <point x="494" y="78"/>
      <point x="505" y="113" type="curve"/>
      <point x="476.497590866" y="142.340715285"/>
      <point x="439" y="175"/>
      <point x="402" y="182" type="curve"/>
      <point x="379" y="149"/>
      <point x="336.64" y="85.0"/>
      <point x="288" y="85" type="curve" smooth="yes"/>
      <point x="251" y="85"/>
      <point x="236" y="142"/>
      <point x="236" y="209" type="curve" smooth="yes"/>
      <point x="236" y="324"/>
      <point x="267.0" y="464.0"/>
      <point x="304" y="464" type="curve" smooth="yes"/>
      <point x="333.823529412" y="464.0"/>
      <point x="343" y="421"/>
    </contour>
  </outline>
</glyph>
<glyph name="d" format="1">
  <advance width="551"/>
  <unicode hex="0064"/>
  <outline>
    <contour>
      <point x="335" y="397" type="curve"/>
      <point x="348" y="500" type="line"/>
      <point x="336" y="507"/>
      <point x="300.950819672" y="513.0"/>
      <point x="278" y="513" type="curve" smooth="yes"/>
      <point x="110" y="513"/>
      <point x="30" y="397"/>
      <point x="30" y="243" type="curve" smooth="yes"/>
      <point x="30.0" y="119.013651877"/>
      <point x="111" y="4"/>
      <point x="241" y="4" type="curve" smooth="yes"/>
      <point x="323" y="4"/>
      <point x="377" y="93"/>
      <point x="401" y="172" type="curve"/>
      <point x="357" y="202" type="line"/>
      <point x="349" y="157"/>
      <point x="330" y="125"/>
      <point x="311" y="125" type="curve" smooth="yes"/>
      <point x="276" y="125"/>
      <point x="235" y="172"/>
      <point x="235" y="285" type="curve" smooth="yes"/>
      <point x="235" y="363"/>
      <point x="252" y="404"/>
      <point x="292" y="404" type="curve" smooth="yes"/>
      <point x="307.435897436" y="404.0"/>
      <point x="323" y="401"/>
    </contour>
    <contour>
      <point x="420" y="522"/>
      <point x="334" y="513"/>
      <point x="284" y="495" type="curve"/>
      <point x="299" y="444"/>
      <point x="332" y="276"/>
      <point x="332" y="150" type="curve" smooth="yes"/>
      <point x="332" y="-10"/>
      <point x="323" y="-135"/>
      <point x="254" y="-135" type="curve" smooth="yes"/>
      <point x="237" y="-135"/>
      <point x="215" y="-109"/>
      <point x="207" y="-55" type="curve"/>
      <point x="155" y="-61"/>
      <point x="99" y="-83"/>
      <point x="59" y="-114" type="curve"/>
      <point x="59" y="-148"/>
      <point x="86" y="-247"/>
      <point x="249" y="-247" type="curve" smooth="yes"/>
      <point x="397" y="-247"/>
      <point x="536" y="-147"/>
      <point x="536" y="169" type="curve" smooth="yes"/>
      <point x="536" y="301"/>
      <point x="510" y="462"/>
      <point x="492" y="522" type="curve"/>
    </contour>
  </outline>
</glyph>
<glyph name="e" format="1">
  <advance width="607"/>
  <unicode hex="0065"/>
  <outline>
    <contour>
      <point x="193" y="262" type="line"/>
      <point x="237" y="244"/>
      <point x="285" y="236"/>
      <point x="328" y="236" type="curve" smooth="yes"/>
      <point x="405" y="236"/>
      <point x="478" y="241"/>
      <point x="512" y="270" type="curve"/>
      <point x="522" y="309"/>
      <point x="522" y="348"/>
      <point x="522" y="383" type="curve" smooth="yes"/>
      <point x="522" y="474"/>
      <point x="464" y="544"/>
      <point x="342" y="544" type="curve" smooth="yes"/>
      <point x="165" y="544"/>
      <point x="55" y="363"/>
      <point x="55" y="208" type="curve" smooth="yes"/>
      <point x="55" y="92"/>
      <point x="122" y="-10"/>
      <point x="276" y="-10" type="curve" smooth="yes"/>
      <point x="462" y="-10"/>
      <point x="541" y="121"/>
      <point x="555" y="165" type="curve"/>
      <point x="532" y="202"/>
      <point x="442" y="204"/>
      <point x="389" y="218" type="curve"/>
      <point x="383" y="185"/>
      <point x="354" y="101"/>
      <point x="313" y="101" type="curve" smooth="yes"/>
      <point x="276" y="101"/>
      <point x="261" y="158"/>
      <point x="261" y="225" type="curve" smooth="yes"/>
      <point x="261" y="324"/>
      <point x="292" y="444"/>
      <point x="330" y="444" type="curve" smooth="yes"/>
      <point x="341" y="444"/>
      <point x="346" y="426"/>
      <point x="346" y="403" type="curve" smooth="yes"/>
      <point x="346" y="382"/>
      <point x="343" y="359"/>
      <point x="337" y="339" type="curve"/>
      <point x="332" y="337"/>
      <point x="327" y="333"/>
      <point x="320" y="333" type="curve" smooth="yes"/>
      <point x="288" y="333"/>
      <point x="244" y="343"/>
      <point x="202" y="366" type="curve"/>
    </contour>
  </outline>
</glyph>
<glyph name="f" format="1">
  <advance width="352"/>
  <unicode hex="0066"/>
  <outline>
    <contour>
      <point x="213.176470588" y="-15.0588235294"/>
      <point x="160" y="-21"/>
      <point x="120" y="-21" type="curve"/>
      <point x="120" y="-21"/>
      <point x="81" y="226"/>
      <point x="81" y="391" type="curve" smooth="yes"/>
      <point x="81.0" y="617.578947368"/>
      <point x="146" y="727"/>
      <point x="245" y="727" type="curve" smooth="yes"/>
      <point x="315" y="727"/>
      <point x="344.0" y="670.5"/>
      <point x="344" y="614" type="curve" smooth="yes"/>
      <point x="344" y="602"/>
      <point x="342" y="590"/>
      <point x="339" y="578" type="curve"/>
      <point x="309" y="578"/>
      <point x="282" y="580"/>
      <point x="255" y="587" type="curve"/>
      <point x="257" y="599"/>
      <point x="258" y="608"/>
      <point x="258" y="616" type="curve" smooth="yes"/>
      <point x="258" y="640"/>
      <point x="248" y="646"/>
      <point x="237" y="646" type="curve" smooth="yes"/>
      <point x="196.224489796" y="646.0"/>
      <point x="183.0" y="561.0"/>
      <point x="183" y="449" type="curve" smooth="yes"/>
      <point x="183.0" y="276.0"/>
      <point x="227.904956109" y="36.3247332951"/>
      <point x="240" y="-5" type="curve"/>
    </contour>
    <contour>
      <point x="31" y="470"/>
      <point x="177" y="456"/>
      <point x="270" y="456" type="curve" smooth="yes"/>
      <point x="294" y="456"/>
      <point x="315" y="457"/>
      <point x="328" y="459" type="curve"/>
      <point x="328.0" y="415.194444444"/>
      <point x="322.940499267" y="399.134997556"/>
      <point x="316" y="376" type="curve"/>
      <point x="310" y="374"/>
      <point x="299" y="373"/>
      <point x="285" y="373" type="curve" smooth="yes"/>
      <point x="211" y="373"/>
      <point x="45" y="395"/>
      <point x="10" y="410" type="curve"/>
      <point x="10.0" y="424.693877551"/>
      <point x="22.8351940159" y="461.835194016"/>
      <point x="31" y="470" type="curve"/>
    </contour>
  </outline>
</glyph>
<glyph name="g" format="1">
  <advance width="577"/>
  <unicode hex="0067"/>
  <outline>
    <contour>
      <point x="337" y="417" type="curve"/>
      <point x="350" y="520" type="line"/>
      <point x="338" y="527"/>
      <point x="303" y="533"/>
      <point x="280" y="533" type="curve" smooth="yes"/>
      <point x="111" y="533"/>
      <point x="30.0" y="408.407407407"/>
      <point x="30" y="243" type="curve" smooth="yes"/>
      <point x="30" y="103"/>
      <point x="111" y="4"/>
      <point x="241" y="4" type="curve" smooth="yes"/>
      <point x="325" y="4"/>
      <point x="370" y="74"/>
      <point x="401" y="172" type="curve"/>
      <point x="357" y="202" type="line"/>
      <point x="349" y="157"/>
      <point x="330" y="125"/>
      <point x="311" y="125" type="curve" smooth="yes"/>
      <point x="276" y="125"/>
      <point x="235" y="172"/>
      <point x="235" y="285" type="curve" smooth="yes"/>
      <point x="235.0" y="376.109243697"/>
      <point x="253" y="424"/>
      <point x="294" y="424" type="curve" smooth="yes"/>
      <point x="309" y="424"/>
      <point x="325" y="421"/>
    </contour>
    <contour>
      <point x="423" y="542"/>
      <point x="337" y="533"/>
      <point x="287" y="515" type="curve"/>
      <point x="303" y="461"/>
      <point x="333.0" y="283.304347826"/>
      <point x="333" y="150" type="curve" smooth="yes"/>
      <point x="333" y="-10"/>
      <point x="324" y="-135"/>
      <point x="255" y="-135" type="curve" smooth="yes"/>
      <point x="238" y="-135"/>
      <point x="216" y="-109"/>
      <point x="208" y="-55" type="curve"/>
      <point x="156" y="-61"/>
      <point x="100" y="-83"/>
      <point x="60" y="-114" type="curve"/>
      <point x="60" y="-148"/>
      <point x="87" y="-247"/>
      <point x="250" y="-247" type="curve" smooth="yes"/>
      <point x="398" y="-247"/>
      <point x="537" y="-147"/>
      <point x="537" y="169" type="curve" smooth="yes"/>
      <point x="537.0" y="308.478753541"/>
      <point x="514" y="479"/>
      <point x="495" y="542" type="curve"/>
    </contour>
  </outline>
</glyph>
<glyph name="h" format="1">
  <advance width="598"/>
  <unicode hex="0068"/>
  <outline>
    <contour>
      <point x="548" y="343" type="curve" smooth="yes"/>
      <point x="548" y="492"/>
      <point x="487" y="543"/>
      <point x="368" y="543" type="curve" smooth="yes"/>
      <point x="288" y="543"/>
      <point x="231" y="475"/>
      <point x="199" y="391" type="curve"/>
      <point x="208" y="301" type="line"/>
      <point x="248" y="378"/>
      <point x="292" y="412"/>
      <point x="330" y="412" type="curve" smooth="yes"/>
      <point x="425.2" y="412.0"/>
      <point x="194" y="358"/>
      <point x="194" y="213" type="curve" smooth="yes"/>
      <point x="194" y="104"/>
      <point x="160" y="-29"/>
      <point x="130" y="-136" type="curve"/>
      <point x="306" y="-172"/>
      <point x="368.967213115" y="-32.0"/>
      <point x="469" y="-32" type="curve"/>
      <point x="491" y="18"/>
      <point x="548" y="201"/>
    </contour>
    <contour>
      <point x="72" y="27" type="curve"/>
      <point x="132" y="27"/>
      <point x="218" y="36"/>
      <point x="251" y="47" type="curve"/>
      <point x="249" y="86"/>
      <point x="248" y="123"/>
      <point x="248" y="160" type="curve" smooth="yes"/>
      <point x="248.0" y="407.314720812"/>
      <point x="265" y="610"/>
      <point x="293" y="747" type="curve"/>
      <point x="266" y="754"/>
      <point x="246" y="755"/>
      <point x="216" y="755" type="curve" smooth="yes"/>
      <point x="158" y="755"/>
      <point x="93" y="747"/>
      <point x="62" y="729" type="curve"/>
      <point x="56" y="662"/>
      <point x="55.0" y="581.172268908"/>
      <point x="55" y="496" type="curve" smooth="yes"/>
      <point x="55" y="334"/>
      <point x="63" y="157"/>
    </contour>
  </outline>
</glyph>
<glyph name="i" format="1">
  <advance width="326"/>
  <unicode hex="0069"/>
  <outline>
    <contour>
      <point x="106" y="524"/>
      <point x="145" y="531"/>
      <point x="200" y="531" type="curve" smooth="yes"/>
      <point x="232" y="531"/>
      <point x="269" y="534"/>
      <point x="307" y="527" type="curve"/>
      <point x="276" y="446"/>
      <point x="240" y="248"/>
      <point x="220" y="5" type="curve"/>
      <point x="200" y="-11"/>
      <point x="161" y="-14"/>
      <point x="98" y="-14" type="curve" smooth="yes"/>
      <point x="85" y="-14"/>
      <point x="69" y="-15"/>
      <point x="54" y="-12" type="curve"/>
      <point x="51" y="16"/>
      <point x="50" y="49"/>
      <point x="50" y="84" type="curve" smooth="yes"/>
      <point x="50" y="228"/>
      <point x="71" y="412"/>
      <point x="88" y="505" type="curve"/>
    </contour>
    <contour>
      <point x="325" y="714"/>
      <point x="313.754595935" y="644.527575613"/>
      <point x="307" y="604" type="curve"/>
      <point x="263" y="587"/>
      <point x="219" y="594"/>
      <point x="145" y="594" type="curve"/>
      <point x="138" y="621"/>
      <point x="131" y="649"/>
      <point x="131" y="681" type="curve" smooth="yes"/>
      <point x="131.0" y="694.12"/>
      <point x="133" y="707"/>
      <point x="135" y="722" type="curve"/>
      <point x="162.17165205" y="739.467490604"/>
      <point x="188" y="747"/>
      <point x="228" y="747" type="curve" smooth="yes"/>
      <point x="269" y="747"/>
      <point x="329" y="734"/>
      <point x="337" y="734" type="curve"/>
    </contour>
  </outline>
</glyph>
<glyph name="j" format="1">
  <advance width="331"/>
  <unicode hex="006A"/>
  <outline>
    <contour>
      <point x="159" y="531"/>
      <point x="122" y="520"/>
      <point x="93" y="505" type="curve"/>
      <point x="71" y="410"/>
      <point x="55" y="228"/>
      <point x="55" y="84" type="curve" smooth="yes"/>
      <point x="55" y="51"/>
      <point x="55" y="19"/>
      <point x="58" y="-7" type="curve"/>
      <point x="75" y="-12"/>
      <point x="90" y="-14"/>
      <point x="118" y="-14" type="curve" smooth="yes"/>
      <point x="166" y="-14"/>
      <point x="201" y="-6"/>
      <point x="225" y="5" type="curve"/>
      <point x="245" y="244"/>
      <point x="281" y="439"/>
      <point x="312" y="519" type="curve"/>
      <point x="283" y="526"/>
      <point x="249" y="531"/>
      <point x="222" y="531" type="curve" smooth="yes"/>
    </contour>
    <contour>
      <point x="319" y="644"/>
      <point x="336" y="708"/>
      <point x="348" y="737" type="curve"/>
      <point x="328" y="747"/>
      <point x="293" y="756"/>
      <point x="248" y="756" type="curve" smooth="yes"/>
      <point x="202" y="756"/>
      <point x="164" y="748"/>
      <point x="133" y="731" type="curve"/>
      <point x="128" y="715"/>
      <point x="127" y="697"/>
      <point x="127" y="681" type="curve" smooth="yes"/>
      <point x="127" y="649"/>
      <point x="133" y="619"/>
      <point x="141" y="594" type="curve"/>
      <point x="219.110380247" y="592.944454321"/>
      <point x="270.899228625" y="596.622938471"/>
      <point x="312" y="604" type="curve"/>
    </contour>
    <contour>
      <point x="277" y="-8"/>
      <point x="190" y="-21"/>
      <point x="120" y="-21" type="curve"/>
      <point x="120" y="-21"/>
      <point x="81" y="226"/>
      <point x="81" y="391" type="curve" smooth="yes"/>
      <point x="81" y="618"/>
      <point x="170" y="727"/>
      <point x="305" y="727" type="curve" smooth="yes"/>
      <point x="417" y="727"/>
      <point x="464" y="656"/>
      <point x="464" y="584" type="curve" smooth="yes"/>
      <point x="464" y="567"/>
      <point x="461" y="549"/>
      <point x="455" y="534" type="curve"/>
      <point x="404" y="534"/>
      <point x="354" y="544"/>
      <point x="313" y="555" type="curve"/>
      <point x="317" y="566"/>
      <point x="318" y="577"/>
      <point x="318" y="586" type="curve" smooth="yes"/>
      <point x="318" y="610"/>
      <point x="312" y="616"/>
      <point x="302" y="616" type="curve" smooth="yes"/>
      <point x="272" y="616"/>
      <point x="264" y="544"/>
      <point x="264" y="449" type="curve" smooth="yes"/>
      <point x="264" y="282"/>
      <point x="317" y="52"/>
      <point x="329" y="11" type="curve"/>
    </contour>
  </outline>
</glyph>
<glyph name="k" format="1">
  <advance width="651"/>
  <unicode hex="006B"/>
  <outline>
    <contour>
      <point x="293" y="710" type="curve"/>
      <point x="245" y="732"/>
      <point x="123" y="748"/>
      <point x="75" y="748" type="curve"/>
      <point x="58" y="654"/>
      <point x="50" y="410"/>
      <point x="50" y="296" type="curve" smooth="yes"/>
      <point x="50" y="117"/>
      <point x="64" y="3"/>
      <point x="77" y="-56" type="curve"/>
      <point x="147" y="-56"/>
      <point x="196" y="-51"/>
      <point x="248" y="-32" type="curve"/>
      <point x="235" y="48"/>
      <point x="233" y="119"/>
      <point x="233" y="191" type="curve" smooth="yes"/>
      <point x="233" y="345"/>
      <point x="265" y="615"/>
    </contour>
    <contour>
      <point x="456" y="577" type="curve"/>
      <point x="359" y="449"/>
      <point x="280.152075923" y="334.692931751"/>
      <point x="159" y="249" type="curve"/>
      <point x="229" y="158" type="line"/>
      <point x="367" y="246"/>
      <point x="495.904931068" y="331.94295119"/>
      <point x="593" y="451" type="curve"/>
      <point x="566.963918533" y="495.148138139"/>
      <point x="511" y="551"/>
    </contour>
    <contour>
      <point x="312" y="339" type="curve"/>
      <point x="219" y="241" type="line"/>
      <point x="284" y="133"/>
      <point x="358" y="43"/>
      <point x="441" y="-31" type="curve"/>
      <point x="511.845410733" y="-9.9677686886"/>
      <point x="558" y="41"/>
      <point x="600" y="92" type="curve"/>
      <point x="486.906305513" y="164.773333844"/>
      <point x="385" y="238"/>
    </contour>
  </outline>
</glyph>
<glyph name="l" format="1">
  <advance width="229"/>
  <unicode hex="006C"/>
  <outline>
    <contour>
      <point x="51" y="513"/>
      <point x="64.4017868123" y="150.160698329"/>
      <point x="79" y="-62" type="curve"/>
      <point x="118.0" y="-62.0"/>
      <point x="185" y="-57"/>
      <point x="206" y="-42" type="curve"/>
      <point x="206" y="148"/>
      <point x="210" y="563"/>
      <point x="226" y="738" type="curve"/>
      <point x="198" y="743"/>
      <point x="161.936170213" y="742.0"/>
      <point x="139" y="742" type="curve" smooth="yes"/>
      <point x="106" y="742"/>
      <point x="67" y="733"/>
      <point x="51" y="716" type="curve"/>
    </contour>
  </outline>
</glyph>
<glyph name="m" format="1">
  <advance width="872"/>
  <unicode hex="006D"/>
  <outline>
    <contour>
      <point x="503" y="58"/>
      <point x="530" y="217"/>
      <point x="530" y="343" type="curve" smooth="yes"/>
      <point x="530.0" y="483.805"/>
      <point x="476" y="532"/>
      <point x="406" y="532" type="curve" smooth="yes"/>
      <point x="314" y="532"/>
      <point x="251.878013592" y="469.264901599"/>
      <point x="217" y="375" type="curve"/>
      <point x="236" y="267" type="line"/>
      <point x="252.497742625" y="339.4067593"/>
      <point x="281" y="381"/>
      <point x="307" y="381" type="curve" smooth="yes"/>
      <point x="331" y="381"/>
      <point x="340" y="361"/>
      <point x="340" y="326" type="curve" smooth="yes"/>
      <point x="340" y="242"/>
      <point x="318.481137298" y="110.094368871"/>
      <point x="304" y="29" type="curve"/>
      <point x="369.268879825" y="18.4417988519"/>
      <point x="432.474226804" y="10.0"/>
      <point x="490" y="10" type="curve"/>
    </contour>
    <contour>
      <point x="30" y="381"/>
      <point x="59.3279293786" y="124.956520833"/>
      <point x="76" y="2" type="curve"/>
      <point x="131" y="2"/>
      <point x="204" y="11"/>
      <point x="241" y="22" type="curve"/>
      <point x="240" y="51"/>
      <point x="241.0" y="72.9090909091"/>
      <point x="241" y="99" type="curve" smooth="yes"/>
      <point x="241.0" y="253.333333333"/>
      <point x="245" y="472"/>
      <point x="258" y="562" type="curve"/>
      <point x="230" y="568"/>
      <point x="204" y="570"/>
      <point x="181" y="570" type="curve" smooth="yes"/>
      <point x="124" y="570"/>
      <point x="62" y="560"/>
      <point x="30" y="544" type="curve"/>
    </contour>
    <contour>
      <point x="779" y="20"/>
      <point x="822.0" y="226.162162162"/>
      <point x="822" y="390" type="curve" smooth="yes"/>
      <point x="822" y="539"/>
      <point x="765" y="590"/>
      <point x="690" y="590" type="curve" smooth="yes"/>
      <point x="589.238095238" y="590.0"/>
      <point x="520" y="525"/>
      <point x="483" y="425" type="curve"/>
      <point x="520" y="314" type="line"/>
      <point x="538" y="393"/>
      <point x="565" y="439"/>
      <point x="591" y="439" type="curve" smooth="yes"/>
      <point x="615" y="439"/>
      <point x="624" y="419"/>
      <point x="624" y="384" type="curve" smooth="yes"/>
      <point x="624.0" y="269.035714286"/>
      <point x="586" y="91"/>
      <point x="561" y="-23" type="curve"/>
      <point x="632" y="-39"/>
      <point x="699.835051546" y="-43.0"/>
      <point x="762" y="-43" type="curve"/>
    </contour>
  </outline>
</glyph>
<glyph name="n" format="1">
  <advance width="598"/>
  <unicode hex="006E"/>
  <outline>
    <contour>
      <point x="521" y="37"/>
      <point x="548" y="217"/>
      <point x="548" y="343" type="curve" smooth="yes"/>
      <point x="548" y="492"/>
      <point x="487" y="543"/>
      <point x="406" y="543" type="curve" smooth="yes"/>
      <point x="315" y="543"/>
      <point x="261" y="475"/>
      <point x="219" y="366" type="curve"/>
      <point x="236" y="267" type="line"/>
      <point x="255.625962178" y="352.980405732"/>
      <point x="287.0" y="402.0"/>
      <point x="317" y="402" type="curve" smooth="yes"/>
      <point x="341" y="402"/>
      <point x="350" y="382"/>
      <point x="350" y="337" type="curve" smooth="yes"/>
      <point x="350.0" y="249.555205047"/>
      <point x="326" y="113"/>
      <point x="314" y="29" type="curve"/>
      <point x="382" y="18"/>
      <point x="447.573770492" y="10.0"/>
      <point x="508" y="10" type="curve"/>
    </contour>
    <contour>
      <point x="50" y="377"/>
      <point x="60" y="113"/>
      <point x="71" y="-42" type="curve"/>
      <point x="130.333333333" y="-42.0"/>
      <point x="209" y="-34"/>
      <point x="249" y="-22" type="curve"/>
      <point x="247" y="24"/>
      <point x="246.0" y="58.0"/>
      <point x="246" y="99" type="curve" smooth="yes"/>
      <point x="246" y="293"/>
      <point x="256" y="456"/>
      <point x="269" y="543" type="curve"/>
      <point x="241" y="549"/>
      <point x="215.0" y="551.0"/>
      <point x="192" y="551" type="curve" smooth="yes"/>
      <point x="138" y="551"/>
      <point x="80" y="540"/>
      <point x="50" y="525" type="curve"/>
    </contour>
  </outline>
</glyph>
<glyph name="o" format="1">
  <advance width="439"/>
  <unicode hex="006F"/>
  <outline>
    <contour>
      <point x="249" y="553" type="curve" smooth="yes"/>
      <point x="121" y="553"/>
      <point x="30" y="416"/>
      <point x="30" y="237" type="curve" smooth="yes"/>
      <point x="30" y="128"/>
      <point x="64" y="-10"/>
      <point x="199" y="-10" type="curve" smooth="yes"/>
      <point x="356" y="-10"/>
      <point x="409" y="215"/>
      <point x="409" y="349" type="curve" smooth="yes"/>
      <point x="409" y="491"/>
      <point x="347" y="553"/>
    </contour>
    <contour>
      <point x="220" y="463" type="curve" smooth="yes"/>
      <point x="265" y="463"/>
      <point x="290" y="413"/>
      <point x="290" y="287" type="curve" smooth="yes"/>
      <point x="290" y="203"/>
      <point x="275" y="80"/>
      <point x="217" y="80" type="curve" smooth="yes"/>
      <point x="165" y="80"/>
      <point x="155" y="182"/>
      <point x="155" y="261" type="curve" smooth="yes"/>
      <point x="155" y="382"/>
      <point x="177" y="463"/>
    </contour>
  </outline>
</glyph>
<glyph name="p" format="1">
  <advance width="569"/>
  <unicode hex="0070"/>
  <outline>
    <contour>
      <point x="223" y="105" type="curve"/>
      <point x="69" y="-6" type="line"/>
      <point x="110" y="-28"/>
      <point x="166" y="-60"/>
      <point x="264" y="-60" type="curve" smooth="yes"/>
      <point x="414" y="-60"/>
      <point x="539" y="78"/>
      <point x="539" y="269" type="curve" smooth="yes"/>
      <point x="539" y="414"/>
      <point x="485.43373494" y="503.0"/>
      <point x="368" y="503" type="curve" smooth="yes"/>
      <point x="259" y="503"/>
      <point x="224" y="415"/>
      <point x="191" y="310" type="curve"/>
      <point x="239" y="267" type="line"/>
      <point x="255" y="348"/>
      <point x="269" y="380"/>
      <point x="297" y="380" type="curve" smooth="yes"/>
      <point x="320.571428571" y="380.0"/>
      <point x="330" y="343"/>
      <point x="330" y="311" type="curve" smooth="yes"/>
      <point x="330" y="175"/>
      <point x="311" y="70"/>
      <point x="270" y="70" type="curve" smooth="yes"/>
      <point x="253" y="70"/>
      <point x="234" y="86"/>
    </contour>
    <contour>
      <point x="41" y="355"/>
      <point x="62" y="86"/>
      <point x="79" y="-42" type="curve"/>
      <point x="134" y="-42"/>
      <point x="207" y="-33"/>
      <point x="244" y="-22" type="curve"/>
      <point x="242" y="24"/>
      <point x="241" y="58"/>
      <point x="241" y="99" type="curve" smooth="yes"/>
      <point x="241" y="247"/>
      <point x="256" y="456"/>
      <point x="269" y="543" type="curve"/>
      <point x="241" y="549"/>
      <point x="215" y="551"/>
      <point x="192" y="551" type="curve" smooth="yes"/>
      <point x="135" y="551"/>
      <point x="73" y="541"/>
      <point x="41" y="525" type="curve"/>
    </contour>
  </outline>
</glyph>
<glyph name="q" format="1">
  <advance width="551"/>
  <unicode hex="0071"/>
  <outline>
    <contour>
      <point x="331" y="396" type="curve"/>
      <point x="339" y="500" type="line"/>
      <point x="328" y="506"/>
      <point x="298" y="513"/>
      <point x="278" y="513" type="curve" smooth="yes"/>
      <point x="110" y="513"/>
      <point x="30" y="397"/>
      <point x="30" y="243" type="curve" smooth="yes"/>
      <point x="30" y="91"/>
      <point x="108" y="-50"/>
      <point x="234" y="-50" type="curve" smooth="yes"/>
      <point x="316" y="-50"/>
      <point x="370" y="39"/>
      <point x="394" y="118" type="curve"/>
      <point x="350" y="148" type="line"/>
      <point x="336" y="106"/>
      <point x="323" y="71"/>
      <point x="304" y="71" type="curve" smooth="yes"/>
      <point x="272" y="71"/>
      <point x="235" y="134"/>
      <point x="235" y="285" type="curve" smooth="yes"/>
      <point x="235" y="363"/>
      <point x="252" y="404"/>
      <point x="292" y="404" type="curve" smooth="yes"/>
      <point x="306" y="404"/>
      <point x="320" y="400"/>
    </contour>
    <contour>
      <point x="222" y="520"/>
      <point x="259" y="531"/>
      <point x="322" y="531" type="curve" smooth="yes"/>
      <point x="349" y="531"/>
      <point x="383" y="526"/>
      <point x="412" y="519" type="curve"/>
      <point x="381" y="439"/>
      <point x="345" y="244"/>
      <point x="325" y="5" type="curve"/>
      <point x="301" y="-6"/>
      <point x="266" y="-14"/>
      <point x="218" y="-14" type="curve" smooth="yes"/>
      <point x="190" y="-14"/>
      <point x="175" y="-12"/>
      <point x="158" y="-7" type="curve"/>
      <point x="155" y="19"/>
      <point x="155" y="51"/>
      <point x="155" y="84" type="curve" smooth="yes"/>
      <point x="155" y="228"/>
      <point x="171" y="410"/>
      <point x="193" y="505" type="curve"/>
    </contour>
  </outline>
</glyph>
<glyph name="r" format="1">
  <advance width="537"/>
  <unicode hex="0072"/>
  <outline>
    <contour>
      <point x="112" y="533"/>
      <point x="72" y="525"/>
      <point x="42" y="510" type="curve"/>
      <point x="23.8811281134" y="351.963172989"/>
      <point x="69" y="133"/>
      <point x="117" y="-16" type="curve"/>
      <point x="134" y="-21"/>
      <point x="149" y="-23"/>
      <point x="177" y="-23" type="curve" smooth="yes"/>
      <point x="232" y="-23"/>
      <point x="271.962785978" y="-13.661967623"/>
      <point x="300" y="-1" type="curve"/>
      <point x="247" y="217"/>
      <point x="236.918354893" y="430.422203855"/>
      <point x="250" y="523" type="curve"/>
      <point x="227" y="529"/>
      <point x="200" y="533"/>
      <point x="179" y="533" type="curve" smooth="yes"/>
    </contour>
    <contour>
      <point x="527" y="375" type="curve"/>
      <point x="527" y="524"/>
      <point x="463" y="575"/>
      <point x="392" y="575" type="curve" smooth="yes"/>
      <point x="295" y="575"/>
      <point x="208" y="449"/>
      <point x="193" y="237" type="curve"/>
      <point x="260" y="175" type="line"/>
      <point x="260" y="364"/>
      <point x="295.081081081" y="426.0"/>
      <point x="319" y="426" type="curve" smooth="yes"/>
      <point x="341.068965517" y="426.0"/>
      <point x="351" y="397"/>
      <point x="351" y="345" type="curve"/>
      <point x="416" y="345"/>
      <point x="484" y="357"/>
    </contour>
  </outline>
</glyph>
<glyph name="s" format="1">
  <advance width="522"/>
  <unicode hex="0073"/>
  <outline>
    <contour>
      <point x="281" y="118" type="curve" smooth="yes"/>
      <point x="281" y="92"/>
      <point x="263" y="80"/>
      <point x="243" y="80" type="curve" smooth="yes"/>
      <point x="204" y="80"/>
      <point x="189" y="124"/>
      <point x="189" y="158" type="curve"/>
      <point x="145" y="158"/>
      <point x="67" y="154"/>
      <point x="19" y="131" type="curve"/>
      <point x="19" y="57"/>
      <point x="99" y="-39"/>
      <point x="235" y="-39" type="curve" smooth="yes"/>
      <point x="370" y="-39"/>
      <point x="486" y="29"/>
      <point x="486" y="142" type="curve" smooth="yes"/>
      <point x="486" y="305"/>
      <point x="251" y="324"/>
      <point x="251" y="401" type="curve" smooth="yes"/>
      <point x="251" y="418"/>
      <point x="261" y="433"/>
      <point x="286" y="433" type="curve" smooth="yes"/>
      <point x="311" y="433"/>
      <point x="332" y="412"/>
      <point x="332" y="358" type="curve"/>
      <point x="400" y="363"/>
      <point x="450" y="372"/>
      <point x="491" y="400" type="curve"/>
      <point x="481" y="481"/>
      <point x="415" y="553"/>
      <point x="292" y="553" type="curve" smooth="yes"/>
      <point x="137" y="553"/>
      <point x="62" y="472"/>
      <point x="62" y="386" type="curve" smooth="yes"/>
      <point x="62" y="215"/>
      <point x="281" y="211"/>
    </contour>
  </outline>
</glyph>
<glyph name="t" format="1">
  <advance width="359"/>
  <unicode hex="0074"/>
  <outline>
    <contour>
      <point x="203.46546739" y="618.476618789"/>
      <point x="114" y="623"/>
      <point x="55" y="623" type="curve"/>
      <point x="41" y="566"/>
      <point x="11" y="332"/>
      <point x="11" y="270" type="curve" smooth="yes"/>
      <point x="11" y="73"/>
      <point x="109.436619718" y="11.0"/>
      <point x="203" y="11" type="curve" smooth="yes"/>
      <point x="324.0" y="11.0"/>
      <point x="344" y="149"/>
      <point x="344" y="196" type="curve"/>
      <point x="317.470390332" y="216.762303218"/>
      <point x="276.60590814" y="226.018227558"/>
      <point x="240" y="237" type="curve"/>
      <point x="238.000244284" y="139.011969923"/>
      <point x="226.5" y="93.0"/>
      <point x="204" y="93" type="curve" smooth="yes"/>
      <point x="197.172413793" y="93.0"/>
      <point x="195.0" y="162.0"/>
      <point x="195" y="251" type="curve" smooth="yes"/>
      <point x="195" y="380"/>
      <point x="229" y="552"/>
      <point x="244" y="604" type="curve"/>
    </contour>
    <contour>
      <point x="-34" y="509"/>
      <point x="-39" y="472"/>
      <point x="-39" y="449" type="curve"/>
      <point x="-12" y="423"/>
      <point x="96.1818181818" y="419.0"/>
      <point x="187" y="419" type="curve" smooth="yes"/>
      <point x="251.0" y="419.0"/>
      <point x="304.0" y="422.0"/>
      <point x="332" y="428" type="curve"/>
      <point x="341" y="452"/>
      <point x="348" y="477"/>
      <point x="351" y="501" type="curve"/>
      <point x="346" y="500"/>
      <point x="335" y="500"/>
      <point x="320" y="500" type="curve" smooth="yes"/>
      <point x="237.034129693" y="500.0"/>
      <point x="40" y="506"/>
      <point x="-23" y="525" type="curve"/>
    </contour>
  </outline>
</glyph>
<glyph name="u" format="1">
  <advance width="488"/>
  <unicode hex="0075"/>
  <outline>
    <contour>
      <point x="-5" y="505"/>
      <point x="-31" y="385"/>
      <point x="-31" y="265" type="curve" smooth="yes"/>
      <point x="-31.0" y="128.0"/>
      <point x="16.0769230769" y="-10.0"/>
      <point x="185" y="-10" type="curve" smooth="yes"/>
      <point x="411.85915493" y="-10.0"/>
      <point x="458.0" y="203.0"/>
      <point x="458" y="382" type="curve" smooth="yes"/>
      <point x="458" y="433"/>
      <point x="451" y="482"/>
      <point x="448" y="519" type="curve"/>
      <point x="370.039215686" y="519.0"/>
      <point x="289.402254146" y="523.601060775"/>
      <point x="235" y="498" type="curve"/>
      <point x="239" y="478"/>
      <point x="249" y="401"/>
      <point x="249" y="320" type="curve" smooth="yes"/>
      <point x="249.0" y="203.0"/>
      <point x="242.19047619" y="80.0"/>
      <point x="216" y="80" type="curve" smooth="yes"/>
      <point x="185.666666667" y="80.0"/>
      <point x="174.0" y="182.0"/>
      <point x="174" y="305" type="curve" smooth="yes"/>
      <point x="174" y="378"/>
      <point x="181" y="458"/>
      <point x="193" y="530" type="curve"/>
      <point x="170.527179703" y="538.026007249"/>
      <point x="143.0" y="536.0"/>
      <point x="118" y="536" type="curve" smooth="yes"/>
      <point x="58.6" y="536.0"/>
      <point x="8.0" y="531.0"/>
      <point x="8" y="531" type="curve"/>
    </contour>
  </outline>
</glyph>
<glyph name="v" format="1">
  <advance width="500"/>
  <unicode hex="0076"/>
  <outline>
    <contour>
      <point x="-27" y="548" type="line"/>
      <point x="165" y="2" type="line"/>
      <point x="312" y="46" type="line"/>
      <point x="162" y="591" type="line"/>
    </contour>
    <contour>
      <point x="318" y="26" type="line"/>
      <point x="503" y="479" type="line"/>
      <point x="364" y="509" type="line"/>
      <point x="216" y="63" type="line"/>
    </contour>
  </outline>
</glyph>
<glyph name="w" format="1">
  <advance width="720"/>
  <unicode hex="0077"/>
  <outline>
    <contour>
      <point x="-3" y="522" type="line"/>
      <point x="142" y="1" type="line"/>
      <point x="280" y="28" type="line"/>
      <point x="175" y="540" type="line"/>
    </contour>
    <contour>
      <point x="200" y="54" type="line"/>
      <point x="279" y="29" type="line"/>
      <point x="455" y="470" type="line"/>
      <point x="333" y="503" type="line"/>
    </contour>
    <contour>
      <point x="347" y="481" type="line"/>
      <point x="486" y="-34" type="line"/>
      <point x="612" y="-3" type="line"/>
      <point x="510" y="521" type="line"/>
    </contour>
    <contour>
      <point x="597" y="14" type="line"/>
      <point x="793" y="457" type="line"/>
      <point x="647" y="519" type="line"/>
      <point x="513" y="42" type="line"/>
    </contour>
  </outline>
</glyph>
<glyph name="x" format="1">
  <advance width="544"/>
  <unicode hex="0078"/>
  <outline>
    <contour>
      <point x="-2" y="449" type="curve"/>
      <point x="142.163553529" y="295.434475589"/>
      <point x="272" y="129"/>
      <point x="387" y="-52" type="curve"/>
      <point x="438.064032417" y="-26.9890453468"/>
      <point x="481" y="5"/>
      <point x="513" y="40" type="curve"/>
      <point x="419" y="223"/>
      <point x="316.745877525" y="400.549836768"/>
      <point x="193" y="561" type="curve"/>
      <point x="124" y="537"/>
      <point x="49" y="493"/>
    </contour>
    <contour>
      <point x="217" y="297" type="line"/>
      <point x="140" y="215"/>
      <point x="59" y="135"/>
      <point x="-24" y="58" type="curve"/>
      <point x="-7" y="25"/>
      <point x="15" y="-4"/>
      <point x="44" y="-27" type="curve"/>
      <point x="128" y="38"/>
      <point x="210" y="106"/>
      <point x="289" y="180" type="curve"/>
    </contour>
    <contour>
      <point x="460" y="556" type="curve"/>
      <point x="386" y="467"/>
      <point x="310" y="381"/>
      <point x="231" y="297" type="curve"/>
      <point x="303" y="180" type="line"/>
      <point x="393" y="263"/>
      <point x="479" y="351"/>
      <point x="561" y="445" type="curve"/>
      <point x="536" y="492"/>
      <point x="503" y="529"/>
    </contour>
  </outline>
</glyph>
<glyph name="y" format="1">
  <advance width="594"/>
  <unicode hex="0079"/>
  <outline>
    <contour>
      <point x="21" y="427" type="line"/>
      <point x="242" y="-4" type="line"/>
      <point x="329" y="70" type="line"/>
      <point x="214" y="512" type="line"/>
    </contour>
    <contour>
      <point x="440" y="577" type="line"/>
      <point x="88" y="-173" type="line"/>
      <point x="196" y="-227" type="line"/>
      <point x="612" y="486" type="line"/>
    </contour>
  </outline>
</glyph>
<glyph name="z" format="1">
  <advance width="540"/>
  <unicode hex="007A"/>
  <outline>
    <contour>
      <point x="62" y="584" type="curve"/>
      <point x="33" y="530"/>
      <point x="16" y="475"/>
      <point x="11" y="417" type="curve"/>
      <point x="177" y="420"/>
      <point x="338" y="407"/>
      <point x="492" y="380" type="curve"/>
      <point x="524" y="494" type="line"/>
      <point x="376" y="550"/>
      <point x="222" y="580"/>
    </contour>
    <contour>
      <point x="310" y="446" type="line"/>
      <point x="188" y="341"/>
      <point x="79" y="242"/>
      <point x="-1" y="89" type="curve"/>
      <point x="128" y="37" type="line"/>
      <point x="219" y="176"/>
      <point x="349" y="274"/>
      <point x="490" y="380" type="curve"/>
    </contour>
    <contour>
      <point x="-4" y="89" type="curve"/>
      <point x="-14" y="-11" type="line"/>
      <point x="131" y="-30"/>
      <point x="276" y="-41"/>
      <point x="421" y="-42" type="curve"/>
      <point x="452" y="17"/>
      <point x="472" y="75"/>
      <point x="479" y="134" type="curve"/>
      <point x="318" y="108"/>
      <point x="157" y="93"/>
    </contour>
  </outline>
</glyph>
<glyph name="braceleft" format="1">
  <advance width="356.910279284"/>
  <unicode hex="007B"/>
  <outline>
    <contour>
      <point x="354" y="-160" type="curve"/>
      <point x="360" y="-137"/>
      <point x="353" y="-97"/>
      <point x="338" y="-56" type="curve"/>
      <point x="324.239115933" y="-61.3514549148"/>
      <point x="311" y="-65"/>
      <point x="295" y="-65" type="curve" smooth="yes"/>
      <point x="258" y="-65"/>
      <point x="234" y="-42"/>
      <point x="234" y="4" type="curve"/>
      <point x="234" y="106"/>
      <point x="316.0" y="117.0"/>
      <point x="316" y="230" type="curve" smooth="yes"/>
      <point x="316" y="283"/>
      <point x="253" y="340"/>
      <point x="175" y="336" type="curve"/>
      <point x="176" y="308" type="line"/>
      <point x="253" y="306"/>
      <point x="313" y="363"/>
      <point x="313" y="417" type="curve" smooth="yes"/>
      <point x="313" y="531"/>
      <point x="219" y="568"/>
      <point x="219" y="645" type="curve" smooth="yes"/>
      <point x="219" y="687"/>
      <point x="243" y="713"/>
      <point x="282" y="713" type="curve" smooth="yes"/>
      <point x="298" y="713"/>
      <point x="309" y="709"/>
      <point x="321" y="703" type="curve"/>
      <point x="334" y="744"/>
      <point x="339" y="783"/>
      <point x="333" y="806" type="curve"/>
      <point x="304" y="815"/>
      <point x="266" y="823"/>
      <point x="225" y="823" type="curve"/>
      <point x="132" y="823"/>
      <point x="60" y="762"/>
      <point x="60" y="663" type="curve" smooth="yes"/>
      <point x="60" y="593"/>
      <point x="89" y="551"/>
      <point x="129" y="504" type="curve" smooth="yes"/>
      <point x="157" y="470"/>
      <point x="169" y="446"/>
      <point x="169" y="423" type="curve" smooth="yes"/>
      <point x="169" y="399"/>
      <point x="152" y="380"/>
      <point x="115" y="380" type="curve" smooth="yes"/>
      <point x="93" y="380"/>
      <point x="67" y="383"/>
      <point x="46" y="386" type="curve"/>
      <point x="37" y="343"/>
      <point x="39" y="291"/>
      <point x="51" y="251" type="curve"/>
      <point x="74" y="257"/>
      <point x="92" y="260"/>
      <point x="118" y="260" type="curve" smooth="yes"/>
      <point x="157" y="260"/>
      <point x="174" y="244"/>
      <point x="174" y="220" type="curve" smooth="yes"/>
      <point x="174" y="197"/>
      <point x="164" y="173"/>
      <point x="136" y="137" type="curve" smooth="yes"/>
      <point x="94" y="84"/>
      <point x="75" y="41"/>
      <point x="75" y="-25" type="curve" smooth="yes"/>
      <point x="75" y="-118"/>
      <point x="152" y="-178"/>
      <point x="241" y="-178" type="curve" smooth="yes"/>
      <point x="284.883495146" y="-178.0"/>
      <point x="315.997712775" y="-174.115135255"/>
    </contour>
  </outline>
</glyph>
<glyph name="bar" format="1">
  <advance width="500"/>
  <unicode hex="007C"/>
  <outline>
    <contour>
      <point x="55" y="471"/>
      <point x="72" y="34"/>
      <point x="90" y="-172" type="curve"/>
      <point x="147" y="-172"/>
      <point x="228" y="-162"/>
      <point x="261" y="-152" type="curve"/>
      <point x="261" y="36"/>
      <point x="265" y="557"/>
      <point x="281" y="730" type="curve"/>
      <point x="248" y="739"/>
      <point x="218" y="742"/>
      <point x="184" y="742" type="curve" smooth="yes"/>
      <point x="129" y="742"/>
      <point x="82" y="726"/>
      <point x="55" y="708" type="curve"/>
    </contour>
  </outline>
</glyph>
<glyph name="braceright" format="1">
  <advance width="332.5"/>
  <unicode hex="007D"/>
  <outline>
    <contour>
      <point x="193" y="311" type="curve"/>
      <point x="192" y="339" type="line"/>
      <point x="118" y="343"/>
      <point x="50" y="294"/>
      <point x="50" y="226" type="curve" smooth="yes"/>
      <point x="50" y="117"/>
      <point x="136" y="86"/>
      <point x="136" y="-9" type="curve" smooth="yes"/>
      <point x="136" y="-44"/>
      <point x="118" y="-64"/>
      <point x="76" y="-64" type="curve" smooth="yes"/>
      <point x="65" y="-64"/>
      <point x="53" y="-63"/>
      <point x="41" y="-61" type="curve"/>
      <point x="34" y="-97"/>
      <point x="34" y="-137"/>
      <point x="44" y="-167" type="curve"/>
      <point x="64.4843654553" y="-170.234373493"/>
      <point x="81.8" y="-171.0"/>
      <point x="98" y="-171" type="curve" smooth="yes"/>
      <point x="197" y="-171"/>
      <point x="285" y="-109"/>
      <point x="285" y="-15" type="curve" smooth="yes"/>
      <point x="285" y="48"/>
      <point x="262" y="87"/>
      <point x="222" y="140" type="curve" smooth="yes"/>
      <point x="193" y="178"/>
      <point x="184" y="201"/>
      <point x="184" y="223" type="curve" smooth="yes"/>
      <point x="184" y="246"/>
      <point x="201" y="265"/>
      <point x="236" y="265" type="curve" smooth="yes"/>
      <point x="259" y="265"/>
      <point x="277" y="261"/>
      <point x="303" y="257" type="curve"/>
      <point x="316" y="299"/>
      <point x="315" y="350"/>
      <point x="304" y="392" type="curve"/>
      <point x="282" y="387"/>
      <point x="269" y="385"/>
      <point x="252" y="385" type="curve" smooth="yes"/>
      <point x="208" y="385"/>
      <point x="188" y="401"/>
      <point x="188" y="428" type="curve" smooth="yes"/>
      <point x="189" y="451"/>
      <point x="204" y="475"/>
      <point x="235" y="510" type="curve" smooth="yes"/>
      <point x="275" y="557"/>
      <point x="311" y="597"/>
      <point x="311" y="673" type="curve" smooth="yes"/>
      <point x="311" y="781"/>
      <point x="231" y="827"/>
      <point x="119" y="827" type="curve" smooth="yes"/>
      <point x="101.72" y="827.0"/>
      <point x="84.4024863272" y="825.233747721"/>
      <point x="65" y="822" type="curve"/>
      <point x="55.75" y="799.8"/>
      <point x="54.2941176471" y="760.529411765"/>
      <point x="63" y="717" type="curve"/>
      <point x="72" y="719"/>
      <point x="82" y="720"/>
      <point x="93" y="720" type="curve" smooth="yes"/>
      <point x="134" y="720"/>
      <point x="162" y="703"/>
      <point x="162" y="654" type="curve" smooth="yes"/>
      <point x="162" y="547"/>
      <point x="57" y="536"/>
      <point x="57" y="428" type="curve" smooth="yes"/>
      <point x="57" y="356"/>
      <point x="127" y="311"/>
    </contour>
  </outline>
</glyph>
<glyph name="asciitilde" format="1">
  <advance width="500.174168456"/>
  <unicode hex="007E"/>
  <outline>
    <contour>
      <point x="331" y="367" type="curve" smooth="yes"/>
      <point x="265" y="367"/>
      <point x="217" y="415"/>
      <point x="151" y="415" type="curve" smooth="yes"/>
      <point x="66" y="415"/>
      <point x="23" y="357"/>
      <point x="31" y="254" type="curve"/>
      <point x="57" y="245"/>
      <point x="88" y="241"/>
      <point x="110" y="242" type="curve"/>
      <point x="109" y="281"/>
      <point x="123" y="300"/>
      <point x="169" y="300" type="curve" smooth="yes"/>
      <point x="224" y="300"/>
      <point x="270" y="252"/>
      <point x="349" y="252" type="curve" smooth="yes"/>
      <point x="435" y="252"/>
      <point x="478" y="309"/>
      <point x="469" y="412" type="curve"/>
      <point x="450" y="421"/>
      <point x="412" y="425"/>
      <point x="390" y="424" type="curve"/>
      <point x="391" y="384"/>
      <point x="377" y="367"/>
    </contour>
  </outline>
</glyph>
<glyph name="cent" format="1">
  <advance width="526"/>
  <unicode hex="00A2"/>
  <outline>
    <contour>
      <point x="338" y="412" type="curve"/>
      <point x="406" y="412"/>
      <point x="464" y="419"/>
      <point x="511" y="442" type="curve"/>
      <point x="511" y="538"/>
      <point x="449" y="613"/>
      <point x="313" y="613" type="curve" smooth="yes"/>
      <point x="127" y="613"/>
      <point x="25" y="425"/>
      <point x="25" y="273" type="curve" smooth="yes"/>
      <point x="25" y="152"/>
      <point x="92" y="45"/>
      <point x="246" y="45" type="curve" smooth="yes"/>
      <point x="415" y="45"/>
      <point x="489" y="149"/>
      <point x="500" y="184" type="curve"/>
      <point x="476" y="219"/>
      <point x="434" y="246"/>
      <point x="397" y="253" type="curve"/>
      <point x="374" y="220"/>
      <point x="332" y="156"/>
      <point x="283" y="156" type="curve" smooth="yes"/>
      <point x="242" y="156"/>
      <point x="226" y="213"/>
      <point x="226" y="280" type="curve" smooth="yes"/>
      <point x="226" y="396"/>
      <point x="259" y="516"/>
      <point x="299" y="516" type="curve" smooth="yes"/>
      <point x="329" y="516"/>
      <point x="338" y="473"/>
    </contour>
    <contour>
      <point x="460" y="525" type="curve"/>
      <point x="475" y="572"/>
      <point x="493" y="608"/>
      <point x="521" y="654" type="curve"/>
      <point x="492" y="675"/>
      <point x="440" y="695"/>
      <point x="403" y="698" type="curve"/>
      <point x="381" y="659"/>
      <point x="365" y="606"/>
      <point x="357" y="574" type="curve"/>
      <point x="377" y="553"/>
      <point x="436" y="530"/>
    </contour>
    <contour>
      <point x="219" y="60" type="curve"/>
      <point x="200" y="80"/>
      <point x="141" y="104"/>
      <point x="116" y="110" type="curve"/>
      <point x="102" y="62"/>
      <point x="84" y="26"/>
      <point x="55" y="-19" type="curve"/>
      <point x="84" y="-40"/>
      <point x="137" y="-60"/>
      <point x="175" y="-64" type="curve"/>
      <point x="196" y="-24"/>
      <point x="211" y="29"/>
    </contour>
  </outline>
</glyph>
<glyph name="sterling" format="1">
  <advance width="500"/>
  <unicode hex="00A3"/>
  <outline>
    <contour>
      <point x="494" y="633" type="move"/>
      <point x="339" y="428"/>
      <point x="256" y="329"/>
      <point x="162" y="329" type="curve" smooth="yes"/>
      <point x="120" y="329"/>
      <point x="107" y="342"/>
      <point x="107" y="371" type="curve" smooth="yes"/>
      <point x="107" y="407"/>
      <point x="141" y="430"/>
      <point x="244" y="450" type="curve"/>
      <point x="244" y="522"/>
      <point x="234" y="582"/>
      <point x="209" y="633" type="curve"/>
      <point x="62" y="594"/>
      <point x="-3" y="503"/>
      <point x="-3" y="363" type="curve" smooth="yes"/>
      <point x="-3" y="220"/>
      <point x="77" y="123"/>
      <point x="186" y="123" type="curve" smooth="yes"/>
      <point x="294" y="123"/>
      <point x="399" y="238"/>
      <point x="525" y="422" type="curve"/>
    </contour>
  </outline>
</glyph>
<glyph name="currency" format="1">
  <advance width="561"/>
  <unicode hex="00A4"/>
  <outline>
    <contour>
      <point x="315" y="600" type="curve" smooth="yes"/>
      <point x="155" y="600"/>
      <point x="46" y="484"/>
      <point x="46" y="322" type="curve" smooth="yes"/>
      <point x="46" y="212"/>
      <point x="100" y="113"/>
      <point x="235" y="113" type="curve" smooth="yes"/>
      <point x="439" y="113"/>
      <point x="505" y="306"/>
      <point x="505" y="420" type="curve" smooth="yes"/>
      <point x="505" y="539"/>
      <point x="431" y="600"/>
    </contour>
    <contour>
      <point x="276" y="496" type="curve" smooth="yes"/>
      <point x="306" y="496"/>
      <point x="326" y="465"/>
      <point x="326" y="370" type="curve" smooth="yes"/>
      <point x="326" y="304"/>
      <point x="311" y="217"/>
      <point x="273" y="217" type="curve" smooth="yes"/>
      <point x="240" y="217"/>
      <point x="221" y="287"/>
      <point x="221" y="347" type="curve" smooth="yes"/>
      <point x="221" y="439"/>
      <point x="247" y="496"/>
    </contour>
    <contour>
      <point x="565" y="620"/>
      <point x="521" y="654"/>
      <point x="487" y="668" type="curve"/>
      <point x="454" y="637"/>
      <point x="423" y="592"/>
      <point x="406" y="563" type="curve"/>
      <point x="419" y="538"/>
      <point x="467" y="498"/>
      <point x="489" y="486" type="curve"/>
      <point x="517" y="526"/>
      <point x="545" y="555"/>
      <point x="586" y="591" type="curve"/>
    </contour>
    <contour>
      <point x="-4" y="92"/>
      <point x="40" y="57"/>
      <point x="75" y="42" type="curve"/>
      <point x="107" y="74"/>
      <point x="138" y="120"/>
      <point x="155" y="147" type="curve"/>
      <point x="142" y="172"/>
      <point x="93" y="212"/>
      <point x="71" y="225" type="curve"/>
      <point x="43" y="184"/>
      <point x="15" y="155"/>
      <point x="-25" y="121" type="curve"/>
    </contour>
    <contour>
      <point x="493" y="71"/>
      <point x="532" y="110"/>
      <point x="551" y="142" type="curve"/>
      <point x="524" y="179"/>
      <point x="484" y="215"/>
      <point x="457" y="236" type="curve"/>
      <point x="431" y="226"/>
      <point x="385" y="184"/>
      <point x="370" y="164" type="curve"/>
      <point x="406" y="131"/>
      <point x="431" y="99"/>
      <point x="461" y="54" type="curve"/>
    </contour>
    <contour>
      <point x="78" y="661"/>
      <point x="37" y="622"/>
      <point x="18" y="589" type="curve"/>
      <point x="45" y="553"/>
      <point x="87" y="516"/>
      <point x="111" y="496" type="curve"/>
      <point x="138" y="506"/>
      <point x="184" y="549"/>
      <point x="200" y="569" type="curve"/>
      <point x="163" y="602"/>
      <point x="138" y="634"/>
      <point x="109" y="678" type="curve"/>
    </contour>
  </outline>
</glyph>
<glyph name="yen" format="1">
  <advance width="601"/>
  <unicode hex="00A5"/>
  <outline>
    <contour>
      <point x="205" y="-52" type="curve"/>
      <point x="264" y="-52"/>
      <point x="337" y="-42"/>
      <point x="371" y="-32" type="curve"/>
      <point x="382" y="88"/>
      <point x="390" y="255"/>
      <point x="392" y="405" type="curve"/>
      <point x="193" y="377" type="line"/>
      <point x="202" y="231"/>
      <point x="205" y="82"/>
    </contour>
    <contour>
      <point x="558" y="219" type="curve" smooth="yes"/>
      <point x="558" y="235"/>
      <point x="556" y="253"/>
      <point x="553" y="270" type="curve"/>
      <point x="446" y="252"/>
      <point x="172" y="250"/>
      <point x="56" y="258" type="curve"/>
      <point x="50" y="233"/>
      <point x="45" y="176"/>
      <point x="45" y="133" type="curve"/>
      <point x="172" y="125"/>
      <point x="398" y="130"/>
      <point x="545" y="145" type="curve"/>
      <point x="553" y="167"/>
      <point x="558" y="194"/>
    </contour>
    <contour>
      <point x="369" y="303" type="line"/>
      <point x="435" y="305"/>
      <point x="499" y="310"/>
      <point x="555" y="320" type="curve"/>
      <point x="566" y="334"/>
      <point x="576" y="354"/>
      <point x="576" y="384" type="curve" smooth="yes"/>
      <point x="576" y="403"/>
      <point x="574" y="422"/>
      <point x="568" y="445" type="curve"/>
      <point x="524" y="434"/>
      <point x="456" y="428"/>
      <point x="382" y="426" type="curve"/>
    </contour>
    <contour>
      <point x="37" y="303" type="curve"/>
      <point x="83" y="303"/>
      <point x="139" y="304"/>
      <point x="198" y="305" type="curve"/>
      <point x="221" y="429" type="line"/>
      <point x="152" y="428"/>
      <point x="89" y="428"/>
      <point x="45" y="428" type="curve"/>
      <point x="39" y="403"/>
      <point x="35" y="350"/>
    </contour>
    <contour>
      <point x="206" y="247" type="curve"/>
      <point x="253" y="266"/>
      <point x="299" y="308"/>
      <point x="322" y="326" type="curve"/>
      <point x="289.067790589" y="472.698023742"/>
      <point x="235.173627893" y="606.640342223"/>
      <point x="193" y="694" type="curve"/>
      <point x="166" y="693"/>
      <point x="143" y="687"/>
      <point x="117" y="678" type="curve" smooth="yes"/>
      <point x="68" y="661"/>
      <point x="36" y="630"/>
      <point x="19" y="604" type="curve"/>
      <point x="82" y="494"/>
      <point x="170" y="337"/>
    </contour>
    <contour>
      <point x="425" y="697" type="curve"/>
      <point x="380" y="546"/>
      <point x="333" y="433"/>
      <point x="254" y="309" type="curve"/>
      <point x="346" y="217" type="line"/>
      <point x="468" y="380"/>
      <point x="521" y="464"/>
      <point x="582" y="606" type="curve"/>
      <point x="536" y="655"/>
      <point x="483" y="686"/>
    </contour>
  </outline>
</glyph>
<glyph name="brokenbar" format="1">
  <advance width="276"/>
  <unicode hex="00A6"/>
  <outline>
    <contour>
      <point x="199.0" y="405.0" type="line"/>
      <point x="204.0" y="538.0"/>
      <point x="210.0" y="658.0"/>
      <point x="216.0" y="725.0" type="curve"/>
      <point x="179.0" y="738.0"/>
      <point x="115.0" y="736.0"/>
      <point x="60.0" y="713.0" type="curve"/>
      <point x="60.0" y="623.0"/>
      <point x="61.0" y="510.0"/>
      <point x="62.0" y="391.0" type="curve"/>
    </contour>
    <contour>
      <point x="80.0" y="-167.0" type="curve"/>
      <point x="114.0" y="-171.0"/>
      <point x="158.0" y="-167.0"/>
      <point x="191.0" y="-157.0" type="curve"/>
      <point x="188.0" y="-42.0"/>
      <point x="192.0" y="197.0"/>
      <point x="199.0" y="405.0" type="curve"/>
      <point x="62.0" y="391.0" type="line"/>
      <point x="65.0" y="198.0"/>
      <point x="70.0" y="-11.0"/>
    </contour>
  </outline>
</glyph>
<glyph name="section" format="1">
  <advance width="490"/>
  <unicode hex="00A7"/>
  <outline>
    <contour>
      <point x="307" y="234" type="curve" smooth="yes"/>
      <point x="307" y="192"/>
      <point x="279" y="168"/>
      <point x="228" y="168" type="curve"/>
      <point x="244" y="100" type="line"/>
      <point x="357" y="100"/>
      <point x="461" y="167"/>
      <point x="461" y="272" type="curve" smooth="yes"/>
      <point x="461" y="360"/>
      <point x="405" y="403"/>
      <point x="337" y="442" type="curve" smooth="yes"/>
      <point x="269" y="481"/>
      <point x="236" y="514"/>
      <point x="236" y="547" type="curve" smooth="yes"/>
      <point x="236" y="579"/>
      <point x="254" y="598"/>
      <point x="282" y="598" type="curve" smooth="yes"/>
      <point x="319" y="598"/>
      <point x="338" y="570"/>
      <point x="348" y="513" type="curve"/>
      <point x="405" y="517"/>
      <point x="445" y="524"/>
      <point x="480" y="545" type="curve"/>
      <point x="461" y="623"/>
      <point x="404" y="686"/>
      <point x="279" y="686" type="curve"/>
      <point x="150" y="686"/>
      <point x="69" y="613"/>
      <point x="69" y="520" type="curve" smooth="yes"/>
      <point x="69" y="427"/>
      <point x="136" y="377"/>
      <point x="199" y="340" type="curve" smooth="yes"/>
      <point x="254" y="307"/>
      <point x="307" y="283"/>
    </contour>
    <contour>
      <point x="194" y="260" type="curve" smooth="yes"/>
      <point x="194" y="302"/>
      <point x="222" y="326"/>
      <point x="273" y="326" type="curve"/>
      <point x="257" y="394" type="line"/>
      <point x="144" y="394"/>
      <point x="40" y="327"/>
      <point x="40" y="222" type="curve" smooth="yes"/>
      <point x="40" y="134"/>
      <point x="110" y="84"/>
      <point x="178" y="45" type="curve" smooth="yes"/>
      <point x="246" y="6"/>
      <point x="279" y="-27"/>
      <point x="279" y="-60" type="curve" smooth="yes"/>
      <point x="279" y="-92"/>
      <point x="261" y="-111"/>
      <point x="233" y="-111" type="curve" smooth="yes"/>
      <point x="199" y="-111"/>
      <point x="163" y="-76"/>
      <point x="145" y="0" type="curve"/>
      <point x="99" y="-4"/>
      <point x="45" y="-26"/>
      <point x="20" y="-44" type="curve"/>
      <point x="55" y="-150"/>
      <point x="125" y="-199"/>
      <point x="231" y="-199" type="curve" smooth="yes"/>
      <point x="365" y="-199"/>
      <point x="446" y="-126"/>
      <point x="446" y="-33" type="curve" smooth="yes"/>
      <point x="446" y="60"/>
      <point x="379" y="110"/>
      <point x="316" y="147" type="curve" smooth="yes"/>
      <point x="261" y="180"/>
      <point x="194" y="211"/>
    </contour>
  </outline>
</glyph>
<glyph name="dieresis" format="1">
  <advance width="260"/>
  <unicode hex="00A8"/>
  <outline>
    <component base="dotaccent" xOffset="-130"/>
    <component base="dotaccent" xOffset="129"/>
    <contour>
      <point x="129" y="560" type="move" name="_top"/>
    </contour>
  </outline>
</glyph>
<glyph name="copyright" format="1">
  <advance width="876"/>
  <unicode hex="00A9"/>
  <outline>
    <contour>
      <point x="608" y="243" type="curve"/>
      <point x="591" y="257"/>
      <point x="539" y="267"/>
      <point x="497" y="262" type="curve"/>
      <point x="506" y="218"/>
      <point x="492" y="191"/>
      <point x="459" y="191" type="curve" smooth="yes"/>
      <point x="428" y="191"/>
      <point x="413" y="235"/>
      <point x="413" y="305" type="curve" smooth="yes"/>
      <point x="413" y="367"/>
      <point x="425" y="440"/>
      <point x="454" y="440" type="curve" smooth="yes"/>
      <point x="464" y="440"/>
      <point x="481" y="422"/>
      <point x="483" y="374" type="curve"/>
      <point x="554" y="374"/>
      <point x="577" y="382"/>
      <point x="620" y="399" type="curve"/>
      <point x="609" y="477"/>
      <point x="554" y="522"/>
      <point x="479" y="522" type="curve" smooth="yes"/>
      <point x="340" y="522"/>
      <point x="250" y="399"/>
      <point x="250" y="270" type="curve" smooth="yes"/>
      <point x="250" y="149"/>
      <point x="328" y="105"/>
      <point x="417" y="105" type="curve" smooth="yes"/>
      <point x="539" y="105"/>
      <point x="602" y="163"/>
    </contour>
    <contour>
      <point x="720" y="322" type="curve" smooth="yes"/>
      <point x="720" y="127"/>
      <point x="611" y="8"/>
      <point x="440" y="8" type="curve" smooth="yes"/>
      <point x="265" y="8"/>
      <point x="156" y="118"/>
      <point x="156" y="301" type="curve" smooth="yes"/>
      <point x="156" y="478"/>
      <point x="279" y="602"/>
      <point x="448" y="602" type="curve" smooth="yes"/>
      <point x="617" y="602"/>
      <point x="720" y="496"/>
    </contour>
    <contour>
      <point x="851" y="320" type="curve" smooth="yes"/>
      <point x="851" y="515"/>
      <point x="718" y="708"/>
      <point x="460" y="708" type="curve" smooth="yes"/>
      <point x="211" y="708"/>
      <point x="25" y="519"/>
      <point x="25" y="297" type="curve" smooth="yes"/>
      <point x="25" y="52"/>
      <point x="185" y="-98"/>
      <point x="432" y="-98" type="curve" smooth="yes"/>
      <point x="715" y="-98"/>
      <point x="851" y="81"/>
    </contour>
  </outline>
</glyph>
<glyph name="ordfeminine" format="1">
  <advance width="358"/>
  <unicode hex="00AA"/>
  <outline>
    <contour>
      <point x="302" y="373" type="curve"/>
      <point x="266" y="373"/>
      <point x="224" y="378"/>
      <point x="190" y="384" type="curve"/>
      <point x="195" y="449"/>
      <point x="200" y="503"/>
      <point x="200" y="544" type="curve" smooth="yes"/>
      <point x="200" y="604"/>
      <point x="202" y="653"/>
      <point x="179" y="653" type="curve" smooth="yes"/>
      <point x="169" y="653"/>
      <point x="155" y="633"/>
      <point x="154" y="593" type="curve"/>
      <point x="100" y="600"/>
      <point x="63" y="615"/>
      <point x="39" y="641" type="curve"/>
      <point x="72" y="696"/>
      <point x="113" y="723"/>
      <point x="190" y="723" type="curve" smooth="yes"/>
      <point x="310" y="723"/>
      <point x="339" y="662"/>
      <point x="339" y="604" type="curve" smooth="yes"/>
      <point x="339" y="544"/>
      <point x="317" y="438"/>
    </contour>
    <contour>
      <point x="216" y="515" type="line"/>
      <point x="181" y="512"/>
      <point x="161" y="503"/>
      <point x="161" y="479" type="curve" smooth="yes"/>
      <point x="161" y="463"/>
      <point x="167" y="457"/>
      <point x="181" y="457" type="curve" smooth="yes"/>
      <point x="196" y="457"/>
      <point x="203" y="462"/>
      <point x="216" y="471" type="curve"/>
      <point x="210" y="412" type="line"/>
      <point x="190" y="402"/>
      <point x="165" y="396"/>
      <point x="132" y="396" type="curve" smooth="yes"/>
      <point x="61" y="396"/>
      <point x="15" y="431"/>
      <point x="15" y="488" type="curve" smooth="yes"/>
      <point x="15" y="540"/>
      <point x="55" y="571"/>
      <point x="157" y="571" type="curve" smooth="yes"/>
      <point x="197" y="571"/>
      <point x="207" y="571"/>
      <point x="216" y="569" type="curve"/>
    </contour>
  </outline>
</glyph>
<glyph name="guillemotleft" format="1">
  <advance width="604"/>
  <unicode hex="00AB"/>
  <outline>
    <contour>
      <point x="247" y="495" type="curve"/>
      <point x="190" y="402"/>
      <point x="129" y="336"/>
      <point x="49" y="279" type="curve"/>
      <point x="98" y="223" type="line"/>
      <point x="206" y="276"/>
      <point x="270" y="332"/>
      <point x="344" y="408" type="curve"/>
      <point x="326" y="439"/>
      <point x="284" y="476"/>
    </contour>
    <contour>
      <point x="135" y="332" type="curve"/>
      <point x="50" y="279" type="line"/>
      <point x="99" y="186"/>
      <point x="164" y="110"/>
      <point x="236" y="49" type="curve"/>
      <point x="283" y="66"/>
      <point x="311" y="94"/>
      <point x="340" y="139" type="curve"/>
      <point x="247" y="186"/>
      <point x="186" y="254"/>
    </contour>
    <contour>
      <point x="467" y="495" type="curve"/>
      <point x="410" y="402"/>
      <point x="349" y="336"/>
      <point x="269" y="279" type="curve"/>
      <point x="318" y="223" type="line"/>
      <point x="426" y="276"/>
      <point x="490" y="332"/>
      <point x="564" y="408" type="curve"/>
      <point x="546" y="439"/>
      <point x="504" y="476"/>
    </contour>
    <contour>
      <point x="355" y="332" type="curve"/>
      <point x="270" y="279" type="line"/>
      <point x="319" y="186"/>
      <point x="384" y="110"/>
      <point x="456" y="49" type="curve"/>
      <point x="503" y="66"/>
      <point x="531" y="94"/>
      <point x="560" y="139" type="curve"/>
      <point x="467" y="186"/>
      <point x="406" y="254"/>
    </contour>
  </outline>
</glyph>
<glyph name="logicalnot" format="1">
  <advance width="501"/>
  <unicode hex="00AC"/>
  <outline>
    <contour>
      <point x="37" y="404" type="curve"/>
      <point x="31" y="360"/>
      <point x="29" y="326"/>
      <point x="29" y="283" type="curve"/>
      <point x="144" y="265"/>
      <point x="320" y="262"/>
      <point x="451" y="283" type="curve"/>
      <point x="462" y="321"/>
      <point x="468" y="361"/>
      <point x="468" y="403" type="curve"/>
      <point x="320" y="387"/>
      <point x="175" y="386"/>
    </contour>
    <contour>
      <point x="334" y="127" type="curve"/>
      <point x="378" y="121"/>
      <point x="412" y="119"/>
      <point x="455" y="119" type="curve"/>
      <point x="467" y="197"/>
      <point x="475" y="305"/>
      <point x="468" y="403" type="curve"/>
      <point x="347" y="327" type="line"/>
      <point x="347" y="259"/>
      <point x="343" y="192"/>
    </contour>
  </outline>
</glyph>
<glyph name="registered" format="1">
  <advance width="876"/>
  <unicode hex="00AE"/>
  <outline>
    <contour>
      <point x="720" y="127"/>
      <point x="611" y="8"/>
      <point x="440" y="8" type="curve" smooth="yes"/>
      <point x="265" y="8"/>
      <point x="156" y="118"/>
      <point x="156" y="301" type="curve" smooth="yes"/>
      <point x="156" y="478"/>
      <point x="279" y="602"/>
      <point x="448" y="602" type="curve" smooth="yes"/>
      <point x="617" y="602"/>
      <point x="720" y="496"/>
      <point x="720" y="322" type="curve" smooth="yes"/>
    </contour>
    <contour>
      <point x="715" y="-98"/>
      <point x="851" y="81"/>
      <point x="851" y="320" type="curve" smooth="yes"/>
      <point x="851" y="515"/>
      <point x="718" y="708"/>
      <point x="460" y="708" type="curve" smooth="yes"/>
      <point x="211" y="708"/>
      <point x="25" y="519"/>
      <point x="25" y="297" type="curve" smooth="yes"/>
      <point x="25" y="52"/>
      <point x="185" y="-98"/>
      <point x="432" y="-98" type="curve" smooth="yes"/>
    </contour>
    <contour>
      <point x="413" y="100" type="curve"/>
      <point x="421" y="177"/>
      <point x="424" y="255"/>
      <point x="424" y="330" type="curve" smooth="yes"/>
      <point x="424" y="385"/>
      <point x="422" y="442"/>
      <point x="421" y="486" type="curve"/>
      <point x="376" y="497"/>
      <point x="321" y="501"/>
      <point x="262" y="492" type="curve"/>
      <point x="275" y="384"/>
      <point x="286" y="258"/>
      <point x="286" y="149" type="curve" smooth="yes"/>
      <point x="286" y="138"/>
      <point x="285" y="121"/>
      <point x="286" y="109" type="curve"/>
      <point x="324" y="103"/>
      <point x="373" y="100"/>
    </contour>
    <contour>
      <point x="397" y="249" type="line"/>
      <point x="513" y="278"/>
      <point x="614" y="339"/>
      <point x="614" y="418" type="curve" smooth="yes"/>
      <point x="614" y="489"/>
      <point x="549" y="545"/>
      <point x="434" y="545" type="curve"/>
      <point x="364" y="545"/>
      <point x="303" y="521"/>
      <point x="262" y="492" type="curve"/>
      <point x="271" y="457"/>
      <point x="279" y="437"/>
      <point x="293" y="399" type="curve"/>
      <point x="332" y="435"/>
      <point x="379" y="469"/>
      <point x="421" y="469" type="curve"/>
      <point x="452" y="469"/>
      <point x="468" y="442"/>
      <point x="468" y="407" type="curve" smooth="yes"/>
      <point x="468" y="358"/>
      <point x="444" y="325"/>
      <point x="395" y="323" type="curve"/>
    </contour>
    <contour>
      <point x="641" y="137" type="curve"/>
      <point x="609" y="198"/>
      <point x="565" y="270"/>
      <point x="493" y="336" type="curve"/>
      <point x="395" y="280" type="line"/>
      <point x="446" y="214"/>
      <point x="474" y="145"/>
      <point x="508" y="67" type="curve"/>
      <point x="567" y="84"/>
      <point x="609" y="106"/>
    </contour>
  </outline>
</glyph>
<glyph name="macron" format="1">
  <advance width="259.893390928"/>
  <unicode hex="00AF"/>
  <outline>
    <contour>
      <point x="4" y="698"/>
      <point x="4" y="648"/>
      <point x="7" y="623" type="curve"/>
      <point x="44" y="604"/>
      <point x="137" y="598"/>
      <point x="253" y="618" type="curve"/>
      <point x="256" y="650"/>
      <point x="255" y="684"/>
      <point x="253" y="712" type="curve"/>
      <point x="159" y="704"/>
      <point x="95" y="708"/>
      <point x="9" y="720" type="curve"/>
    </contour>
    <contour>
      <point x="130" y="560" type="move" name="_top"/>
    </contour>
  </outline>
</glyph>
<glyph name="degree" format="1">
  <advance width="285"/>
  <unicode hex="00B0"/>
  <outline>
    <contour>
      <point x="153" y="751" type="curve" smooth="yes"/>
      <point x="58" y="751"/>
      <point x="10" y="701"/>
      <point x="10" y="632" type="curve" smooth="yes"/>
      <point x="10" y="558"/>
      <point x="59" y="512"/>
      <point x="136" y="512" type="curve" smooth="yes"/>
      <point x="231" y="512"/>
      <point x="275" y="562"/>
      <point x="275" y="649" type="curve" smooth="yes"/>
      <point x="275" y="711"/>
      <point x="229" y="751"/>
    </contour>
    <contour>
      <point x="145" y="695" type="curve" smooth="yes"/>
      <point x="164" y="695"/>
      <point x="179" y="680"/>
      <point x="179" y="639" type="curve" smooth="yes"/>
      <point x="179" y="599"/>
      <point x="165" y="572"/>
      <point x="141" y="572" type="curve"/>
      <point x="119" y="572"/>
      <point x="106" y="592"/>
      <point x="106" y="628" type="curve" smooth="yes"/>
      <point x="106" y="672"/>
      <point x="123" y="695"/>
    </contour>
  </outline>
</glyph>
<glyph name="plusminus" format="1">
  <advance width="502"/>
  <unicode hex="00B1"/>
  <outline>
    <contour>
      <point x="30" y="147" type="curve"/>
      <point x="24" y="103"/>
      <point x="22" y="69"/>
      <point x="22" y="26" type="curve"/>
      <point x="137" y="8"/>
      <point x="313" y="5"/>
      <point x="444" y="26" type="curve"/>
      <point x="455" y="64"/>
      <point x="461" y="104"/>
      <point x="461" y="146" type="curve"/>
      <point x="313" y="130"/>
      <point x="168" y="129"/>
    </contour>
    <component base="plus" xOffset="2" yOffset="54"/>
  </outline>
</glyph>
<glyph name="twosuperior" format="1">
  <advance width="399"/>
  <unicode hex="00B2"/>
  <outline>
    <contour>
      <point x="372" y="567" type="curve" smooth="yes"/>
      <point x="372" y="647"/>
      <point x="301" y="702"/>
      <point x="196" y="702" type="curve" smooth="yes"/>
      <point x="92" y="702"/>
      <point x="28" y="660"/>
      <point x="0" y="566" type="curve"/>
      <point x="40" y="547"/>
      <point x="87" y="540"/>
      <point x="145" y="540" type="curve"/>
      <point x="158" y="605"/>
      <point x="168" y="622"/>
      <point x="188" y="622" type="curve" smooth="yes"/>
      <point x="201" y="622"/>
      <point x="209" y="609"/>
      <point x="209" y="588" type="curve"/>
      <point x="209" y="534"/>
      <point x="145" y="478"/>
      <point x="2" y="394" type="curve"/>
      <point x="-7" y="368"/>
      <point x="-8" y="339"/>
      <point x="-7" y="309" type="curve"/>
      <point x="71" y="284"/>
      <point x="227" y="266"/>
      <point x="325" y="268" type="curve"/>
      <point x="340" y="302"/>
      <point x="347" y="346"/>
      <point x="347" y="392" type="curve"/>
      <point x="304" y="386"/>
      <point x="248" y="386"/>
      <point x="151" y="382" type="curve"/>
      <point x="162" y="373" type="line"/>
      <point x="308" y="435"/>
      <point x="372" y="498"/>
    </contour>
  </outline>
</glyph>
<glyph name="acute" format="1">
  <advance width="260"/>
  <unicode hex="00B4"/>
  <outline>
    <contour>
      <point x="150" y="571" type="curve"/>
      <point x="194" y="632"/>
      <point x="215" y="682"/>
      <point x="223" y="733" type="curve"/>
      <point x="172" y="754"/>
      <point x="106" y="753"/>
      <point x="68" y="747" type="curve"/>
      <point x="65" y="695"/>
      <point x="54" y="637"/>
      <point x="37" y="585" type="curve"/>
      <point x="73" y="575"/>
      <point x="109" y="571"/>
    </contour>
    <contour>
      <point x="88.0" y="560.0" type="move" name="_top"/>
    </contour>
  </outline>
</glyph>
<glyph name="uni00B5" format="1">
  <advance width="574"/>
  <unicode hex="00B5"/>
  <outline>
    <contour>
      <point x="393" y="-17" type="curve" smooth="yes"/>
      <point x="450" y="-17"/>
      <point x="512" y="-7"/>
      <point x="544" y="9" type="curve"/>
      <point x="544" y="179"/>
      <point x="523" y="448"/>
      <point x="506" y="576" type="curve"/>
      <point x="451" y="576"/>
      <point x="378" y="567"/>
      <point x="341" y="556" type="curve"/>
      <point x="350.219512195" y="343.951219512"/>
      <point x="332.601351351" y="102.101351351"/>
      <point x="316" y="-9" type="curve"/>
      <point x="344" y="-15"/>
      <point x="370" y="-17"/>
    </contour>
    <contour>
      <point x="121" y="111" type="line"/>
      <point x="135" y="30"/>
      <point x="165" y="-4"/>
      <point x="219" y="-4" type="curve" smooth="yes"/>
      <point x="284" y="-4"/>
      <point x="333" y="64"/>
      <point x="368" y="159" type="curve"/>
      <point x="349" y="267" type="line"/>
      <point x="331" y="187"/>
      <point x="298" y="142"/>
      <point x="268" y="142" type="curve" smooth="yes"/>
      <point x="244" y="142"/>
      <point x="235" y="162"/>
      <point x="235" y="197" type="curve" smooth="yes"/>
      <point x="235" y="284"/>
      <point x="256" y="421"/>
      <point x="271" y="505" type="curve"/>
      <point x="203" y="516"/>
      <point x="137" y="524"/>
      <point x="77" y="524" type="curve"/>
      <point x="52" y="396"/>
      <point x="30" y="272"/>
      <point x="30" y="119" type="curve" smooth="yes"/>
      <point x="30" y="24"/>
      <point x="33" y="-75"/>
      <point x="46" y="-196" type="curve"/>
      <point x="72" y="-209"/>
      <point x="109" y="-219"/>
      <point x="155" y="-219" type="curve" smooth="yes"/>
      <point x="179" y="-219"/>
      <point x="195" y="-217"/>
      <point x="219" y="-210" type="curve"/>
      <point x="175" y="-96"/>
      <point x="146" y="81"/>
      <point x="146" y="226" type="curve"/>
    </contour>
  </outline>
</glyph>
<glyph name="paragraph" format="1">
  <advance width="749"/>
  <unicode hex="00B6"/>
  <outline>
    <contour>
      <point x="646" y="-296" type="curve"/>
      <point x="669" y="-99"/>
      <point x="690" y="482"/>
      <point x="690" y="680" type="curve"/>
      <point x="532" y="735"/>
      <point x="459" y="758"/>
      <point x="331" y="758" type="curve" smooth="yes"/>
      <point x="157" y="758"/>
      <point x="38" y="670"/>
      <point x="38" y="529" type="curve" smooth="yes"/>
      <point x="38" y="351"/>
      <point x="168" y="241"/>
      <point x="377" y="182" type="curve"/>
      <point x="377" y="88"/>
      <point x="353" y="-218"/>
      <point x="349" y="-309" type="curve"/>
      <point x="402" y="-309"/>
      <point x="435" y="-305"/>
      <point x="461" y="-296" type="curve"/>
      <point x="491" y="7"/>
      <point x="515" y="356"/>
      <point x="516" y="603" type="curve"/>
      <point x="534" y="601"/>
      <point x="553" y="596"/>
      <point x="571" y="590" type="curve"/>
      <point x="577" y="185"/>
      <point x="549" y="-80"/>
      <point x="534" y="-315" type="curve"/>
      <point x="587" y="-315"/>
      <point x="626" y="-303"/>
    </contour>
  </outline>
</glyph>
<glyph name="cedilla" format="1">
  <advance width="261"/>
  <unicode hex="00B8"/>
  <outline>
    <contour>
      <point x="121" y="-230" type="curve" smooth="yes"/>
      <point x="207" y="-230"/>
      <point x="260" y="-186"/>
      <point x="260" y="-124" type="curve" smooth="yes"/>
      <point x="260" y="-74"/>
      <point x="221" y="-42"/>
      <point x="168" y="-42" type="curve" smooth="yes"/>
      <point x="139" y="-42"/>
      <point x="122" y="-49"/>
      <point x="97" y="-61" type="curve"/>
      <point x="121" y="-85" type="line"/>
      <point x="136" y="-51"/>
      <point x="143" y="-22"/>
      <point x="145" y="2" type="curve"/>
      <point x="88" y="15" type="line"/>
      <point x="89" y="-18"/>
      <point x="78" y="-63"/>
      <point x="62" y="-91" type="curve"/>
      <point x="67" y="-99"/>
      <point x="75" y="-107"/>
      <point x="84" y="-114" type="curve"/>
      <point x="96" y="-108"/>
      <point x="107" y="-105"/>
      <point x="118" y="-105" type="curve" smooth="yes"/>
      <point x="138" y="-105"/>
      <point x="150" y="-116"/>
      <point x="150" y="-135" type="curve" smooth="yes"/>
      <point x="150" y="-155"/>
      <point x="138" y="-167"/>
      <point x="119" y="-167" type="curve" smooth="yes"/>
      <point x="97" y="-167"/>
      <point x="79" y="-150"/>
      <point x="71" y="-125" type="curve"/>
      <point x="52" y="-133"/>
      <point x="32" y="-143"/>
      <point x="6" y="-159" type="curve"/>
      <point x="24" y="-208"/>
      <point x="71" y="-230"/>
    </contour>
    <contour>
      <point x="105.0" y="0.0" type="move" name="_bottom"/>
    </contour>
  </outline>
</glyph>
<glyph name="ordmasculine" format="1">
  <advance width="364"/>
  <unicode hex="00BA"/>
  <outline>
    <contour>
      <point x="214" y="706" type="curve" smooth="yes"/>
      <point x="95" y="706"/>
      <point x="19" y="623"/>
      <point x="19" y="517" type="curve" smooth="yes"/>
      <point x="19" y="449"/>
      <point x="52" y="379"/>
      <point x="149" y="379" type="curve" smooth="yes"/>
      <point x="306" y="379"/>
      <point x="346" y="524"/>
      <point x="346" y="586" type="curve" smooth="yes"/>
      <point x="346" y="666"/>
      <point x="297" y="706"/>
    </contour>
    <contour>
      <point x="182" y="627" type="curve" smooth="yes"/>
      <point x="195" y="627"/>
      <point x="200" y="606"/>
      <point x="200" y="551" type="curve" smooth="yes"/>
      <point x="200" y="522"/>
      <point x="203" y="458"/>
      <point x="181" y="458" type="curve" smooth="yes"/>
      <point x="169" y="458"/>
      <point x="163" y="502"/>
      <point x="163" y="536" type="curve" smooth="yes"/>
      <point x="163" y="591"/>
      <point x="169" y="627"/>
    </contour>
  </outline>
</glyph>
<glyph name="onequarter" format="1">
  <advance width="956"/>
  <unicode hex="00BC"/>
  <outline>
    <contour>
      <point x="913" y="54" type="curve"/>
      <point x="931" y="79"/>
      <point x="941" y="126"/>
      <point x="941" y="160" type="curve"/>
      <point x="875" y="167"/>
      <point x="767" y="178"/>
      <point x="659" y="196" type="curve"/>
      <point x="672" y="178" type="line"/>
      <point x="729" y="278"/>
      <point x="764" y="355"/>
      <point x="799" y="447" type="curve"/>
      <point x="768" y="458"/>
      <point x="710" y="479"/>
      <point x="648" y="478" type="curve"/>
      <point x="604" y="339"/>
      <point x="564" y="260"/>
      <point x="494" y="148" type="curve"/>
      <point x="499" y="123"/>
      <point x="501" y="104"/>
      <point x="508" y="86" type="curve"/>
      <point x="569" y="82"/>
      <point x="857" y="56"/>
    </contour>
    <contour>
      <point x="851" y="-16" type="curve"/>
      <point x="865" y="115"/>
      <point x="895" y="227"/>
      <point x="910" y="259" type="curve"/>
      <point x="887" y="264"/>
      <point x="860" y="268"/>
      <point x="839" y="268" type="curve" smooth="yes"/>
      <point x="789" y="268"/>
      <point x="759" y="260"/>
      <point x="736" y="248" type="curve"/>
      <point x="725" y="206"/>
      <point x="716" y="96"/>
      <point x="716" y="28" type="curve" smooth="yes"/>
      <point x="716" y="8"/>
      <point x="716" y="-12"/>
      <point x="718" y="-27" type="curve"/>
      <point x="732" y="-30"/>
      <point x="743" y="-32"/>
      <point x="765" y="-31" type="curve" smooth="yes"/>
      <point x="804" y="-31"/>
      <point x="832" y="-25"/>
    </contour>
    <component base="onesuperior" xOffset="-7" yOffset="43"/>
    <component base="fraction" xOffset="215" yOffset="-3"/>
  </outline>
</glyph>
<glyph name="threequarters" format="1">
  <advance width="1023"/>
  <unicode hex="00BE"/>
  <outline>
    <contour>
      <point x="980" y="58" type="curve"/>
      <point x="998" y="83"/>
      <point x="1008" y="130"/>
      <point x="1008" y="164" type="curve"/>
      <point x="942" y="171"/>
      <point x="834" y="182"/>
      <point x="726" y="200" type="curve"/>
      <point x="739" y="182" type="line"/>
      <point x="796" y="282"/>
      <point x="831" y="359"/>
      <point x="866" y="451" type="curve"/>
      <point x="835" y="462"/>
      <point x="777" y="483"/>
      <point x="715" y="482" type="curve"/>
      <point x="671" y="343"/>
      <point x="631" y="264"/>
      <point x="561" y="152" type="curve"/>
      <point x="566" y="127"/>
      <point x="568" y="108"/>
      <point x="575" y="90" type="curve"/>
      <point x="636" y="86"/>
      <point x="924" y="60"/>
    </contour>
    <contour>
      <point x="918" y="-12" type="curve"/>
      <point x="932" y="119"/>
      <point x="962" y="231"/>
      <point x="977" y="263" type="curve"/>
      <point x="954" y="268"/>
      <point x="927" y="272"/>
      <point x="906" y="272" type="curve" smooth="yes"/>
      <point x="856" y="272"/>
      <point x="826" y="264"/>
      <point x="803" y="252" type="curve"/>
      <point x="792" y="210"/>
      <point x="783" y="100"/>
      <point x="783" y="32" type="curve" smooth="yes"/>
      <point x="783" y="12"/>
      <point x="783" y="-8"/>
      <point x="785" y="-23" type="curve"/>
      <point x="799" y="-26"/>
      <point x="810" y="-28"/>
      <point x="832" y="-27" type="curve" smooth="yes"/>
      <point x="871" y="-27"/>
      <point x="899" y="-21"/>
    </contour>
    <component base="fraction" xOffset="296" yOffset="-3"/>
    <component base="threesuperior" xOffset="-4" yOffset="54"/>
  </outline>
</glyph>
<glyph name="questiondown" format="1">
  <advance width="513"/>
  <unicode hex="00BF"/>
  <outline>
    <contour>
      <point x="264" y="178" type="line"/>
      <point x="119" y="163"/>
      <point x="25" y="93"/>
      <point x="25" y="-18" type="curve" smooth="yes"/>
      <point x="25" y="-131"/>
      <point x="142" y="-211"/>
      <point x="280" y="-211" type="curve" smooth="yes"/>
      <point x="447" y="-211"/>
      <point x="530" y="-129"/>
      <point x="538" y="5" type="curve"/>
      <point x="487" y="30"/>
      <point x="427" y="40"/>
      <point x="355" y="40" type="curve"/>
      <point x="355" y="-55"/>
      <point x="323" y="-107"/>
      <point x="286" y="-107" type="curve" smooth="yes"/>
      <point x="244" y="-107"/>
      <point x="234" y="-65"/>
      <point x="234" y="-19" type="curve" smooth="yes"/>
      <point x="234" y="62"/>
      <point x="284" y="125"/>
      <point x="393" y="144" type="curve"/>
    </contour>
    <contour>
      <point x="393" y="144" type="curve"/>
      <point x="391" y="192"/>
      <point x="381" y="256"/>
      <point x="369" y="313" type="curve"/>
      <point x="318" y="313"/>
      <point x="258" y="308"/>
      <point x="223" y="298" type="curve"/>
      <point x="221" y="233"/>
      <point x="218" y="159"/>
      <point x="215" y="117" type="curve"/>
      <point x="292" y="136"/>
      <point x="340" y="141"/>
    </contour>
    <contour>
      <point x="188" y="564" type="curve"/>
      <point x="195" y="506"/>
      <point x="199" y="458"/>
      <point x="204" y="396" type="curve"/>
      <point x="266" y="396"/>
      <point x="308" y="394"/>
      <point x="379" y="394" type="curve"/>
      <point x="381" y="444"/>
      <point x="381" y="495"/>
      <point x="375" y="557" type="curve"/>
      <point x="353" y="568"/>
      <point x="318" y="576"/>
      <point x="277" y="575" type="curve" smooth="yes"/>
      <point x="246" y="574"/>
      <point x="222" y="572"/>
    </contour>
  </outline>
</glyph>
<glyph name="AE" format="1">
  <advance width="1282"/>
  <unicode hex="00C6"/>
  <outline>
    <contour>
      <point x="473" y="-117" type="curve"/>
      <point x="554" y="-107"/>
      <point x="621" y="-89"/>
      <point x="672" y="-55" type="curve"/>
      <point x="629" y="210"/>
      <point x="549" y="484"/>
      <point x="420" y="689" type="curve"/>
      <point x="363" y="703"/>
      <point x="317" y="710"/>
      <point x="244" y="710" type="curve"/>
      <point x="175" y="466"/>
      <point x="111" y="278"/>
      <point x="-9" y="55" type="curve"/>
      <point x="24" y="13"/>
      <point x="85" y="-21"/>
      <point x="152" y="-32" type="curve"/>
      <point x="221" y="109"/>
      <point x="296" y="356"/>
      <point x="341" y="537" type="curve"/>
      <point x="304" y="535" type="line"/>
      <point x="387" y="347"/>
      <point x="451" y="99"/>
    </contour>
    <contour>
      <point x="471" y="279" type="line"/>
      <point x="366" y="279"/>
      <point x="272" y="269"/>
      <point x="174" y="250" type="curve"/>
      <point x="180" y="124" type="line"/>
      <point x="279" y="139"/>
      <point x="382" y="142"/>
      <point x="481" y="142" type="curve"/>
    </contour>
    <contour>
      <point x="805" y="-43" type="curve"/>
      <point x="956.277292576" y="-43.0"/>
      <point x="1216.7899676" y="-20.758621012"/>
      <point x="1252" y="-10" type="curve"/>
      <point x="1252" y="38"/>
      <point x="1244" y="115"/>
      <point x="1233" y="145" type="curve"/>
      <point x="1167.62627071" y="131.540702794"/>
      <point x="1008.42857143" y="113.0"/>
      <point x="971" y="113" type="curve"/>
      <point x="964" y="190"/>
      <point x="961" y="278"/>
      <point x="961" y="362" type="curve" smooth="yes"/>
      <point x="961" y="489"/>
      <point x="968" y="608"/>
      <point x="979" y="674" type="curve"/>
      <point x="878" y="674"/>
      <point x="813" y="684"/>
      <point x="737" y="681" type="curve"/>
      <point x="740" y="467"/>
      <point x="777" y="133"/>
    </contour>
    <contour>
      <point x="1168" y="455" type="curve"/>
      <point x="1077.90188679" y="455.0"/>
      <point x="995.823801093" y="438.953722713"/>
      <point x="914" y="412" type="curve"/>
      <point x="923" y="278" type="line"/>
      <point x="1008.47747385" y="290.485473708"/>
      <point x="1098.59926471" y="296.0"/>
      <point x="1184" y="296" type="curve"/>
      <point x="1184" y="359"/>
      <point x="1180" y="406"/>
    </contour>
    <contour>
      <point x="1227" y="735" type="curve"/>
      <point x="1052.90818363" y="735.0"/>
      <point x="899.487288788" y="712.322850851"/>
      <point x="737" y="681" type="curve"/>
      <point x="737" y="636"/>
      <point x="748" y="588"/>
      <point x="766" y="541" type="curve"/>
      <point x="911.453227892" y="561.500119367"/>
      <point x="1061.64238411" y="570.0"/>
      <point x="1208" y="570" type="curve"/>
      <point x="1217" y="613"/>
      <point x="1227" y="673"/>
    </contour>
  </outline>
</glyph>
<glyph name="Ccedilla" format="1">
  <advance width="618"/>
  <unicode hex="00C7"/>
  <outline>
    <contour>
      <point x="589" y="207" type="curve"/>
      <point x="563" y="227"/>
      <point x="494" y="241"/>
      <point x="437" y="235" type="curve"/>
      <point x="448" y="146"/>
      <point x="418" y="91"/>
      <point x="353" y="91" type="curve" smooth="yes"/>
      <point x="288" y="91"/>
      <point x="255" y="173"/>
      <point x="255" y="310" type="curve" smooth="yes"/>
      <point x="255" y="448"/>
      <point x="295" y="573"/>
      <point x="353" y="573" type="curve" smooth="yes"/>
      <point x="387" y="573"/>
      <point x="416" y="535"/>
      <point x="416" y="438" type="curve"/>
      <point x="510" y="438"/>
      <point x="546" y="450"/>
      <point x="603" y="475" type="curve"/>
      <point x="591" y="614"/>
      <point x="510" y="693"/>
      <point x="387" y="693" type="curve" smooth="yes"/>
      <point x="174" y="693"/>
      <point x="35" y="490"/>
      <point x="35" y="261" type="curve" smooth="yes"/>
      <point x="35" y="51"/>
      <point x="153" y="-35"/>
      <point x="299" y="-35" type="curve" smooth="yes"/>
      <point x="483" y="-35"/>
      <point x="579" y="63"/>
    </contour>
    <contour>
      <point x="323" y="-252" type="curve" smooth="yes"/>
      <point x="409" y="-252"/>
      <point x="462" y="-208"/>
      <point x="462" y="-146" type="curve" smooth="yes"/>
      <point x="462" y="-96"/>
      <point x="423" y="-64"/>
      <point x="370" y="-64" type="curve" smooth="yes"/>
      <point x="341" y="-64"/>
      <point x="324" y="-71"/>
      <point x="299" y="-83" type="curve"/>
      <point x="323" y="-107" type="line"/>
      <point x="338" y="-73"/>
      <point x="345" y="-44"/>
      <point x="347" y="-20" type="curve"/>
      <point x="290" y="-7" type="line"/>
      <point x="291" y="-40"/>
      <point x="280" y="-85"/>
      <point x="264" y="-113" type="curve"/>
      <point x="269" y="-121"/>
      <point x="277" y="-129"/>
      <point x="286" y="-136" type="curve"/>
      <point x="298" y="-130"/>
      <point x="309" y="-127"/>
      <point x="320" y="-127" type="curve" smooth="yes"/>
      <point x="340" y="-127"/>
      <point x="352" y="-138"/>
      <point x="352" y="-157" type="curve" smooth="yes"/>
      <point x="352" y="-177"/>
      <point x="340" y="-189"/>
      <point x="321" y="-189" type="curve" smooth="yes"/>
      <point x="299" y="-189"/>
      <point x="281" y="-172"/>
      <point x="273" y="-147" type="curve"/>
      <point x="254" y="-155"/>
      <point x="234" y="-165"/>
      <point x="208" y="-181" type="curve"/>
      <point x="226" y="-230"/>
      <point x="273" y="-252"/>
    </contour>
  </outline>
</glyph>
<glyph name="Eth" format="1">
  <advance width="633"/>
  <unicode hex="00D0"/>
  <outline>
    <contour>
      <point x="247" y="-9" type="curve"/>
      <point x="244" y="57"/>
      <point x="241" y="124"/>
      <point x="241" y="191" type="curve" smooth="yes"/>
      <point x="241" y="345"/>
      <point x="248" y="499"/>
      <point x="263" y="650" type="curve"/>
      <point x="205.642857143" y="665.642857143"/>
      <point x="123.35483871" y="670.774193548"/>
      <point x="48" y="659" type="curve"/>
      <point x="46" y="608"/>
      <point x="45" y="558"/>
      <point x="45" y="508" type="curve" smooth="yes"/>
      <point x="45" y="357"/>
      <point x="58" y="172"/>
      <point x="77" y="4" type="curve"/>
      <point x="127" y="-5"/>
      <point x="195" y="-9"/>
    </contour>
    <contour>
      <point x="613" y="441" type="curve" smooth="yes"/>
      <point x="613" y="612"/>
      <point x="510" y="717"/>
      <point x="291" y="717" type="curve" smooth="yes"/>
      <point x="203" y="717"/>
      <point x="132" y="698"/>
      <point x="48" y="659" type="curve"/>
      <point x="54" y="613"/>
      <point x="74" y="568"/>
      <point x="104" y="522" type="curve"/>
      <point x="163" y="560"/>
      <point x="220" y="599"/>
      <point x="274" y="599" type="curve" smooth="yes"/>
      <point x="354" y="599"/>
      <point x="408" y="537"/>
      <point x="408" y="439" type="curve" smooth="yes"/>
      <point x="408" y="277"/>
      <point x="324" y="145"/>
      <point x="157" y="106" type="curve"/>
      <point x="247" y="-9" type="line"/>
      <point x="456" y="53"/>
      <point x="613" y="261"/>
    </contour>
    <contour>
      <point x="-18" y="421" type="curve"/>
      <point x="-23" y="399"/>
      <point x="-23" y="349"/>
      <point x="-20" y="324" type="curve"/>
      <point x="72" y="316"/>
      <point x="205" y="314"/>
      <point x="321" y="334" type="curve"/>
      <point x="324" y="366"/>
      <point x="323" y="400"/>
      <point x="321" y="428" type="curve"/>
      <point x="227" y="420"/>
      <point x="103" y="417"/>
    </contour>
  </outline>
</glyph>
<glyph name="multiply" format="1">
  <advance width="501"/>
  <unicode hex="00D7"/>
  <outline>
    <contour>
      <point x="374" y="548" type="curve"/>
      <point x="275" y="424"/>
      <point x="165" y="314"/>
      <point x="47" y="223" type="curve"/>
      <point x="74" y="188"/>
      <point x="97" y="162"/>
      <point x="127" y="132" type="curve"/>
      <point x="226" y="203"/>
      <point x="365" y="339"/>
      <point x="447" y="451" type="curve"/>
      <point x="428" y="486"/>
      <point x="404" y="518"/>
    </contour>
    <contour>
      <point x="371" y="133" type="curve"/>
      <point x="403" y="161"/>
      <point x="430" y="190"/>
      <point x="454" y="220" type="curve"/>
      <point x="372" y="332"/>
      <point x="233" y="468"/>
      <point x="134" y="540" type="curve"/>
      <point x="104" y="509"/>
      <point x="81" y="484"/>
      <point x="54" y="448" type="curve"/>
      <point x="169" y="360"/>
      <point x="275" y="253"/>
    </contour>
  </outline>
</glyph>
<glyph name="Oslash" format="1">
  <advance width="649"/>
  <unicode hex="00D8"/>
  <outline>
    <contour>
      <point x="368" y="733" type="curve" smooth="yes"/>
      <point x="161" y="733"/>
      <point x="30" y="558"/>
      <point x="30" y="323" type="curve" smooth="yes"/>
      <point x="30" y="149"/>
      <point x="98" y="-20"/>
      <point x="279" y="-20" type="curve" smooth="yes"/>
      <point x="542" y="-20"/>
      <point x="619" y="269"/>
      <point x="619" y="432" type="curve" smooth="yes"/>
      <point x="619" y="627"/>
      <point x="525" y="733"/>
    </contour>
    <contour>
      <point x="325" y="603" type="curve" smooth="yes"/>
      <point x="387" y="603"/>
      <point x="410" y="540"/>
      <point x="410" y="377" type="curve" smooth="yes"/>
      <point x="410" y="264"/>
      <point x="403" y="110"/>
      <point x="322" y="110" type="curve" smooth="yes"/>
      <point x="252" y="110"/>
      <point x="235" y="242"/>
      <point x="235" y="351" type="curve" smooth="yes"/>
      <point x="235" y="502"/>
      <point x="264" y="603"/>
    </contour>
    <contour>
      <point x="300.5" y="42"/>
      <point x="490.5" y="424"/>
      <point x="601.5" y="683" type="curve"/>
      <point x="560.5" y="727"/>
      <point x="498.5" y="757"/>
      <point x="459.5" y="760" type="curve"/>
      <point x="394.5" y="576"/>
      <point x="144.5" y="39"/>
      <point x="40.5" y="-154" type="curve"/>
      <point x="66.5" y="-176"/>
      <point x="121.5" y="-200"/>
      <point x="154.5" y="-211" type="curve"/>
    </contour>
  </outline>
</glyph>
<glyph name="Thorn" format="1">
  <advance width="634"/>
  <unicode hex="00DE"/>
  <outline>
    <contour>
      <point x="270" y="-68" type="curve"/>
      <point x="266" y="27"/>
      <point x="261" y="123"/>
      <point x="261" y="221" type="curve" smooth="yes"/>
      <point x="261" y="376"/>
      <point x="268" y="539"/>
      <point x="283" y="685" type="curve"/>
      <point x="225.642857143" y="700.642857143"/>
      <point x="143.35483871" y="705.774193548"/>
      <point x="68" y="694" type="curve"/>
      <point x="64" y="645"/>
      <point x="61" y="586"/>
      <point x="61" y="538" type="curve" smooth="yes"/>
      <point x="61.0" y="340.0"/>
      <point x="74.9602720212" y="142.340278775"/>
      <point x="98" y="-55" type="curve"/>
      <point x="149.450687203" y="-64.2611236965"/>
      <point x="217.473053892" y="-68.0"/>
    </contour>
    <contour>
      <point x="596" y="392" type="curve" smooth="yes"/>
      <point x="596" y="505"/>
      <point x="515" y="587"/>
      <point x="341" y="587" type="curve" smooth="yes"/>
      <point x="247" y="587"/>
      <point x="139" y="565"/>
      <point x="68" y="529" type="curve"/>
      <point x="74" y="488"/>
      <point x="94" y="448"/>
      <point x="121" y="406" type="curve"/>
      <point x="163" y="433"/>
      <point x="232" y="474"/>
      <point x="300" y="474" type="curve" smooth="yes"/>
      <point x="376" y="474"/>
      <point x="390" y="409"/>
      <point x="390" y="356" type="curve" smooth="yes"/>
      <point x="390" y="250"/>
      <point x="336" y="192"/>
      <point x="231" y="177" type="curve"/>
      <point x="250" y="51" type="line"/>
      <point x="467" y="110"/>
      <point x="596" y="241"/>
    </contour>
  </outline>
</glyph>
<glyph name="germandbls" format="1">
  <advance width="761"/>
  <unicode hex="00DF"/>
  <outline>
    <contour>
      <point x="153.0" y="370.0" type="line"/>
      <point x="85.0" y="379.0"/>
      <point x="34.0" y="390.0"/>
      <point x="10.0" y="400.0" type="curve"/>
      <point x="10.0" y="423.0"/>
      <point x="21.0" y="480.0"/>
      <point x="31.0" y="490.0" type="curve"/>
      <point x="56.0" y="487.0"/>
      <point x="101.0" y="483.0"/>
      <point x="153.0" y="481.0" type="curve"/>
    </contour>
    <contour>
      <point x="481" y="436" type="curve" smooth="yes"/>
      <point x="481" y="324"/>
      <point x="736" y="308"/>
      <point x="736" y="143" type="curve" smooth="yes"/>
      <point x="736" y="31"/>
      <point x="663" y="-45"/>
      <point x="531" y="-45" type="curve" smooth="yes"/>
      <point x="421" y="-45"/>
      <point x="342" y="26"/>
      <point x="334" y="130" type="curve"/>
      <point x="370" y="148"/>
      <point x="432" y="156"/>
      <point x="463" y="156" type="curve"/>
      <point x="463" y="97"/>
      <point x="483" y="58"/>
      <point x="522" y="58" type="curve" smooth="yes"/>
      <point x="549" y="58"/>
      <point x="564" y="75"/>
      <point x="564" y="101" type="curve" smooth="yes"/>
      <point x="564" y="195"/>
      <point x="337" y="177"/>
      <point x="337" y="347" type="curve" smooth="yes"/>
      <point x="337" y="399"/>
      <point x="355" y="436"/>
      <point x="385" y="472" type="curve" smooth="yes"/>
      <point x="418" y="512"/>
      <point x="424" y="534"/>
      <point x="424" y="560" type="curve" smooth="yes"/>
      <point x="424" y="589"/>
      <point x="397" y="616"/>
      <point x="363" y="616" type="curve" smooth="yes"/>
      <point x="302" y="616"/>
      <point x="264" y="564"/>
      <point x="264" y="449" type="curve" smooth="yes"/>
      <point x="264" y="282"/>
      <point x="317" y="52"/>
      <point x="329" y="11" type="curve"/>
      <point x="277" y="-8"/>
      <point x="190" y="-21"/>
      <point x="120" y="-21" type="curve"/>
      <point x="107" y="38"/>
      <point x="81" y="236"/>
      <point x="81" y="391" type="curve" smooth="yes"/>
      <point x="81" y="618"/>
      <point x="200" y="727"/>
      <point x="355" y="727" type="curve" smooth="yes"/>
      <point x="459" y="727"/>
      <point x="534" y="661"/>
      <point x="534" y="596" type="curve" smooth="yes"/>
      <point x="534" y="565"/>
      <point x="525" y="543"/>
      <point x="512" y="522" type="curve" smooth="yes"/>
      <point x="493" y="491"/>
      <point x="481" y="471"/>
    </contour>
  </outline>
</glyph>
<glyph name="ae" format="1">
  <advance width="828"/>
  <unicode hex="00E6"/>
  <outline>
    <contour>
      <point x="295" y="528" type="curve" smooth="yes"/>
      <point x="175" y="528"/>
      <point x="77" y="467"/>
      <point x="54" y="402" type="curve"/>
      <point x="75" y="344"/>
      <point x="131" y="309"/>
      <point x="219" y="309" type="curve"/>
      <point x="221" y="382"/>
      <point x="250" y="424"/>
      <point x="279" y="424" type="curve" smooth="yes"/>
      <point x="314" y="424"/>
      <point x="324" y="376"/>
      <point x="326" y="301" type="curve" smooth="yes"/>
      <point x="327" y="283"/>
      <point x="327" y="264"/>
      <point x="327" y="244" type="curve"/>
      <point x="486" y="298" type="line"/>
      <point x="486" y="320"/>
      <point x="484" y="343"/>
      <point x="480" y="366" type="curve" smooth="yes"/>
      <point x="464" y="449"/>
      <point x="415" y="528"/>
    </contour>
    <contour>
      <point x="447" y="234" type="line"/>
      <point x="491" y="216"/>
      <point x="539" y="208"/>
      <point x="582" y="208" type="curve" smooth="yes"/>
      <point x="655" y="208"/>
      <point x="720" y="215"/>
      <point x="767" y="238" type="curve"/>
      <point x="781" y="277"/>
      <point x="790" y="334"/>
      <point x="790" y="375" type="curve" smooth="yes"/>
      <point x="790" y="466"/>
      <point x="717" y="531"/>
      <point x="616" y="531" type="curve" smooth="yes"/>
      <point x="455" y="531"/>
      <point x="320.0" y="370.0"/>
      <point x="320" y="176" type="curve" smooth="yes"/>
      <point x="320" y="52"/>
      <point x="406" y="-56"/>
      <point x="534" y="-56" type="curve" smooth="yes"/>
      <point x="703" y="-56"/>
      <point x="777" y="48"/>
      <point x="788" y="83" type="curve"/>
      <point x="754" y="118"/>
      <point x="696" y="148"/>
      <point x="646" y="157" type="curve"/>
      <point x="635" y="121"/>
      <point x="603" y="55"/>
      <point x="571" y="55" type="curve" smooth="yes"/>
      <point x="529" y="55"/>
      <point x="511" y="106"/>
      <point x="511" y="179" type="curve" smooth="yes"/>
      <point x="511" y="293"/>
      <point x="546" y="431"/>
      <point x="592" y="431" type="curve" smooth="yes"/>
      <point x="609" y="431"/>
      <point x="614" y="413"/>
      <point x="614" y="390" type="curve" smooth="yes"/>
      <point x="614" y="363"/>
      <point x="608" y="333"/>
      <point x="601" y="307" type="curve"/>
      <point x="596" y="306"/>
      <point x="578" y="305"/>
      <point x="568" y="305" type="curve" smooth="yes"/>
      <point x="542" y="305"/>
      <point x="498" y="315"/>
      <point x="456" y="338" type="curve"/>
    </contour>
    <contour>
      <point x="349" y="260" type="line"/>
      <point x="331" y="262"/>
      <point x="314" y="263"/>
      <point x="255" y="263" type="curve" smooth="yes"/>
      <point x="91" y="263"/>
      <point x="24" y="210"/>
      <point x="24" y="121" type="curve" smooth="yes"/>
      <point x="24" y="27"/>
      <point x="97" y="-32"/>
      <point x="207" y="-32" type="curve" smooth="yes"/>
      <point x="263" y="-32"/>
      <point x="325" y="-20"/>
      <point x="396" y="45" type="curve"/>
      <point x="405" y="133" type="line"/>
      <point x="363" y="87"/>
      <point x="301" y="59"/>
      <point x="270" y="59" type="curve" smooth="yes"/>
      <point x="239" y="59"/>
      <point x="223" y="76"/>
      <point x="223" y="107" type="curve" smooth="yes"/>
      <point x="223" y="154"/>
      <point x="258" y="179"/>
      <point x="349" y="179" type="curve"/>
    </contour>
  </outline>
</glyph>
<glyph name="ccedilla" format="1">
  <advance width="526"/>
  <unicode hex="00E7"/>
  <outline>
    <contour>
      <point x="343" y="342" type="curve"/>
      <point x="411" y="342"/>
      <point x="469" y="349"/>
      <point x="516" y="372" type="curve"/>
      <point x="516.0" y="468.0"/>
      <point x="454" y="543"/>
      <point x="318" y="543" type="curve" smooth="yes"/>
      <point x="132" y="543"/>
      <point x="30" y="355"/>
      <point x="30" y="203" type="curve" smooth="yes"/>
      <point x="30" y="82"/>
      <point x="97" y="-25"/>
      <point x="251" y="-25" type="curve" smooth="yes"/>
      <point x="420" y="-25"/>
      <point x="494" y="79"/>
      <point x="505" y="114" type="curve"/>
      <point x="481" y="149"/>
      <point x="439" y="176"/>
      <point x="402" y="183" type="curve"/>
      <point x="379" y="150"/>
      <point x="337" y="86"/>
      <point x="288" y="86" type="curve" smooth="yes"/>
      <point x="247.442307692" y="86.0"/>
      <point x="231" y="143"/>
      <point x="231" y="210" type="curve" smooth="yes"/>
      <point x="231" y="326"/>
      <point x="264.279411765" y="446.0"/>
      <point x="304" y="446" type="curve" smooth="yes"/>
      <point x="334" y="446"/>
      <point x="343" y="403"/>
    </contour>
    <contour>
      <point x="253.5" y="-220" type="curve"/>
      <point x="328.5" y="-220"/>
      <point x="381.5" y="-179"/>
      <point x="381.5" y="-117" type="curve" smooth="yes"/>
      <point x="381.5" y="-77"/>
      <point x="345.5" y="-50"/>
      <point x="295.5" y="-50" type="curve" smooth="yes"/>
      <point x="277.5" y="-50"/>
      <point x="262.5" y="-53"/>
      <point x="224.5" y="-62" type="curve"/>
      <point x="244.5" y="-85" type="line"/>
      <point x="256.5" y="-49"/>
      <point x="263.5" y="-24"/>
      <point x="264.5" y="-12" type="curve"/>
      <point x="207.5" y="1" type="line"/>
      <point x="205.5" y="-32"/>
      <point x="199.5" y="-60"/>
      <point x="189.5" y="-87" type="curve"/>
      <point x="194.5" y="-95"/>
      <point x="207.5" y="-107"/>
      <point x="216.5" y="-114" type="curve"/>
      <point x="228.5" y="-107"/>
      <point x="239.5" y="-105"/>
      <point x="250.5" y="-105" type="curve" smooth="yes"/>
      <point x="269.5" y="-105"/>
      <point x="282.5" y="-115"/>
      <point x="282.5" y="-136" type="curve" smooth="yes"/>
      <point x="282.5" y="-156"/>
      <point x="270.5" y="-167"/>
      <point x="251.5" y="-167" type="curve" smooth="yes"/>
      <point x="229.5" y="-167"/>
      <point x="211.5" y="-150"/>
      <point x="203.5" y="-125" type="curve"/>
      <point x="184.5" y="-133"/>
      <point x="170.5" y="-140"/>
      <point x="144.5" y="-156" type="curve"/>
      <point x="159.5" y="-195"/>
      <point x="202.5" y="-220"/>
    </contour>
  </outline>
</glyph>
<glyph name="divide" format="1">
  <advance width="501"/>
  <unicode hex="00F7"/>
  <outline>
    <contour>
      <point x="39" y="394" type="curve"/>
      <point x="33" y="350"/>
      <point x="31" y="316"/>
      <point x="31" y="273" type="curve"/>
      <point x="146" y="255"/>
      <point x="322" y="252"/>
      <point x="453" y="273" type="curve"/>
      <point x="464" y="311"/>
      <point x="470" y="351"/>
      <point x="470" y="393" type="curve"/>
      <point x="322" y="377"/>
      <point x="177" y="376"/>
    </contour>
    <contour>
      <point x="355" y="432" type="curve"/>
      <point x="364" y="489"/>
      <point x="368" y="540"/>
      <point x="370" y="598" type="curve"/>
      <point x="290" y="610"/>
      <point x="225" y="602"/>
      <point x="179" y="591" type="curve"/>
      <point x="179" y="533"/>
      <point x="181" y="496"/>
      <point x="186" y="433" type="curve"/>
      <point x="240" y="426"/>
      <point x="289" y="425"/>
    </contour>
    <contour>
      <point x="346" y="40" type="curve"/>
      <point x="355" y="97"/>
      <point x="359" y="148"/>
      <point x="361" y="206" type="curve"/>
      <point x="281" y="218"/>
      <point x="216" y="210"/>
      <point x="170" y="199" type="curve"/>
      <point x="170" y="141"/>
      <point x="172" y="104"/>
      <point x="177" y="41" type="curve"/>
      <point x="231" y="34"/>
      <point x="280" y="33"/>
    </contour>
  </outline>
</glyph>
<glyph name="oslash" format="1">
  <advance width="554"/>
  <unicode hex="00F8"/>
  <outline>
    <contour>
      <point x="318" y="553" type="curve" smooth="yes"/>
      <point x="141" y="553"/>
      <point x="25" y="416"/>
      <point x="25" y="233" type="curve" smooth="yes"/>
      <point x="25" y="110"/>
      <point x="80" y="-10"/>
      <point x="229" y="-10" type="curve" smooth="yes"/>
      <point x="456" y="-10"/>
      <point x="524" y="215"/>
      <point x="524" y="342" type="curve" smooth="yes"/>
      <point x="524" y="479"/>
      <point x="447" y="553"/>
    </contour>
    <contour>
      <point x="275" y="438" type="curve" smooth="yes"/>
      <point x="308" y="438"/>
      <point x="325" y="396"/>
      <point x="325" y="287" type="curve" smooth="yes"/>
      <point x="325" y="213"/>
      <point x="314" y="105"/>
      <point x="272" y="105" type="curve" smooth="yes"/>
      <point x="235" y="105"/>
      <point x="220" y="193"/>
      <point x="220" y="261" type="curve" smooth="yes"/>
      <point x="220" y="367"/>
      <point x="243" y="438"/>
    </contour>
    <contour>
      <point x="131" y="-67" type="curve"/>
      <point x="510" y="531" type="line"/>
      <point x="476" y="565"/>
      <point x="454" y="579"/>
      <point x="409" y="599" type="curve"/>
      <point x="38" y="-11" type="line"/>
      <point x="67" y="-36"/>
      <point x="100" y="-58"/>
    </contour>
  </outline>
</glyph>
<glyph name="thorn" format="1">
  <advance width="569"/>
  <unicode hex="00FE"/>
  <outline>
    <contour>
      <point x="204" y="156" type="curve"/>
      <point x="79" y="64" type="line"/>
      <point x="120" y="42"/>
      <point x="176" y="10"/>
      <point x="274" y="10" type="curve" smooth="yes"/>
      <point x="424" y="10"/>
      <point x="549" y="148"/>
      <point x="549" y="379" type="curve" smooth="yes"/>
      <point x="549" y="498"/>
      <point x="495" y="573"/>
      <point x="401" y="573" type="curve" smooth="yes"/>
      <point x="294" y="573"/>
      <point x="230" y="471"/>
      <point x="195" y="357" type="curve"/>
      <point x="240" y="323" type="line"/>
      <point x="256" y="404"/>
      <point x="284" y="431"/>
      <point x="312" y="431" type="curve" smooth="yes"/>
      <point x="339" y="431"/>
      <point x="350.0" y="406.0"/>
      <point x="350" y="358" type="curve" smooth="yes"/>
      <point x="350.0" y="211.0"/>
      <point x="313" y="118"/>
      <point x="272" y="118" type="curve" smooth="yes"/>
      <point x="245" y="118"/>
      <point x="222" y="137"/>
    </contour>
    <contour>
      <point x="95.0" y="-233.0" type="curve"/>
      <point x="150.0" y="-233.0"/>
      <point x="223.0" y="-224.0"/>
      <point x="260.0" y="-213.0" type="curve"/>
      <point x="249.0" y="-103.0"/>
      <point x="241.0" y="-7.0"/>
      <point x="241.0" y="99.0" type="curve" smooth="yes"/>
      <point x="241.0" y="256.0"/>
      <point x="249" y="467"/>
      <point x="277" y="570" type="curve"/>
      <point x="251" y="576"/>
      <point x="235.0" y="578.0"/>
      <point x="213.0" y="578.0" type="curve" smooth="yes"/>
      <point x="158.0" y="578.0"/>
      <point x="98.0" y="568.0"/>
      <point x="67.0" y="552.0" type="curve"/>
      <point x="61.0" y="494.0"/>
      <point x="58" y="436"/>
      <point x="58.0" y="353.0" type="curve" smooth="yes"/>
      <point x="58" y="142"/>
      <point x="77.0" y="-102.0"/>
    </contour>
  </outline>
</glyph>
<glyph name="Aogonek" format="1">
  <advance width="673"/>
  <unicode hex="0104"/>
  <outline>
    <contour>
      <point x="473" y="-117" type="curve"/>
      <point x="554" y="-107"/>
      <point x="621" y="-89"/>
      <point x="672" y="-55" type="curve"/>
      <point x="629" y="210"/>
      <point x="549" y="484"/>
      <point x="420" y="689" type="curve"/>
      <point x="363" y="703"/>
      <point x="317" y="710"/>
      <point x="244" y="710" type="curve"/>
      <point x="175" y="466"/>
      <point x="111" y="278"/>
      <point x="-9" y="55" type="curve"/>
      <point x="24" y="13"/>
      <point x="85" y="-21"/>
      <point x="152" y="-32" type="curve"/>
      <point x="221" y="109"/>
      <point x="296" y="356"/>
      <point x="341" y="537" type="curve"/>
      <point x="304" y="535" type="line"/>
      <point x="387" y="347"/>
      <point x="451" y="99"/>
    </contour>
    <contour>
      <point x="471" y="279" type="line"/>
      <point x="366" y="279"/>
      <point x="272" y="269"/>
      <point x="174" y="250" type="curve"/>
      <point x="180" y="124" type="line"/>
      <point x="279" y="139"/>
      <point x="382" y="142"/>
      <point x="481" y="142" type="curve"/>
    </contour>
    <contour>
      <point x="672" y="-55" type="curve"/>
      <point x="613" y="-53" type="line"/>
      <point x="560" y="-95"/>
      <point x="509" y="-144"/>
      <point x="509" y="-201" type="curve" smooth="yes"/>
      <point x="509" y="-246"/>
      <point x="542" y="-281"/>
      <point x="606" y="-281" type="curve" smooth="yes"/>
      <point x="652" y="-281"/>
      <point x="697" y="-259"/>
      <point x="724" y="-224" type="curve"/>
      <point x="715" y="-204"/>
      <point x="702" y="-186"/>
      <point x="686" y="-173" type="curve"/>
      <point x="668" y="-200"/>
      <point x="651" y="-212"/>
      <point x="634" y="-212" type="curve" smooth="yes"/>
      <point x="614" y="-212"/>
      <point x="603" y="-199"/>
      <point x="603" y="-179" type="curve" smooth="yes"/>
      <point x="603" y="-147"/>
      <point x="621" y="-112"/>
    </contour>
  </outline>
</glyph>
<glyph name="aogonek" format="1">
  <advance width="553"/>
  <unicode hex="0105"/>
  <outline>
    <contour>
      <point x="349" y="214" type="line"/>
      <point x="258" y="214"/>
      <point x="223" y="189"/>
      <point x="223" y="142" type="curve" smooth="yes"/>
      <point x="223" y="111"/>
      <point x="239.0" y="94.0"/>
      <point x="270" y="94" type="curve" smooth="yes"/>
      <point x="301" y="94"/>
      <point x="321" y="106"/>
      <point x="346" y="126" type="curve"/>
      <point x="337" y="38" type="line"/>
      <point x="306" y="17"/>
      <point x="263" y="3"/>
      <point x="207" y="3" type="curve" smooth="yes"/>
      <point x="97" y="3"/>
      <point x="24.0" y="61.9256756757"/>
      <point x="24" y="156" type="curve" smooth="yes"/>
      <point x="24" y="245"/>
      <point x="91.0" y="298.0"/>
      <point x="255" y="298" type="curve" smooth="yes"/>
      <point x="314" y="298"/>
      <point x="331" y="297"/>
      <point x="349" y="295" type="curve"/>
    </contour>
    <contour>
      <point x="131" y="344"/>
      <point x="75" y="379"/>
      <point x="54" y="437" type="curve"/>
      <point x="74" y="493"/>
      <point x="159" y="563"/>
      <point x="295" y="563" type="curve" smooth="yes"/>
      <point x="473" y="563"/>
      <point x="516.0" y="458.512820513"/>
      <point x="516" y="358" type="curve" smooth="yes"/>
      <point x="516" y="255"/>
      <point x="481" y="74"/>
      <point x="455" y="-37" type="curve"/>
      <point x="406" y="-37"/>
      <point x="349" y="-30"/>
      <point x="302" y="-20" type="curve"/>
      <point x="319" y="107"/>
      <point x="327" y="192"/>
      <point x="327" y="279" type="curve" smooth="yes"/>
      <point x="327.0" y="386.058823529"/>
      <point x="322" y="459"/>
      <point x="279" y="459" type="curve" smooth="yes"/>
      <point x="250" y="459"/>
      <point x="221" y="417"/>
      <point x="219" y="344" type="curve"/>
    </contour>
    <contour>
      <point x="455" y="-37" type="line"/>
      <point x="404" y="-94"/>
      <point x="386" y="-129"/>
      <point x="386" y="-161" type="curve" smooth="yes"/>
      <point x="386" y="-181"/>
      <point x="397" y="-194"/>
      <point x="417" y="-194" type="curve" smooth="yes"/>
      <point x="434" y="-194"/>
      <point x="451" y="-182"/>
      <point x="469" y="-155" type="curve"/>
      <point x="485" y="-168"/>
      <point x="498" y="-186"/>
      <point x="507" y="-206" type="curve"/>
      <point x="480" y="-241"/>
      <point x="435" y="-263"/>
      <point x="389" y="-263" type="curve" smooth="yes"/>
      <point x="325" y="-263"/>
      <point x="292" y="-228"/>
      <point x="292" y="-183" type="curve" smooth="yes"/>
      <point x="292" y="-126"/>
      <point x="343" y="-77"/>
      <point x="396" y="-35" type="curve"/>
    </contour>
  </outline>
</glyph>
<glyph name="dcaron" format="1">
  <advance width="599"/>
  <unicode hex="010F"/>
  <outline>
    <contour>
      <point x="745" y="665" type="curve"/>
      <point x="699" y="679"/>
      <point x="638" y="684"/>
      <point x="579" y="680" type="curve"/>
      <point x="580" y="599"/>
      <point x="577" y="546"/>
      <point x="563" y="444" type="curve"/>
      <point x="600" y="434"/>
      <point x="642" y="428"/>
      <point x="690" y="425" type="curve"/>
      <point x="725" y="521"/>
      <point x="740" y="582"/>
    </contour>
    <component base="d"/>
  </outline>
</glyph>
